<svg version="1.1" viewBox="0.0 0.0 718.0 332.0" fill="none" stroke="none" stroke-linecap="square" stroke-miterlimit="10" width="718" height="332" xmlns:xlink="http://www.w3.org/1999/xlink" xmlns="http://www.w3.org/2000/svg"><path fill="#ffffff" d="M0 0L718.0 0L718.0 332.0L0 332.0L0 0Z" fill-rule="nonzero"/><path fill="#ffffff" d="M0 0L718.0 0L718.0 332.0L0 332.0L0 0Z" fill-rule="nonzero"/><path stroke="#cccccc" stroke-width="1.0" stroke-linecap="butt" d="M43.5 50.5L43.5 261.5" fill-rule="nonzero"/><path stroke="#cccccc" stroke-width="1.0" stroke-linecap="butt" d="M262.5 50.5L262.5 261.5" fill-rule="nonzero"/><path stroke="#cccccc" stroke-width="1.0" stroke-linecap="butt" d="M482.5 50.5L482.5 261.5" fill-rule="nonzero"/><path stroke="#cccccc" stroke-width="1.0" stroke-linecap="butt" d="M701.5 50.5L701.5 261.5" fill-rule="nonzero"/><path stroke="#cccccc" stroke-width="1.0" stroke-linecap="butt" d="M43.5 261.5L701.5 261.5" fill-rule="nonzero"/><path stroke="#cccccc" stroke-width="1.0" stroke-linecap="butt" d="M43.5 190.5L701.5 190.5" fill-rule="nonzero"/><path stroke="#cccccc" stroke-width="1.0" stroke-linecap="butt" d="M43.5 120.5L701.5 120.5" fill-rule="nonzero"/><path stroke="#cccccc" stroke-width="1.0" stroke-linecap="butt" d="M43.5 50.5L701.5 50.5" fill-rule="nonzero"/><clipPath id="id_0"><path d="M43.6 50.166668L701.4 50.166668L701.4 261.4L43.6 261.4L43.6 50.166668Z" clip-rule="nonzero"/></clipPath><path stroke="#4285f4" stroke-width="2.0" stroke-linecap="butt" clip-path="url(#id_0)" d="M43.6 277.559L47.985332 276.62076L52.370667 271.83774L56.756 270.88403L61.141335 269.88596L65.526665 269.09665L69.912 266.1017L74.29733 262.69238L78.68266 260.78497L83.068 255.36154L87.45333 252.59862L91.83867 251.93533L96.224 248.75099L100.60934 245.14313L104.99467 242.19713L109.38 239.16487L113.765335 237.68413L118.150665 236.08122L122.536 232.6332L126.92133 231.00212L131.30667 229.90018L135.692 226.19444L140.07733 222.20425L144.46266 219.81625L148.848 216.0394L153.23334 214.62485L157.61867 212.72972L162.004 211.09232L166.38933 207.03804L170.77467 206.2681L175.16 202.95737L179.54533 199.8202L183.93066 196.80872L188.316 194.5971L192.70134 193.44447L197.08667 190.7076L201.472 188.20026L205.85733 186.73853L210.24266 184.93001L214.628 182.49554L219.01334 180.44307L223.39867 177.29393L227.784 175.04324L232.16933 172.57426L236.55467 170.78337L240.94 168.95232L245.32533 166.44498L249.71066 164.30942L254.096 163.40886L258.48132 162.6192L262.86667 161.20781L267.252 159.90167L271.63733 156.61946L276.02267 155.05563L280.408 153.29817L284.79333 152.37227L289.17868 151.68013L293.564 150.6722L297.94934 149.38402L302.33466 147.91946L306.72 145.38185L311.10535 143.03928L315.49066 141.329L319.876 138.38686L324.26132 137.18213L328.64667 136.5273L333.032 135.17084L337.41733 134.04425L341.80267 132.71489L346.188 130.9627L350.57333 129.61082L354.95868 129.34607L359.344 128.81729L363.72934 127.59636L368.11465 125.93712L372.5 124.82744L376.88535 123.96878L381.27066 123.07808L385.656 120.39752L390.04132 119.289604L394.42667 117.62473L398.812 117.424065L403.19733 115.892975L407.58267 113.871826L411.968 112.01473L416.35333 110.09532L420.73868 109.09971L425.124 107.6672L429.50934 106.14315L433.89465 105.549934L438.28 104.938416L442.66534 104.10862L447.05066 102.96655L451.436 102.93381L455.82132 100.708115L460.20667 99.818825L464.592 98.61867L468.97733 97.86034L473.36267 95.92896L477.748 94.34119L482.13333 93.19384L486.51868 92.90515L490.904 91.780334L495.28934 90.775215L499.67465 90.60518L504.06 88.897354L508.44534 86.8498L512.8307 85.31167L517.216 84.86034L521.6013 83.829865L525.9867 82.79271L530.372 81.73654L534.7573 80.93104L539.14264 79.94599L543.528 78.99368L547.9133 78.13467L552.29865 78.19346L556.684 77.533005L561.06934 76.156815L565.45465 75.822014L569.84 75.79631L574.22534 74.625725L578.61066 73.34002L582.996 72.82461L587.38135 71.93778L591.76666 70.95801L596.152 70.361984L600.53735 69.708565L604.92267 69.08719L609.308 69.01466L613.69336 67.86978L618.0787 67.802536L622.464 67.703255L626.8493 67.60468L631.2347 68.3271L635.62 68.42145L640.0053 68.385895L644.3907 69.06008L648.776 68.86082L653.1613 70.378525L657.5467 71.83146L661.932 72.78448L666.3173 73.827614L670.70264 73.68644L675.088 75.19289L679.4733 76.27722L683.85864 78.647606L688.244 80.56349L692.62933 80.90182L697.01465 80.90182L701.4 80.90182" fill-rule="nonzero"/><path stroke="#db4437" stroke-width="2.0" stroke-linecap="butt" clip-path="url(#id_0)" d="M43.6 98.581696L47.985332 98.89503L52.370667 98.19866L56.756 98.356384L61.141335 98.35744L65.526665 98.986916L69.912 98.83482L74.29733 98.76195L78.68266 98.76512L83.068 98.05855L87.45333 98.06136L91.83867 98.7014L96.224 98.62676L100.60934 98.471855L104.99467 98.71935L109.38 98.64401L113.765335 99.13548L118.150665 99.30306L122.536 98.98445L126.92133 98.98832L131.30667 99.23793L135.692 99.00029L140.07733 98.84398L144.46266 98.68309L148.848 97.93955L153.23334 98.108185L157.61867 98.027214L162.004 97.69347L166.38933 96.85522L170.77467 97.44456L175.16 97.19214L179.54533 96.513374L183.93066 96.00043L188.316 95.65612L192.70134 95.99409L197.08667 95.81771L201.472 95.98459L205.85733 96.24053L210.24266 96.41163L214.628 95.97332L219.01334 95.62021L223.39867 95.43643L227.784 95.166405L232.16933 94.98087L236.55467 95.415665L240.94 95.23189L245.32533 95.311806L249.71066 95.48326L254.096 95.84024L258.48132 96.380646L262.86667 96.287704L267.252 96.83304L271.63733 96.646805L276.02267 96.64504L280.408 96.27327L284.79333 95.99374L289.17868 97.01399L293.564 97.01399L297.94934 97.38929L302.33466 97.8628L306.72 97.67692L311.10535 96.916824L315.49066 96.820366L319.876 96.14583L324.26132 96.04655L328.64667 96.91366L333.032 96.91296L337.41733 97.30268L341.80267 97.303734L346.188 97.30444L350.57333 97.60263L354.95868 98.30041L359.344 98.90348L363.72934 98.6081L368.11465 99.42734L372.5 100.460266L376.88535 100.77958L381.27066 101.41399L385.656 100.50885L390.04132 101.04679L394.42667 100.857735L398.812 101.602684L403.19733 101.626976L407.58267 101.76745L411.968 101.799484L416.35333 101.286896L420.73868 101.85124L425.124 101.87729L429.50934 101.68366L433.89465 101.91743L438.28 102.82643L442.66534 103.63933L447.05066 103.78473L451.436 105.16584L455.82132 104.77682L460.20667 105.39256L464.592 105.318634L468.97733 105.46509L473.36267 104.46701L477.748 104.52158L482.13333 104.80252L486.51868 106.26989L490.904 106.56667L495.28934 107.10989L499.67465 108.49488L504.06 108.08826L508.44534 108.59205L512.8307 108.81807L517.216 109.49929L521.6013 109.83445L525.9867 109.77707L530.372 111.062775L534.7573 111.53699L539.14264 111.89679L543.528 112.6766L547.9133 113.320854L552.29865 116.01584L556.684 116.82134L561.06934 117.148056L565.45465 117.34063L569.84 118.38236L574.22534 118.85447L578.61066 118.5943L582.996 119.74446L587.38135 120.20002L591.76666 120.366196L596.152 121.25971L600.53735 121.219925L604.92267 122.78481L609.308 124.10502L613.69336 124.849266L618.0787 127.391815L622.464 128.27196L626.8493 130.3783L631.2347 133.16905L635.62 136.02034L640.0053 138.05312L644.3907 141.73843L648.776 143.73317L653.1613 150.74014L657.5467 158.84587L661.932 163.20009L666.3173 170.25317L670.70264 174.71652L675.088 183.27534L679.4733 191.52014L683.85864 204.03818L688.244 215.6634L692.62933 217.52542L697.01465 217.52542L701.4 217.52542" fill-rule="nonzero"/><path stroke="#f4b400" stroke-width="2.0" stroke-linecap="butt" clip-path="url(#id_0)" d="M43.6 149.62729L47.985332 149.79381L52.370667 148.29617L56.756 148.29617L61.141335 148.13L65.526665 148.62921L69.912 147.96347L74.29733 147.2981L78.68266 146.9654L83.068 145.30159L87.45333 144.80237L91.83867 145.30159L96.224 144.63585L100.60934 143.80429L104.99467 143.47125L109.38 142.80586L113.765335 142.97238L118.150665 142.80586L122.536 141.80743L126.92133 141.47475L131.30667 141.47475L135.692 140.47667L140.07733 139.47823L144.46266 138.81285L148.848 137.31555L153.23334 137.14903L157.61867 136.64981L162.004 135.98444L166.38933 134.32062L170.77467 134.6533L175.16 133.65523L179.54533 132.32411L183.93066 131.15952L188.316 130.3276L192.70134 130.3276L197.08667 129.4957L201.472 128.99648L205.85733 128.82996L210.24266 128.49727L214.628 127.49919L219.01334 126.66728L223.39867 125.66885L227.784 124.836945L232.16933 124.005035L236.55467 123.83887L240.94 123.173134L245.32533 122.507744L249.71066 122.00853L254.096 122.00853L258.48132 122.17506L262.86667 121.67584L267.252 121.67584L271.63733 120.51124L276.02267 120.012024L280.408 119.180115L284.79333 118.6809L289.17868 119.180115L293.564 118.84743L297.94934 118.6809L302.33466 118.51473L306.72 117.516304L311.10535 116.18553L315.49066 115.5198L319.876 114.02251L324.26132 113.523285L328.64667 113.85598L333.032 113.35712L337.41733 113.1906L341.80267 112.69138L346.188 112.02599L350.57333 111.693306L354.95868 112.02599L359.344 112.19217L363.72934 111.52678L368.11465 111.36061L372.5 111.52678L376.88535 111.36061L381.27066 111.36061L385.656 109.6968L390.04132 109.53027L394.42667 108.698364L398.812 109.03106L403.19733 108.36568L407.58267 107.53377L411.968 106.70186L416.35333 105.53726L420.73868 105.370735L425.124 104.70535L429.50934 103.87344L433.89465 103.706924L438.28 103.87344L442.66534 103.87344L447.05066 103.37423L451.436 104.03997L455.82132 102.70885L460.20667 102.54232L464.592 101.87694L468.97733 101.54424L473.36267 100.0466L477.748 99.21469L482.13333 98.715836L486.51868 99.21469L490.904 98.715836L495.28934 98.38314L499.67465 98.882L504.06 97.7174L508.44534 96.71932L512.8307 95.88742L517.216 95.88742L521.6013 95.38821L525.9867 94.72282L530.372 94.5563L534.7573 94.2236L539.14264 93.72439L543.528 93.39169L547.9133 93.059006L552.29865 94.05708L556.684 93.89091L561.06934 93.059006L565.45465 92.89248L569.84 93.225174L574.22534 92.55979L578.61066 91.561356L582.996 91.561356L587.38135 91.06249L591.76666 90.39676L596.152 90.23059L600.53735 89.73138L604.92267 89.73138L609.308 90.064064L613.69336 89.39868L618.0787 90.064064L622.464 90.23059L626.8493 90.729454L631.2347 92.06058L635.62 92.89248L640.0053 93.39169L644.3907 94.888985L648.776 95.22168L653.1613 98.21661L657.5467 101.37772L661.932 103.20806L666.3173 105.70343L670.70264 106.53534L675.088 109.6968L679.4733 112.35869L683.85864 117.01744L688.244 121.01045L692.62933 121.67584L697.01465 121.67584L701.4 121.67584" fill-rule="nonzero"/><path fill="#424242" d="M352.39062 304.79062L349.64062 304.79062L349.64062 312.4L348.53125 312.4L348.53125 304.79062L345.78125 304.79062L345.78125 303.86874L352.39062 303.86874L352.39062 304.79062ZM354.40625 306.82187Q355.125 305.94687 356.28125 305.94687Q358.29688 305.94687 358.3125 308.2125L358.3125 312.4L357.21875 312.4L357.21875 308.19687Q357.21875 307.525 356.90625 307.19687Q356.60938 306.86874 355.95312 306.86874Q355.42188 306.86874 355.01562 307.15Q354.625 307.43124 354.40625 307.88437L354.40625 312.4L353.32812 312.4L353.32812 303.4L354.40625 303.4L354.40625 306.82187ZM363.39062 307.025Q363.14062 306.99374 362.85938 306.99374Q361.78125 306.99374 361.40625 307.9L361.40625 312.4L360.32812 312.4L360.32812 306.05624L361.375 306.05624L361.39062 306.79062Q361.92188 305.94687 362.90625 305.94687Q363.21875 305.94687 363.39062 306.025L363.39062 307.025ZM366.95312 312.525Q365.65625 312.525 364.84375 311.68124Q364.04688 310.82187 364.04688 309.4L364.04688 309.2125Q364.04688 308.25937 364.40625 307.525Q364.76562 306.775 365.40625 306.36874Q366.0625 305.94687 366.8125 305.94687Q368.04688 305.94687 368.73438 306.75937Q369.42188 307.57187 369.42188 309.0875L369.42188 309.54062L365.125 309.54062Q365.15625 310.47812 365.67188 311.05624Q366.20312 311.63437 367.01562 311.63437Q367.57812 311.63437 367.96875 311.4Q368.375 311.16562 368.6875 310.775L369.34375 311.29062Q368.54688 312.525 366.95312 312.525ZM366.8125 306.8375Q366.15625 306.8375 365.70312 307.32187Q365.26562 307.79062 365.17188 308.65L368.34375 308.65L368.34375 308.57187Q368.29688 307.74374 367.89062 307.29062Q367.5 306.8375 366.8125 306.8375ZM374.01562 310.7125Q374.01562 310.275 373.67188 310.04062Q373.34375 309.79062 372.51562 309.61874Q371.70312 309.44687 371.21875 309.19687Q370.73438 308.94687 370.5 308.61874Q370.28125 308.275 370.28125 307.80624Q370.28125 307.025 370.9375 306.49374Q371.59375 305.94687 372.625 305.94687Q373.70312 305.94687 374.35938 306.50937Q375.03125 307.05624 375.03125 307.91562L373.95312 307.91562Q373.95312 307.47812 373.5625 307.16562Q373.1875 306.8375 372.625 306.8375Q372.03125 306.8375 371.6875 307.10312Q371.35938 307.35312 371.35938 307.75937Q371.35938 308.15 371.67188 308.35312Q371.98438 308.55624 372.79688 308.74374Q373.60938 308.91562 374.10938 309.16562Q374.60938 309.41562 374.84375 309.775Q375.09375 310.13437 375.09375 310.63437Q375.09375 311.49374 374.40625 312.00937Q373.73438 312.525 372.65625 312.525Q371.89062 312.525 371.29688 312.25937Q370.71875 311.97812 370.39062 311.49374Q370.0625 311.00937 370.0625 310.44687L371.14062 310.44687Q371.17188 310.99374 371.57812 311.32187Q371.98438 311.63437 372.65625 311.63437Q373.26562 311.63437 373.64062 311.38437Q374.01562 311.13437 374.01562 310.7125ZM377.40625 306.82187Q378.125 305.94687 379.28125 305.94687Q381.29688 305.94687 381.3125 308.2125L381.3125 312.4L380.21875 312.4L380.21875 308.19687Q380.21875 307.525 379.90625 307.19687Q379.60938 306.86874 378.95312 306.86874Q378.42188 306.86874 378.01562 307.15Q377.625 307.43124 377.40625 307.88437L377.40625 312.4L376.32812 312.4L376.32812 303.4L377.40625 303.4L377.40625 306.82187ZM383.03125 309.16562Q383.03125 308.24374 383.39062 307.49374Q383.76562 306.74374 384.42188 306.35312Q385.07812 305.94687 385.90625 305.94687Q387.20312 305.94687 388.0 306.8375Q388.8125 307.72812 388.8125 309.22812L388.8125 309.30624Q388.8125 310.22812 388.45312 310.9625Q388.09375 311.69687 387.4375 312.11874Q386.78125 312.525 385.92188 312.525Q384.64062 312.525 383.82812 311.63437Q383.03125 310.72812 383.03125 309.24374L383.03125 309.16562ZM384.125 309.30624Q384.125 310.35312 384.60938 310.99374Q385.10938 311.63437 385.92188 311.63437Q386.75 311.63437 387.23438 310.99374Q387.71875 310.3375 387.71875 309.16562Q387.71875 308.13437 387.21875 307.49374Q386.73438 306.8375 385.90625 306.8375Q385.10938 306.8375 384.60938 307.47812Q384.125 308.10312 384.125 309.30624ZM391.5 312.4L390.42188 312.4L390.42188 303.4L391.5 303.4L391.5 312.4ZM393.0625 309.18124Q393.0625 307.7125 393.75 306.8375Q394.4375 305.94687 395.5625 305.94687Q396.67188 305.94687 397.32812 306.69687L397.32812 303.4L398.40625 303.4L398.40625 312.4L397.40625 312.4L397.35938 311.7125Q396.70312 312.525 395.54688 312.525Q394.45312 312.525 393.75 311.61874Q393.0625 310.7125 393.0625 309.25937L393.0625 309.18124ZM394.14062 309.30624Q394.14062 310.38437 394.57812 310.99374Q395.03125 311.60312 395.8125 311.60312Q396.84375 311.60312 397.32812 310.66562L397.32812 307.75937Q396.84375 306.86874 395.82812 306.86874Q395.03125 306.86874 394.57812 307.47812Q394.14062 308.0875 394.14062 309.30624Z" fill-rule="nonzero"/><path fill="#757575" d="M26.6625 262.25937Q26.6625 264.16562 26.00625 265.10312Q25.365625 266.025 23.975 266.025Q22.615625 266.025 21.959375 265.11874Q21.303125 264.2125 21.271875 262.4L21.271875 260.9625Q21.271875 259.07187 21.9125 258.16562Q22.56875 257.24374 23.959375 257.24374Q25.334375 257.24374 25.990625 258.13437Q26.646875 259.00937 26.6625 260.85312L26.6625 262.25937ZM25.56875 260.775Q25.56875 259.4 25.178125 258.775Q24.803125 258.13437 23.959375 258.13437Q23.13125 258.13437 22.740625 258.775Q22.365625 259.4 22.365625 260.69687L22.365625 262.43124Q22.365625 263.80624 22.75625 264.47812Q23.1625 265.13437 23.975 265.13437Q24.771875 265.13437 25.1625 264.50937Q25.553125 263.88437 25.56875 262.55624L25.56875 260.775ZM28.44375 265.3375Q28.44375 265.05624 28.6 264.86874Q28.771875 264.68124 29.1 264.68124Q29.44375 264.68124 29.615625 264.86874Q29.7875 265.05624 29.7875 265.3375Q29.7875 265.60312 29.615625 265.79062Q29.44375 265.9625 29.1 265.9625Q28.771875 265.9625 28.6 265.79062Q28.44375 265.60312 28.44375 265.3375ZM36.896873 265.9L31.303125 265.9L31.303125 265.11874L34.25625 261.8375Q34.9125 261.0875 35.1625 260.63437Q35.4125 260.16562 35.4125 259.66562Q35.4125 258.99374 35.00625 258.57187Q34.615623 258.13437 33.928123 258.13437Q33.13125 258.13437 32.678123 258.60312Q32.225 259.05624 32.225 259.88437L31.146875 259.88437Q31.146875 258.69687 31.896875 257.97812Q32.6625 257.24374 33.928123 257.24374Q35.13125 257.24374 35.81875 257.86874Q36.50625 258.49374 36.50625 259.54062Q36.50625 260.79062 34.896873 262.54062L32.615623 265.00937L36.896873 265.00937L36.896873 265.9Z" fill-rule="nonzero"/><path fill="#757575" d="M26.6625 191.84827Q26.6625 193.75452 26.00625 194.69202Q25.365625 195.61389 23.975 195.61389Q22.615625 195.61389 21.959375 194.70764Q21.303125 193.80139 21.271875 191.98889L21.271875 190.55139Q21.271875 188.66077 21.9125 187.75452Q22.56875 186.83264 23.959375 186.83264Q25.334375 186.83264 25.990625 187.72327Q26.646875 188.59827 26.6625 190.44202L26.6625 191.84827ZM25.56875 190.36389Q25.56875 188.98889 25.178125 188.36389Q24.803125 187.72327 23.959375 187.72327Q23.13125 187.72327 22.740625 188.36389Q22.365625 188.98889 22.365625 190.28577L22.365625 192.02014Q22.365625 193.39514 22.75625 194.06702Q23.1625 194.72327 23.975 194.72327Q24.771875 194.72327 25.1625 194.09827Q25.553125 193.47327 25.56875 192.14514L25.56875 190.36389ZM28.44375 194.92639Q28.44375 194.64514 28.6 194.45764Q28.771875 194.27014 29.1 194.27014Q29.44375 194.27014 29.615625 194.45764Q29.7875 194.64514 29.7875 194.92639Q29.7875 195.19202 29.615625 195.37952Q29.44375 195.55139 29.1 195.55139Q28.771875 195.55139 28.6 195.37952Q28.44375 195.19202 28.44375 194.92639ZM35.88125 192.62952L37.06875 192.62952L37.06875 193.50452L35.88125 193.50452L35.88125 195.48889L34.803123 195.48889L34.803123 193.50452L30.9125 193.50452L30.9125 192.86389L34.725 186.95764L35.88125 186.95764L35.88125 192.62952ZM32.146873 192.62952L34.803123 192.62952L34.803123 188.44202L34.6625 188.67639L32.146873 192.62952Z" fill-rule="nonzero"/><path fill="#757575" d="M26.6625 121.43715Q26.6625 123.3434 26.00625 124.2809Q25.365625 125.202774 23.975 125.202774Q22.615625 125.202774 21.959375 124.296524Q21.303125 123.390274 21.271875 121.577774L21.271875 120.140274Q21.271875 118.24965 21.9125 117.3434Q22.56875 116.421524 23.959375 116.421524Q25.334375 116.421524 25.990625 117.31215Q26.646875 118.18715 26.6625 120.0309L26.6625 121.43715ZM25.56875 119.952774Q25.56875 118.577774 25.178125 117.952774Q24.803125 117.31215 23.959375 117.31215Q23.13125 117.31215 22.740625 117.952774Q22.365625 118.577774 22.365625 119.87465L22.365625 121.609024Q22.365625 122.984024 22.75625 123.6559Q23.1625 124.31215 23.975 124.31215Q24.771875 124.31215 25.1625 123.68715Q25.553125 123.06215 25.56875 121.734024L25.56875 119.952774ZM28.44375 124.515274Q28.44375 124.234024 28.6 124.046524Q28.771875 123.859024 29.1 123.859024Q29.44375 123.859024 29.615625 124.046524Q29.7875 124.234024 29.7875 124.515274Q29.7875 124.7809 29.615625 124.9684Q29.44375 125.140274 29.1 125.140274Q28.771875 125.140274 28.6 124.9684Q28.44375 124.7809 28.44375 124.515274ZM35.56875 116.546524L35.56875 117.452774L35.365623 117.452774Q34.1 117.484024 33.35 118.2184Q32.6 118.93715 32.475 120.24965Q33.1625 119.484024 34.31875 119.484024Q35.428123 119.484024 36.1 120.265274Q36.771873 121.046524 36.771873 122.296524Q36.771873 123.609024 36.053123 124.4059Q35.334373 125.202774 34.115623 125.202774Q32.896873 125.202774 32.13125 124.265274Q31.38125 123.31215 31.38125 121.827774L31.38125 121.421524Q31.38125 119.06215 32.38125 117.81215Q33.38125 116.56215 35.365623 116.546524L35.56875 116.546524ZM34.146873 120.390274Q33.584373 120.390274 33.115623 120.7184Q32.646873 121.046524 32.459373 121.56215L32.459373 121.952774Q32.459373 123.015274 32.928123 123.6559Q33.4125 124.296524 34.115623 124.296524Q34.85 124.296524 35.271873 123.765274Q35.69375 123.2184 35.69375 122.3434Q35.69375 121.4684 35.271873 120.93715Q34.85 120.390274 34.146873 120.390274Z" fill-rule="nonzero"/><path fill="#757575" d="M26.6625 51.026043Q26.6625 52.932293 26.00625 53.869793Q25.365625 54.791668 23.975 54.791668Q22.615625 54.791668 21.959375 53.885418Q21.303125 52.979168 21.271875 51.166668L21.271875 49.729168Q21.271875 47.838543 21.9125 46.932293Q22.56875 46.010418 23.959375 46.010418Q25.334375 46.010418 25.990625 46.901043Q26.646875 47.776043 26.6625 49.619793L26.6625 51.026043ZM25.56875 49.541668Q25.56875 48.166668 25.178125 47.541668Q24.803125 46.901043 23.959375 46.901043Q23.13125 46.901043 22.740625 47.541668Q22.365625 48.166668 22.365625 49.463543L22.365625 51.197918Q22.365625 52.572918 22.75625 53.244793Q23.1625 53.901043 23.975 53.901043Q24.771875 53.901043 25.1625 53.276043Q25.553125 52.651043 25.56875 51.322918L25.56875 49.541668ZM28.44375 54.104168Q28.44375 53.822918 28.6 53.635418Q28.771875 53.447918 29.1 53.447918Q29.44375 53.447918 29.615625 53.635418Q29.7875 53.822918 29.7875 54.104168Q29.7875 54.369793 29.615625 54.557293Q29.44375 54.729168 29.1 54.729168Q28.771875 54.729168 28.6 54.557293Q28.44375 54.369793 28.44375 54.104168ZM36.490623 48.354168Q36.490623 48.994793 36.146873 49.494793Q35.803123 49.994793 35.240623 50.276043Q35.896873 50.557293 36.2875 51.119793Q36.678123 51.666668 36.678123 52.369793Q36.678123 53.463543 35.928123 54.135418Q35.19375 54.791668 33.975 54.791668Q32.740623 54.791668 31.990625 54.135418Q31.25625 53.463543 31.25625 52.369793Q31.25625 51.666668 31.63125 51.119793Q32.00625 50.557293 32.678123 50.276043Q32.115623 49.994793 31.7875 49.494793Q31.459375 48.994793 31.459375 48.354168Q31.459375 47.276043 32.146873 46.651043Q32.834373 46.010418 33.975 46.010418Q35.1 46.010418 35.7875 46.651043Q36.490623 47.276043 36.490623 48.354168ZM35.6 52.338543Q35.6 51.619793 35.146873 51.182293Q34.69375 50.729168 33.959373 50.729168Q33.225 50.729168 32.771873 51.182293Q32.334373 51.619793 32.334373 52.354168Q32.334373 53.072918 32.771873 53.494793Q33.209373 53.901043 33.975 53.901043Q34.725 53.901043 35.1625 53.479168Q35.6 53.057293 35.6 52.338543ZM33.975 46.901043Q33.334373 46.901043 32.928123 47.307293Q32.5375 47.697918 32.5375 48.385418Q32.5375 49.026043 32.928123 49.432293Q33.31875 49.838543 33.959373 49.838543Q34.615623 49.838543 35.00625 49.432293Q35.396873 49.026043 35.396873 48.385418Q35.396873 47.729168 34.990623 47.322918Q34.584373 46.901043 33.975 46.901043Z" fill-rule="nonzero"/><path fill="#757575" d="M37.6625 275.75937Q37.6625 277.66562 37.00625 278.60312Q36.365623 279.525 34.975 279.525Q33.615623 279.525 32.959373 278.61874Q32.303123 277.7125 32.271873 275.9L32.271873 274.4625Q32.271873 272.57187 32.9125 271.66562Q33.56875 270.74374 34.959373 270.74374Q36.334373 270.74374 36.990623 271.63437Q37.646873 272.50937 37.6625 274.35312L37.6625 275.75937ZM36.56875 274.275Q36.56875 272.9 36.178123 272.275Q35.803123 271.63437 34.959373 271.63437Q34.13125 271.63437 33.740623 272.275Q33.365623 272.9 33.365623 274.19687L33.365623 275.93124Q33.365623 277.30624 33.75625 277.97812Q34.1625 278.63437 34.975 278.63437Q35.771873 278.63437 36.1625 278.00937Q36.553123 277.38437 36.56875 276.05624L36.56875 274.275ZM39.44375 278.8375Q39.44375 278.55624 39.6 278.36874Q39.771873 278.18124 40.1 278.18124Q40.44375 278.18124 40.615623 278.36874Q40.7875 278.55624 40.7875 278.8375Q40.7875 279.10312 40.615623 279.29062Q40.44375 279.4625 40.1 279.4625Q39.771873 279.4625 39.6 279.29062Q39.44375 279.10312 39.44375 278.8375ZM47.490623 273.0875Q47.490623 273.72812 47.146873 274.22812Q46.803123 274.72812 46.240623 275.00937Q46.896873 275.29062 47.2875 275.85312Q47.678123 276.4 47.678123 277.10312Q47.678123 278.19687 46.928123 278.86874Q46.19375 279.525 44.975 279.525Q43.740623 279.525 42.990623 278.86874Q42.25625 278.19687 42.25625 277.10312Q42.25625 276.4 42.63125 275.85312Q43.00625 275.29062 43.678123 275.00937Q43.115623 274.72812 42.7875 274.22812Q42.459373 273.72812 42.459373 273.0875Q42.459373 272.00937 43.146873 271.38437Q43.834373 270.74374 44.975 270.74374Q46.1 270.74374 46.7875 271.38437Q47.490623 272.00937 47.490623 273.0875ZM46.6 277.07187Q46.6 276.35312 46.146873 275.91562Q45.69375 275.4625 44.959373 275.4625Q44.225 275.4625 43.771873 275.91562Q43.334373 276.35312 43.334373 277.0875Q43.334373 277.80624 43.771873 278.22812Q44.209373 278.63437 44.975 278.63437Q45.725 278.63437 46.1625 278.2125Q46.6 277.79062 46.6 277.07187ZM44.975 271.63437Q44.334373 271.63437 43.928123 272.04062Q43.5375 272.43124 43.5375 273.11874Q43.5375 273.75937 43.928123 274.16562Q44.31875 274.57187 44.959373 274.57187Q45.615623 274.57187 46.00625 274.16562Q46.396873 273.75937 46.396873 273.11874Q46.396873 272.4625 45.990623 272.05624Q45.584373 271.63437 44.975 271.63437ZM49.803123 275.11874L50.240623 270.86874L54.615623 270.86874L54.615623 271.86874L51.1625 271.86874L50.896873 274.19687Q51.5375 273.82187 52.334373 273.82187Q53.490623 273.82187 54.178123 274.60312Q54.865623 275.36874 54.865623 276.68124Q54.865623 277.99374 54.146873 278.75937Q53.44375 279.525 52.1625 279.525Q51.0375 279.525 50.31875 278.9Q49.6 278.25937 49.50625 277.15L50.521873 277.15Q50.63125 277.88437 51.053123 278.25937Q51.475 278.63437 52.1625 278.63437Q52.9125 278.63437 53.35 278.11874Q53.7875 277.60312 53.7875 276.69687Q53.7875 275.8375 53.31875 275.32187Q52.85 274.80624 52.06875 274.80624Q51.365623 274.80624 50.959373 275.10312L50.678123 275.3375L49.803123 275.11874Z" fill-rule="nonzero"/><path fill="#757575" d="M260.42917 275.75937Q260.42917 277.66562 259.77292 278.60312Q259.1323 279.525 257.74167 279.525Q256.3823 279.525 255.72604 278.61874Q255.0698 277.7125 255.03854 275.9L255.03854 274.4625Q255.03854 272.57187 255.67917 271.66562Q256.33542 270.74374 257.72604 270.74374Q259.10104 270.74374 259.7573 271.63437Q260.41354 272.50937 260.42917 274.35312L260.42917 275.75937ZM259.33542 274.275Q259.33542 272.9 258.9448 272.275Q258.5698 271.63437 257.72604 271.63437Q256.89792 271.63437 256.5073 272.275Q256.1323 272.9 256.1323 274.19687L256.1323 275.93124Q256.1323 277.30624 256.52292 277.97812Q256.92917 278.63437 257.74167 278.63437Q258.53854 278.63437 258.92917 278.00937Q259.3198 277.38437 259.33542 276.05624L259.33542 274.275ZM262.21042 278.8375Q262.21042 278.55624 262.36667 278.36874Q262.53854 278.18124 262.86667 278.18124Q263.21042 278.18124 263.3823 278.36874Q263.55417 278.55624 263.55417 278.8375Q263.55417 279.10312 263.3823 279.29062Q263.21042 279.4625 262.86667 279.4625Q262.53854 279.4625 262.36667 279.29062Q262.21042 279.10312 262.21042 278.8375ZM269.22604 275.65Q268.89792 276.05624 268.41354 276.30624Q267.9448 276.54062 267.3823 276.54062Q266.64792 276.54062 266.10104 276.18124Q265.55417 275.82187 265.2573 275.16562Q264.96042 274.49374 264.96042 273.69687Q264.96042 272.85312 265.27292 272.16562Q265.60104 271.47812 266.1948 271.11874Q266.80417 270.74374 267.60104 270.74374Q268.86667 270.74374 269.58542 271.69687Q270.3198 272.65 270.3198 274.275L270.3198 274.5875Q270.3198 277.0875 269.33542 278.22812Q268.35104 279.36874 266.36667 279.4L266.14792 279.4L266.14792 278.49374L266.3823 278.49374Q267.72604 278.4625 268.4448 277.79062Q269.16354 277.11874 269.22604 275.65ZM267.55417 275.65Q268.10104 275.65 268.55417 275.32187Q269.02292 274.97812 269.24167 274.49374L269.24167 274.05624Q269.24167 272.99374 268.77292 272.32187Q268.30417 271.65 267.60104 271.65Q266.8823 271.65 266.4448 272.19687Q266.02292 272.74374 266.02292 273.65Q266.02292 274.525 266.42917 275.0875Q266.85104 275.65 267.55417 275.65Z" fill-rule="nonzero"/><path fill="#757575" d="M476.19583 275.75937Q476.19583 277.66562 475.53958 278.60312Q474.89896 279.525 473.50833 279.525Q472.14896 279.525 471.4927 278.61874Q470.83646 277.7125 470.8052 275.9L470.8052 274.4625Q470.8052 272.57187 471.44583 271.66562Q472.10208 270.74374 473.4927 270.74374Q474.8677 270.74374 475.52396 271.63437Q476.1802 272.50937 476.19583 274.35312L476.19583 275.75937ZM475.10208 274.275Q475.10208 272.9 474.71146 272.275Q474.33646 271.63437 473.4927 271.63437Q472.66458 271.63437 472.27396 272.275Q471.89896 272.9 471.89896 274.19687L471.89896 275.93124Q471.89896 277.30624 472.28958 277.97812Q472.69583 278.63437 473.50833 278.63437Q474.3052 278.63437 474.69583 278.00937Q475.08646 277.38437 475.10208 276.05624L475.10208 274.275ZM477.97708 278.8375Q477.97708 278.55624 478.13333 278.36874Q478.3052 278.18124 478.63333 278.18124Q478.97708 278.18124 479.14896 278.36874Q479.32083 278.55624 479.32083 278.8375Q479.32083 279.10312 479.14896 279.29062Q478.97708 279.4625 478.63333 279.4625Q478.3052 279.4625 478.13333 279.29062Q477.97708 279.10312 477.97708 278.8375ZM484.9927 275.65Q484.66458 276.05624 484.1802 276.30624Q483.71146 276.54062 483.14896 276.54062Q482.41458 276.54062 481.8677 276.18124Q481.32083 275.82187 481.02396 275.16562Q480.72708 274.49374 480.72708 273.69687Q480.72708 272.85312 481.03958 272.16562Q481.3677 271.47812 481.96146 271.11874Q482.57083 270.74374 483.3677 270.74374Q484.63333 270.74374 485.35208 271.69687Q486.08646 272.65 486.08646 274.275L486.08646 274.5875Q486.08646 277.0875 485.10208 278.22812Q484.1177 279.36874 482.13333 279.4L481.91458 279.4L481.91458 278.49374L482.14896 278.49374Q483.4927 278.4625 484.21146 277.79062Q484.9302 277.11874 484.9927 275.65ZM483.32083 275.65Q483.8677 275.65 484.32083 275.32187Q484.78958 274.97812 485.00833 274.49374L485.00833 274.05624Q485.00833 272.99374 484.53958 272.32187Q484.07083 271.65 483.3677 271.65Q482.64896 271.65 482.21146 272.19687Q481.78958 272.74374 481.78958 273.65Q481.78958 274.525 482.19583 275.0875Q482.6177 275.65 483.32083 275.65ZM488.33646 275.11874L488.77396 270.86874L493.14896 270.86874L493.14896 271.86874L489.69583 271.86874L489.4302 274.19687Q490.07083 273.82187 490.8677 273.82187Q492.02396 273.82187 492.71146 274.60312Q493.39896 275.36874 493.39896 276.68124Q493.39896 277.99374 492.6802 278.75937Q491.97708 279.525 490.69583 279.525Q489.57083 279.525 488.85208 278.9Q488.13333 278.25937 488.03958 277.15L489.0552 277.15Q489.16458 277.88437 489.58646 278.25937Q490.00833 278.63437 490.69583 278.63437Q491.44583 278.63437 491.88333 278.11874Q492.32083 277.60312 492.32083 276.69687Q492.32083 275.8375 491.85208 275.32187Q491.38333 274.80624 490.60208 274.80624Q489.89896 274.80624 489.4927 275.10312L489.21146 275.3375L488.33646 275.11874Z" fill-rule="nonzero"/><path fill="#757575" d="M702.16565 279.4L701.0875 279.4L701.0875 272.18124L698.9 272.97812L698.9 271.99374L702.0094 270.82187L702.16565 270.82187L702.16565 279.4Z" fill-rule="nonzero"/><path stroke="#4285f4" stroke-width="4.0" stroke-linecap="butt" d="M218.0 24.1L230.0 24.1" fill-rule="nonzero"/><path fill="#757575" d="M240.20312 28.6L239.07812 28.6L239.07812 20.06875L240.20312 20.06875L240.20312 28.6ZM242.84375 22.25625L242.875 23.053125Q243.60938 22.146875 244.78125 22.146875Q246.79688 22.146875 246.8125 24.4125L246.8125 28.6L245.71875 28.6L245.71875 24.396875Q245.71875 23.725 245.40625 23.396875Q245.10938 23.06875 244.45312 23.06875Q243.92188 23.06875 243.51562 23.35Q243.125 23.63125 242.90625 24.084375L242.90625 28.6L241.82812 28.6L241.82812 22.25625L242.84375 22.25625ZM251.35938 27.834375Q251.9375 27.834375 252.375 27.490625Q252.8125 27.13125 252.85938 26.6L253.89062 26.6Q253.85938 27.146875 253.5 27.646875Q253.15625 28.13125 252.57812 28.428125Q252.01562 28.725 251.35938 28.725Q250.0625 28.725 249.29688 27.865625Q248.54688 26.990625 248.54688 25.490625L248.54688 25.303125Q248.54688 24.38125 248.875 23.6625Q249.21875 22.94375 249.84375 22.553125Q250.48438 22.146875 251.35938 22.146875Q252.42188 22.146875 253.125 22.7875Q253.84375 23.4125 253.89062 24.44375L252.85938 24.44375Q252.8125 23.81875 252.39062 23.428125Q251.96875 23.0375 251.35938 23.0375Q250.53125 23.0375 250.07812 23.63125Q249.625 24.225 249.625 25.35L249.625 25.553125Q249.625 26.646875 250.07812 27.240625Q250.53125 27.834375 251.35938 27.834375ZM254.53125 25.365625Q254.53125 24.44375 254.89062 23.69375Q255.26562 22.94375 255.92188 22.553125Q256.57812 22.146875 257.40625 22.146875Q258.70312 22.146875 259.5 23.0375Q260.3125 23.928125 260.3125 25.428125L260.3125 25.50625Q260.3125 26.428125 259.95312 27.1625Q259.59375 27.896875 258.9375 28.31875Q258.28125 28.725 257.42188 28.725Q256.14062 28.725 255.32812 27.834375Q254.53125 26.928125 254.53125 25.44375L254.53125 25.365625ZM255.625 25.50625Q255.625 26.553125 256.10938 27.19375Q256.60938 27.834375 257.42188 27.834375Q258.25 27.834375 258.73438 27.19375Q259.21875 26.5375 259.21875 25.365625Q259.21875 24.334375 258.71875 23.69375Q258.23438 23.0375 257.40625 23.0375Q256.60938 23.0375 256.10938 23.678125Q255.625 24.303125 255.625 25.50625ZM262.84375 22.25625L262.875 23.053125Q263.60938 22.146875 264.78125 22.146875Q266.79688 22.146875 266.8125 24.4125L266.8125 28.6L265.71875 28.6L265.71875 24.396875Q265.71875 23.725 265.40625 23.396875Q265.10938 23.06875 264.45312 23.06875Q263.92188 23.06875 263.51562 23.35Q263.125 23.63125 262.90625 24.084375L262.90625 28.6L261.82812 28.6L261.82812 22.25625L262.84375 22.25625ZM272.51562 26.9125Q272.51562 26.475 272.17188 26.240625Q271.84375 25.990625 271.01562 25.81875Q270.20312 25.646875 269.71875 25.396875Q269.23438 25.146875 269.0 24.81875Q268.78125 24.475 268.78125 24.00625Q268.78125 23.225 269.4375 22.69375Q270.09375 22.146875 271.125 22.146875Q272.20312 22.146875 272.85938 22.709375Q273.53125 23.25625 273.53125 24.115625L272.45312 24.115625Q272.45312 23.678125 272.0625 23.365625Q271.6875 23.0375 271.125 23.0375Q270.53125 23.0375 270.1875 23.303125Q269.85938 23.553125 269.85938 23.959375Q269.85938 24.35 270.17188 24.553125Q270.48438 24.75625 271.29688 24.94375Q272.10938 25.115625 272.60938 25.365625Q273.10938 25.615625 273.34375 25.975Q273.59375 26.334375 273.59375 26.834375Q273.59375 27.69375 272.90625 28.209375Q272.23438 28.725 271.15625 28.725Q270.39062 28.725 269.79688 28.459375Q269.21875 28.178125 268.89062 27.69375Q268.5625 27.209375 268.5625 26.646875L269.64062 26.646875Q269.67188 27.19375 270.07812 27.521875Q270.48438 27.834375 271.15625 27.834375Q271.76562 27.834375 272.14062 27.584375Q272.51562 27.334375 272.51562 26.9125ZM276.0 28.6L274.92188 28.6L274.92188 22.25625L276.0 22.25625L276.0 28.6ZM274.82812 20.584375Q274.82812 20.31875 274.98438 20.13125Q275.15625 19.94375 275.46875 19.94375Q275.78125 19.94375 275.9375 20.13125Q276.10938 20.31875 276.10938 20.584375Q276.10938 20.834375 275.9375 21.021875Q275.78125 21.19375 275.46875 21.19375Q275.15625 21.19375 274.98438 21.021875Q274.82812 20.834375 274.82812 20.584375ZM281.51562 26.9125Q281.51562 26.475 281.17188 26.240625Q280.84375 25.990625 280.01562 25.81875Q279.20312 25.646875 278.71875 25.396875Q278.23438 25.146875 278.0 24.81875Q277.78125 24.475 277.78125 24.00625Q277.78125 23.225 278.4375 22.69375Q279.09375 22.146875 280.125 22.146875Q281.20312 22.146875 281.85938 22.709375Q282.53125 23.25625 282.53125 24.115625L281.45312 24.115625Q281.45312 23.678125 281.0625 23.365625Q280.6875 23.0375 280.125 23.0375Q279.53125 23.0375 279.1875 23.303125Q278.85938 23.553125 278.85938 23.959375Q278.85938 24.35 279.17188 24.553125Q279.48438 24.75625 280.29688 24.94375Q281.10938 25.115625 281.60938 25.365625Q282.10938 25.615625 282.34375 25.975Q282.59375 26.334375 282.59375 26.834375Q282.59375 27.69375 281.90625 28.209375Q281.23438 28.725 280.15625 28.725Q279.39062 28.725 278.79688 28.459375Q278.21875 28.178125 277.89062 27.69375Q277.5625 27.209375 277.5625 26.646875L278.64062 26.646875Q278.67188 27.19375 279.07812 27.521875Q279.48438 27.834375 280.15625 27.834375Q280.76562 27.834375 281.14062 27.584375Q281.51562 27.334375 281.51562 26.9125ZM285.29688 20.725L285.29688 22.25625L286.46875 22.25625L286.46875 23.1L285.29688 23.1L285.29688 27.021875Q285.29688 27.4125 285.45312 27.6Q285.60938 27.7875 285.98438 27.7875Q286.17188 27.7875 286.5 27.725L286.5 28.6Q286.07812 28.725 285.67188 28.725Q284.95312 28.725 284.57812 28.2875Q284.20312 27.834375 284.20312 27.021875L284.20312 23.1L283.04688 23.1L283.04688 22.25625L284.20312 22.25625L284.20312 20.725L285.29688 20.725ZM290.45312 28.725Q289.15625 28.725 288.34375 27.88125Q287.54688 27.021875 287.54688 25.6L287.54688 25.4125Q287.54688 24.459375 287.90625 23.725Q288.26562 22.975 288.90625 22.56875Q289.5625 22.146875 290.3125 22.146875Q291.54688 22.146875 292.23438 22.959375Q292.92188 23.771875 292.92188 25.2875L292.92188 25.740625L288.625 25.740625Q288.65625 26.678125 289.17188 27.25625Q289.70312 27.834375 290.51562 27.834375Q291.07812 27.834375 291.46875 27.6Q291.875 27.365625 292.1875 26.975L292.84375 27.490625Q292.04688 28.725 290.45312 28.725ZM290.3125 23.0375Q289.65625 23.0375 289.20312 23.521875Q288.76562 23.990625 288.67188 24.85L291.84375 24.85L291.84375 24.771875Q291.79688 23.94375 291.39062 23.490625Q291.0 23.0375 290.3125 23.0375ZM294.84375 22.25625L294.875 23.053125Q295.60938 22.146875 296.78125 22.146875Q298.79688 22.146875 298.8125 24.4125L298.8125 28.6L297.71875 28.6L297.71875 24.396875Q297.71875 23.725 297.40625 23.396875Q297.10938 23.06875 296.45312 23.06875Q295.92188 23.06875 295.51562 23.35Q295.125 23.63125 294.90625 24.084375L294.90625 28.6L293.82812 28.6L293.82812 22.25625L294.84375 22.25625ZM303.35938 27.834375Q303.9375 27.834375 304.375 27.490625Q304.8125 27.13125 304.85938 26.6L305.89062 26.6Q305.85938 27.146875 305.5 27.646875Q305.15625 28.13125 304.57812 28.428125Q304.01562 28.725 303.35938 28.725Q302.0625 28.725 301.29688 27.865625Q300.54688 26.990625 300.54688 25.490625L300.54688 25.303125Q300.54688 24.38125 300.875 23.6625Q301.21875 22.94375 301.84375 22.553125Q302.48438 22.146875 303.35938 22.146875Q304.42188 22.146875 305.125 22.7875Q305.84375 23.4125 305.89062 24.44375L304.85938 24.44375Q304.8125 23.81875 304.39062 23.428125Q303.96875 23.0375 303.35938 23.0375Q302.53125 23.0375 302.07812 23.63125Q301.625 24.225 301.625 25.35L301.625 25.553125Q301.625 26.646875 302.07812 27.240625Q302.53125 27.834375 303.35938 27.834375ZM308.89062 27.00625L310.375 22.25625L311.53125 22.25625L308.98438 29.584375Q308.39062 31.1625 307.10938 31.1625L306.89062 31.146875L306.5 31.06875L306.5 30.19375L306.78125 30.209375Q307.34375 30.209375 307.64062 29.990625Q307.95312 29.771875 308.15625 29.178125L308.39062 28.521875L306.125 22.25625L307.3125 22.25625L308.89062 27.00625Z" fill-rule="nonzero"/><path stroke="#db4437" stroke-width="4.0" stroke-linecap="butt" d="M328.0 24.1L340.0 24.1" fill-rule="nonzero"/><path fill="#757575" d="M355.26562 25.896875Q355.10938 27.240625 354.26562 27.990625Q353.42188 28.725 352.03125 28.725Q350.51562 28.725 349.60938 27.646875Q348.70312 26.553125 348.70312 24.725L348.70312 23.9125Q348.70312 22.725 349.125 21.81875Q349.54688 20.9125 350.32812 20.428125Q351.10938 19.94375 352.125 19.94375Q353.48438 19.94375 354.29688 20.709375Q355.125 21.475 355.26562 22.803125L354.14062 22.803125Q353.98438 21.7875 353.5 21.334375Q353.01562 20.88125 352.125 20.88125Q351.04688 20.88125 350.4375 21.678125Q349.82812 22.475 349.82812 23.94375L349.82812 24.771875Q349.82812 26.1625 350.40625 26.990625Q350.98438 27.803125 352.03125 27.803125Q352.96875 27.803125 353.46875 27.38125Q353.96875 26.94375 354.14062 25.896875L355.26562 25.896875ZM356.53125 25.365625Q356.53125 24.44375 356.89062 23.69375Q357.26562 22.94375 357.92188 22.553125Q358.57812 22.146875 359.40625 22.146875Q360.70312 22.146875 361.5 23.0375Q362.3125 23.928125 362.3125 25.428125L362.3125 25.50625Q362.3125 26.428125 361.95312 27.1625Q361.59375 27.896875 360.9375 28.31875Q360.28125 28.725 359.42188 28.725Q358.14062 28.725 357.32812 27.834375Q356.53125 26.928125 356.53125 25.44375L356.53125 25.365625ZM357.625 25.50625Q357.625 26.553125 358.10938 27.19375Q358.60938 27.834375 359.42188 27.834375Q360.25 27.834375 360.73438 27.19375Q361.21875 26.5375 361.21875 25.365625Q361.21875 24.334375 360.71875 23.69375Q360.23438 23.0375 359.40625 23.0375Q358.60938 23.0375 358.10938 23.678125Q357.625 24.303125 357.625 25.50625ZM364.84375 22.25625L364.875 23.053125Q365.60938 22.146875 366.78125 22.146875Q368.79688 22.146875 368.8125 24.4125L368.8125 28.6L367.71875 28.6L367.71875 24.396875Q367.71875 23.725 367.40625 23.396875Q367.10938 23.06875 366.45312 23.06875Q365.92188 23.06875 365.51562 23.35Q365.125 23.63125 364.90625 24.084375L364.90625 28.6L363.82812 28.6L363.82812 22.25625L364.84375 22.25625ZM374.51562 26.9125Q374.51562 26.475 374.17188 26.240625Q373.84375 25.990625 373.01562 25.81875Q372.20312 25.646875 371.71875 25.396875Q371.23438 25.146875 371.0 24.81875Q370.78125 24.475 370.78125 24.00625Q370.78125 23.225 371.4375 22.69375Q372.09375 22.146875 373.125 22.146875Q374.20312 22.146875 374.85938 22.709375Q375.53125 23.25625 375.53125 24.115625L374.45312 24.115625Q374.45312 23.678125 374.0625 23.365625Q373.6875 23.0375 373.125 23.0375Q372.53125 23.0375 372.1875 23.303125Q371.85938 23.553125 371.85938 23.959375Q371.85938 24.35 372.17188 24.553125Q372.48438 24.75625 373.29688 24.94375Q374.10938 25.115625 374.60938 25.365625Q375.10938 25.615625 375.34375 25.975Q375.59375 26.334375 375.59375 26.834375Q375.59375 27.69375 374.90625 28.209375Q374.23438 28.725 373.15625 28.725Q372.39062 28.725 371.79688 28.459375Q371.21875 28.178125 370.89062 27.69375Q370.5625 27.209375 370.5625 26.646875L371.64062 26.646875Q371.67188 27.19375 372.07812 27.521875Q372.48438 27.834375 373.15625 27.834375Q373.76562 27.834375 374.14062 27.584375Q374.51562 27.334375 374.51562 26.9125ZM378.0 28.6L376.92188 28.6L376.92188 22.25625L378.0 22.25625L378.0 28.6ZM376.82812 20.584375Q376.82812 20.31875 376.98438 20.13125Q377.15625 19.94375 377.46875 19.94375Q377.78125 19.94375 377.9375 20.13125Q378.10938 20.31875 378.10938 20.584375Q378.10938 20.834375 377.9375 21.021875Q377.78125 21.19375 377.46875 21.19375Q377.15625 21.19375 376.98438 21.021875Q376.82812 20.834375 376.82812 20.584375ZM383.51562 26.9125Q383.51562 26.475 383.17188 26.240625Q382.84375 25.990625 382.01562 25.81875Q381.20312 25.646875 380.71875 25.396875Q380.23438 25.146875 380.0 24.81875Q379.78125 24.475 379.78125 24.00625Q379.78125 23.225 380.4375 22.69375Q381.09375 22.146875 382.125 22.146875Q383.20312 22.146875 383.85938 22.709375Q384.53125 23.25625 384.53125 24.115625L383.45312 24.115625Q383.45312 23.678125 383.0625 23.365625Q382.6875 23.0375 382.125 23.0375Q381.53125 23.0375 381.1875 23.303125Q380.85938 23.553125 380.85938 23.959375Q380.85938 24.35 381.17188 24.553125Q381.48438 24.75625 382.29688 24.94375Q383.10938 25.115625 383.60938 25.365625Q384.10938 25.615625 384.34375 25.975Q384.59375 26.334375 384.59375 26.834375Q384.59375 27.69375 383.90625 28.209375Q383.23438 28.725 382.15625 28.725Q381.39062 28.725 380.79688 28.459375Q380.21875 28.178125 379.89062 27.69375Q379.5625 27.209375 379.5625 26.646875L380.64062 26.646875Q380.67188 27.19375 381.07812 27.521875Q381.48438 27.834375 382.15625 27.834375Q382.76562 27.834375 383.14062 27.584375Q383.51562 27.334375 383.51562 26.9125ZM387.29688 20.725L387.29688 22.25625L388.46875 22.25625L388.46875 23.1L387.29688 23.1L387.29688 27.021875Q387.29688 27.4125 387.45312 27.6Q387.60938 27.7875 387.98438 27.7875Q388.17188 27.7875 388.5 27.725L388.5 28.6Q388.07812 28.725 387.67188 28.725Q386.95312 28.725 386.57812 28.2875Q386.20312 27.834375 386.20312 27.021875L386.20312 23.1L385.04688 23.1L385.04688 22.25625L386.20312 22.25625L386.20312 20.725L387.29688 20.725ZM392.45312 28.725Q391.15625 28.725 390.34375 27.88125Q389.54688 27.021875 389.54688 25.6L389.54688 25.4125Q389.54688 24.459375 389.90625 23.725Q390.26562 22.975 390.90625 22.56875Q391.5625 22.146875 392.3125 22.146875Q393.54688 22.146875 394.23438 22.959375Q394.92188 23.771875 394.92188 25.2875L394.92188 25.740625L390.625 25.740625Q390.65625 26.678125 391.17188 27.25625Q391.70312 27.834375 392.51562 27.834375Q393.07812 27.834375 393.46875 27.6Q393.875 27.365625 394.1875 26.975L394.84375 27.490625Q394.04688 28.725 392.45312 28.725ZM392.3125 23.0375Q391.65625 23.0375 391.20312 23.521875Q390.76562 23.990625 390.67188 24.85L393.84375 24.85L393.84375 24.771875Q393.79688 23.94375 393.39062 23.490625Q393.0 23.0375 392.3125 23.0375ZM396.84375 22.25625L396.875 23.053125Q397.60938 22.146875 398.78125 22.146875Q400.79688 22.146875 400.8125 24.4125L400.8125 28.6L399.71875 28.6L399.71875 24.396875Q399.71875 23.725 399.40625 23.396875Q399.10938 23.06875 398.45312 23.06875Q397.92188 23.06875 397.51562 23.35Q397.125 23.63125 396.90625 24.084375L396.90625 28.6L395.82812 28.6L395.82812 22.25625L396.84375 22.25625ZM405.35938 27.834375Q405.9375 27.834375 406.375 27.490625Q406.8125 27.13125 406.85938 26.6L407.89062 26.6Q407.85938 27.146875 407.5 27.646875Q407.15625 28.13125 406.57812 28.428125Q406.01562 28.725 405.35938 28.725Q404.0625 28.725 403.29688 27.865625Q402.54688 26.990625 402.54688 25.490625L402.54688 25.303125Q402.54688 24.38125 402.875 23.6625Q403.21875 22.94375 403.84375 22.553125Q404.48438 22.146875 405.35938 22.146875Q406.42188 22.146875 407.125 22.7875Q407.84375 23.4125 407.89062 24.44375L406.85938 24.44375Q406.8125 23.81875 406.39062 23.428125Q405.96875 23.0375 405.35938 23.0375Q404.53125 23.0375 404.07812 23.63125Q403.625 24.225 403.625 25.35L403.625 25.553125Q403.625 26.646875 404.07812 27.240625Q404.53125 27.834375 405.35938 27.834375ZM410.89062 27.00625L412.375 22.25625L413.53125 22.25625L410.98438 29.584375Q410.39062 31.1625 409.10938 31.1625L408.89062 31.146875L408.5 31.06875L408.5 30.19375L408.78125 30.209375Q409.34375 30.209375 409.64062 29.990625Q409.95312 29.771875 410.15625 29.178125L410.39062 28.521875L408.125 22.25625L409.3125 22.25625L410.89062 27.00625Z" fill-rule="nonzero"/><path stroke="#f4b400" stroke-width="4.0" stroke-linecap="butt" d="M430.0 24.1L442.0 24.1" fill-rule="nonzero"/><path fill="#757575" d="M455.70312 26.365625L452.125 26.365625L451.32812 28.6L450.17188 28.6L453.42188 20.06875L454.40625 20.06875L457.67188 28.6L456.51562 28.6L455.70312 26.365625ZM452.46875 25.44375L455.375 25.44375L453.92188 21.459375L452.46875 25.44375ZM461.35938 27.834375Q461.9375 27.834375 462.375 27.490625Q462.8125 27.13125 462.85938 26.6L463.89062 26.6Q463.85938 27.146875 463.5 27.646875Q463.15625 28.13125 462.57812 28.428125Q462.01562 28.725 461.35938 28.725Q460.0625 28.725 459.29688 27.865625Q458.54688 26.990625 458.54688 25.490625L458.54688 25.303125Q458.54688 24.38125 458.875 23.6625Q459.21875 22.94375 459.84375 22.553125Q460.48438 22.146875 461.35938 22.146875Q462.42188 22.146875 463.125 22.7875Q463.84375 23.4125 463.89062 24.44375L462.85938 24.44375Q462.8125 23.81875 462.39062 23.428125Q461.96875 23.0375 461.35938 23.0375Q460.53125 23.0375 460.07812 23.63125Q459.625 24.225 459.625 25.35L459.625 25.553125Q459.625 26.646875 460.07812 27.240625Q460.53125 27.834375 461.35938 27.834375ZM467.35938 27.834375Q467.9375 27.834375 468.375 27.490625Q468.8125 27.13125 468.85938 26.6L469.89062 26.6Q469.85938 27.146875 469.5 27.646875Q469.15625 28.13125 468.57812 28.428125Q468.01562 28.725 467.35938 28.725Q466.0625 28.725 465.29688 27.865625Q464.54688 26.990625 464.54688 25.490625L464.54688 25.303125Q464.54688 24.38125 464.875 23.6625Q465.21875 22.94375 465.84375 22.553125Q466.48438 22.146875 467.35938 22.146875Q468.42188 22.146875 469.125 22.7875Q469.84375 23.4125 469.89062 24.44375L468.85938 24.44375Q468.8125 23.81875 468.39062 23.428125Q467.96875 23.0375 467.35938 23.0375Q466.53125 23.0375 466.07812 23.63125Q465.625 24.225 465.625 25.35L465.625 25.553125Q465.625 26.646875 466.07812 27.240625Q466.53125 27.834375 467.35938 27.834375ZM474.73438 27.975Q474.10938 28.725 472.875 28.725Q471.85938 28.725 471.32812 28.13125Q470.79688 27.5375 470.79688 26.38125L470.79688 22.25625L471.875 22.25625L471.875 26.35Q471.875 27.803125 473.04688 27.803125Q474.29688 27.803125 474.70312 26.865625L474.70312 22.25625L475.79688 22.25625L475.79688 28.6L474.76562 28.6L474.73438 27.975ZM480.89062 23.225Q480.64062 23.19375 480.35938 23.19375Q479.28125 23.19375 478.90625 24.1L478.90625 28.6L477.82812 28.6L477.82812 22.25625L478.875 22.25625L478.89062 22.990625Q479.42188 22.146875 480.40625 22.146875Q480.71875 22.146875 480.89062 22.225L480.89062 23.225ZM485.73438 28.6Q485.64062 28.4125 485.57812 27.928125Q484.82812 28.725 483.78125 28.725Q482.84375 28.725 482.23438 28.19375Q481.64062 27.6625 481.64062 26.834375Q481.64062 25.85 482.39062 25.303125Q483.14062 24.75625 484.51562 24.75625L485.5625 24.75625L485.5625 24.25625Q485.5625 23.69375 485.21875 23.365625Q484.89062 23.021875 484.21875 23.021875Q483.64062 23.021875 483.25 23.31875Q482.85938 23.6 482.85938 24.021875L481.76562 24.021875Q481.76562 23.5375 482.09375 23.1Q482.4375 22.6625 483.01562 22.4125Q483.59375 22.146875 484.28125 22.146875Q485.39062 22.146875 486.0 22.69375Q486.625 23.240625 486.65625 24.19375L486.65625 27.115625Q486.65625 27.990625 486.875 28.50625L486.875 28.6L485.73438 28.6ZM483.9375 27.771875Q484.45312 27.771875 484.90625 27.50625Q485.35938 27.240625 485.5625 26.81875L485.5625 25.521875L484.71875 25.521875Q482.71875 25.521875 482.71875 26.69375Q482.71875 27.19375 483.0625 27.490625Q483.40625 27.771875 483.9375 27.771875ZM491.35938 27.834375Q491.9375 27.834375 492.375 27.490625Q492.8125 27.13125 492.85938 26.6L493.89062 26.6Q493.85938 27.146875 493.5 27.646875Q493.15625 28.13125 492.57812 28.428125Q492.01562 28.725 491.35938 28.725Q490.0625 28.725 489.29688 27.865625Q488.54688 26.990625 488.54688 25.490625L488.54688 25.303125Q488.54688 24.38125 488.875 23.6625Q489.21875 22.94375 489.84375 22.553125Q490.48438 22.146875 491.35938 22.146875Q492.42188 22.146875 493.125 22.7875Q493.84375 23.4125 493.89062 24.44375L492.85938 24.44375Q492.8125 23.81875 492.39062 23.428125Q491.96875 23.0375 491.35938 23.0375Q490.53125 23.0375 490.07812 23.63125Q489.625 24.225 489.625 25.35L489.625 25.553125Q489.625 26.646875 490.07812 27.240625Q490.53125 27.834375 491.35938 27.834375ZM496.89062 27.00625L498.375 22.25625L499.53125 22.25625L496.98438 29.584375Q496.39062 31.1625 495.10938 31.1625L494.89062 31.146875L494.5 31.06875L494.5 30.19375L494.78125 30.209375Q495.34375 30.209375 495.64062 29.990625Q495.95312 29.771875 496.15625 29.178125L496.39062 28.521875L494.125 22.25625L495.3125 22.25625L496.89062 27.00625Z" fill-rule="nonzero"/></svg>