<svg version="1.1" viewBox="0.0 0.0 600.0 371.0" fill="none" stroke="none" stroke-linecap="square" stroke-miterlimit="10" width="600" height="371" xmlns:xlink="http://www.w3.org/1999/xlink" xmlns="http://www.w3.org/2000/svg"><path fill="#ffffff" d="M0 0L600.0 0L600.0 371.0L0 371.0L0 0Z" fill-rule="nonzero"/><path fill="#ffffff" d="M0 0L600.0 0L600.0 371.0L0 371.0L0 0Z" fill-rule="nonzero"/><path stroke="#333333" stroke-width="1.0" stroke-linecap="butt" d="M71.5 331.5L581.5 331.5" fill-rule="nonzero"/><path stroke="#cccccc" stroke-width="1.0" stroke-linecap="butt" d="M71.5 255.5L581.5 255.5" fill-rule="nonzero"/><path stroke="#cccccc" stroke-width="1.0" stroke-linecap="butt" d="M71.5 178.5L581.5 178.5" fill-rule="nonzero"/><path stroke="#cccccc" stroke-width="1.0" stroke-linecap="butt" d="M71.5 102.5L581.5 102.5" fill-rule="nonzero"/><path stroke="#cccccc" stroke-width="1.0" stroke-linecap="butt" d="M71.5 26.5L581.5 26.5" fill-rule="nonzero"/><clipPath id="id_0"><path d="M71.55 26.05L581.45 26.05L581.45 331.45L71.55 331.45L71.55 26.05Z" clip-rule="nonzero"/></clipPath><path stroke="#000000" stroke-width="0.0" stroke-linecap="butt" stroke-opacity="0.0" clip-path="url(#id_0)" d="M189.0 331.0L113.0 331.0L113.0 81.0C113.0 79.89543 113.89543 79.0 115.0 79.0L187.0 79.0C188.10457 79.0 189.0 79.89543 189.0 81.0Z" fill-rule="nonzero"/><path fill="#4285f4" clip-path="url(#id_0)" d="M189.0 331.0L113.0 331.0L113.0 81.0C113.0 79.89543 113.89543 79.0 115.0 79.0L187.0 79.0C188.10457 79.0 189.0 79.89543 189.0 81.0Z" fill-rule="nonzero"/><path stroke="#000000" stroke-width="0.0" stroke-linecap="butt" stroke-opacity="0.0" clip-path="url(#id_0)" d="M306.0 331.0L230.0 331.0L230.0 96.0C230.0 94.89543 230.89543 94.0 232.0 94.0L304.0 94.0C305.10458 94.0 306.0 94.89543 306.0 96.0Z" fill-rule="nonzero"/><path fill="#4285f4" clip-path="url(#id_0)" d="M306.0 331.0L230.0 331.0L230.0 96.0C230.0 94.89543 230.89543 94.0 232.0 94.0L304.0 94.0C305.10458 94.0 306.0 94.89543 306.0 96.0Z" fill-rule="nonzero"/><path stroke="#000000" stroke-width="0.0" stroke-linecap="butt" stroke-opacity="0.0" clip-path="url(#id_0)" d="M423.0 331.0L347.0 331.0L347.0 156.0C347.0 154.89543 347.89542 154.0 349.0 154.0L421.0 154.0C422.10458 154.0 423.0 154.89543 423.0 156.0Z" fill-rule="nonzero"/><path fill="#4285f4" clip-path="url(#id_0)" d="M423.0 331.0L347.0 331.0L347.0 156.0C347.0 154.89543 347.89542 154.0 349.0 154.0L421.0 154.0C422.10458 154.0 423.0 154.89543 423.0 156.0Z" fill-rule="nonzero"/><path stroke="#000000" stroke-width="0.0" stroke-linecap="butt" stroke-opacity="0.0" clip-path="url(#id_0)" d="M540.0 331.0L464.0 331.0L464.0 225.0C464.0 223.89543 464.89542 223.0 466.0 223.0L538.0 223.0C539.10455 223.0 540.0 223.89543 540.0 225.0Z" fill-rule="nonzero"/><path fill="#4285f4" clip-path="url(#id_0)" d="M540.0 331.0L464.0 331.0L464.0 225.0C464.0 223.89543 464.89542 223.0 466.0 223.0L538.0 223.0C539.10455 223.0 540.0 223.89543 540.0 225.0Z" fill-rule="nonzero"/><path fill="#757575" d="M38.6125 332.3094Q38.6125 334.21564 37.95625 335.15314Q37.315624 336.075 35.925 336.075Q34.565624 336.075 33.909374 335.16876Q33.253124 334.2625 33.221874 332.45L33.221874 331.0125Q33.221874 329.1219 33.8625 328.21564Q34.51875 327.29376 35.909374 327.29376Q37.284374 327.29376 37.940624 328.1844Q38.596874 329.0594 38.6125 330.90314L38.6125 332.3094ZM37.51875 330.825Q37.51875 329.45 37.128124 328.825Q36.753124 328.1844 35.909374 328.1844Q35.08125 328.1844 34.690624 328.825Q34.315624 329.45 34.315624 330.7469L34.315624 332.48126Q34.315624 333.85626 34.70625 334.52814Q35.1125 335.1844 35.925 335.1844Q36.721874 335.1844 37.1125 334.5594Q37.503124 333.9344 37.51875 332.60626L37.51875 330.825ZM40.39375 335.3875Q40.39375 335.10626 40.55 334.91876Q40.721874 334.73126 41.05 334.73126Q41.39375 334.73126 41.565624 334.91876Q41.7375 335.10626 41.7375 335.3875Q41.7375 335.65314 41.565624 335.84064Q41.39375 336.0125 41.05 336.0125Q40.721874 336.0125 40.55 335.84064Q40.39375 335.65314 40.39375 335.3875ZM48.6125 332.3094Q48.6125 334.21564 47.95625 335.15314Q47.315624 336.075 45.925 336.075Q44.565624 336.075 43.909374 335.16876Q43.253124 334.2625 43.221874 332.45L43.221874 331.0125Q43.221874 329.1219 43.8625 328.21564Q44.51875 327.29376 45.909374 327.29376Q47.284374 327.29376 47.940624 328.1844Q48.596874 329.0594 48.6125 330.90314L48.6125 332.3094ZM47.51875 330.825Q47.51875 329.45 47.128124 328.825Q46.753124 328.1844 45.909374 328.1844Q45.08125 328.1844 44.690624 328.825Q44.315624 329.45 44.315624 330.7469L44.315624 332.48126Q44.315624 333.85626 44.70625 334.52814Q45.1125 335.1844 45.925 335.1844Q46.721874 335.1844 47.1125 334.5594Q47.503124 333.9344 47.51875 332.60626L47.51875 330.825ZM55.6125 332.3094Q55.6125 334.21564 54.95625 335.15314Q54.315624 336.075 52.925 336.075Q51.565624 336.075 50.909374 335.16876Q50.253124 334.2625 50.221874 332.45L50.221874 331.0125Q50.221874 329.1219 50.8625 328.21564Q51.51875 327.29376 52.909374 327.29376Q54.284374 327.29376 54.940624 328.1844Q55.596874 329.0594 55.6125 330.90314L55.6125 332.3094ZM54.51875 330.825Q54.51875 329.45 54.128124 328.825Q53.753124 328.1844 52.909374 328.1844Q52.08125 328.1844 51.690624 328.825Q51.315624 329.45 51.315624 330.7469L51.315624 332.48126Q51.315624 333.85626 51.70625 334.52814Q52.1125 335.1844 52.925 335.1844Q53.721874 335.1844 54.1125 334.5594Q54.503124 333.9344 54.51875 332.60626L54.51875 330.825ZM57.159374 329.0594Q57.159374 328.29376 57.64375 327.79376Q58.14375 327.29376 58.909374 327.29376Q59.690624 327.29376 60.175 327.79376Q60.659374 328.29376 60.659374 329.09064L60.659374 329.5125Q60.659374 330.27814 60.159374 330.77814Q59.675 331.2625 58.925 331.2625Q58.159374 331.2625 57.659374 330.77814Q57.159374 330.27814 57.159374 329.46564L57.159374 329.0594ZM57.971874 329.5125Q57.971874 329.96564 58.221874 330.2625Q58.4875 330.5594 58.925 330.5594Q59.346874 330.5594 59.596874 330.27814Q59.846874 329.98126 59.846874 329.48126L59.846874 329.0594Q59.846874 328.60626 59.596874 328.3094Q59.346874 327.9969 58.909374 327.9969Q58.471874 327.9969 58.221874 328.3094Q57.971874 328.60626 57.971874 329.075L57.971874 329.5125ZM61.315624 333.85626Q61.315624 333.09064 61.8 332.60626Q62.3 332.10626 63.065624 332.10626Q63.83125 332.10626 64.31563 332.60626Q64.81563 333.09064 64.81563 333.90314L64.81563 334.3094Q64.81563 335.075 64.33125 335.575Q63.846874 336.075 63.08125 336.075Q62.315624 336.075 61.815624 335.59064Q61.315624 335.09064 61.315624 334.27814L61.315624 333.85626ZM62.128124 334.3094Q62.128124 334.77814 62.378124 335.075Q62.64375 335.3719 63.08125 335.3719Q63.503124 335.3719 63.753124 335.09064Q64.00313 334.79376 64.00313 334.29376L64.00313 333.85626Q64.00313 333.3875 63.7375 333.10626Q63.4875 332.8094 63.065624 332.8094Q62.64375 332.8094 62.378124 333.10626Q62.128124 333.3875 62.128124 333.8875L62.128124 334.3094ZM59.175 335.3094L58.55 334.91876L62.721874 328.2469L63.33125 328.6375L59.175 335.3094Z" fill-rule="nonzero"/><path fill="#757575" d="M31.846874 259.6L26.253124 259.6L26.253124 258.81876L29.20625 255.5375Q29.8625 254.7875 30.1125 254.33438Q30.3625 253.86563 30.3625 253.36563Q30.3625 252.69376 29.95625 252.27188Q29.565624 251.83438 28.878124 251.83438Q28.08125 251.83438 27.628124 252.30313Q27.175 252.75626 27.175 253.58438L26.096874 253.58438Q26.096874 252.39688 26.846874 251.67813Q27.6125 250.94376 28.878124 250.94376Q30.08125 250.94376 30.76875 251.56876Q31.45625 252.19376 31.45625 253.24063Q31.45625 254.49063 29.846874 256.24063L27.565624 258.70938L31.846874 258.70938L31.846874 259.6ZM33.753124 255.31876L34.190624 251.06876L38.565624 251.06876L38.565624 252.06876L35.1125 252.06876L34.846874 254.39688Q35.4875 254.02188 36.284374 254.02188Q37.440624 254.02188 38.128124 254.80313Q38.815624 255.56876 38.815624 256.88126Q38.815624 258.19376 38.096874 258.95938Q37.39375 259.725 36.1125 259.725Q34.9875 259.725 34.26875 259.1Q33.55 258.45938 33.45625 257.35L34.471874 257.35Q34.58125 258.08438 35.003124 258.45938Q35.425 258.83438 36.1125 258.83438Q36.8625 258.83438 37.3 258.31876Q37.7375 257.80313 37.7375 256.89688Q37.7375 256.0375 37.26875 255.52188Q36.8 255.00626 36.01875 255.00626Q35.315624 255.00626 34.909374 255.30313L34.628124 255.5375L33.753124 255.31876ZM40.39375 259.0375Q40.39375 258.75626 40.55 258.56876Q40.721874 258.38126 41.05 258.38126Q41.39375 258.38126 41.565624 258.56876Q41.7375 258.75626 41.7375 259.0375Q41.7375 259.30313 41.565624 259.49063Q41.39375 259.6625 41.05 259.6625Q40.721874 259.6625 40.55 259.49063Q40.39375 259.30313 40.39375 259.0375ZM48.6125 255.95938Q48.6125 257.86563 47.95625 258.80313Q47.315624 259.725 45.925 259.725Q44.565624 259.725 43.909374 258.81876Q43.253124 257.9125 43.221874 256.1L43.221874 254.6625Q43.221874 252.77188 43.8625 251.86563Q44.51875 250.94376 45.909374 250.94376Q47.284374 250.94376 47.940624 251.83438Q48.596874 252.70938 48.6125 254.55313L48.6125 255.95938ZM47.51875 254.475Q47.51875 253.1 47.128124 252.475Q46.753124 251.83438 45.909374 251.83438Q45.08125 251.83438 44.690624 252.475Q44.315624 253.1 44.315624 254.39688L44.315624 256.13126Q44.315624 257.50626 44.70625 258.17813Q45.1125 258.83438 45.925 258.83438Q46.721874 258.83438 47.1125 258.20938Q47.503124 257.58438 47.51875 256.25626L47.51875 254.475ZM55.6125 255.95938Q55.6125 257.86563 54.95625 258.80313Q54.315624 259.725 52.925 259.725Q51.565624 259.725 50.909374 258.81876Q50.253124 257.9125 50.221874 256.1L50.221874 254.6625Q50.221874 252.77188 50.8625 251.86563Q51.51875 250.94376 52.909374 250.94376Q54.284374 250.94376 54.940624 251.83438Q55.596874 252.70938 55.6125 254.55313L55.6125 255.95938ZM54.51875 254.475Q54.51875 253.1 54.128124 252.475Q53.753124 251.83438 52.909374 251.83438Q52.08125 251.83438 51.690624 252.475Q51.315624 253.1 51.315624 254.39688L51.315624 256.13126Q51.315624 257.50626 51.70625 258.17813Q52.1125 258.83438 52.925 258.83438Q53.721874 258.83438 54.1125 258.20938Q54.503124 257.58438 54.51875 256.25626L54.51875 254.475ZM57.159374 252.70938Q57.159374 251.94376 57.64375 251.44376Q58.14375 250.94376 58.909374 250.94376Q59.690624 250.94376 60.175 251.44376Q60.659374 251.94376 60.659374 252.74063L60.659374 253.1625Q60.659374 253.92813 60.159374 254.42813Q59.675 254.9125 58.925 254.9125Q58.159374 254.9125 57.659374 254.42813Q57.159374 253.92813 57.159374 253.11563L57.159374 252.70938ZM57.971874 253.1625Q57.971874 253.61563 58.221874 253.9125Q58.4875 254.20938 58.925 254.20938Q59.346874 254.20938 59.596874 253.92813Q59.846874 253.63126 59.846874 253.13126L59.846874 252.70938Q59.846874 252.25626 59.596874 251.95938Q59.346874 251.64688 58.909374 251.64688Q58.471874 251.64688 58.221874 251.95938Q57.971874 252.25626 57.971874 252.725L57.971874 253.1625ZM61.315624 257.50626Q61.315624 256.74063 61.8 256.25626Q62.3 255.75626 63.065624 255.75626Q63.83125 255.75626 64.31563 256.25626Q64.81563 256.74063 64.81563 257.55313L64.81563 257.95938Q64.81563 258.725 64.33125 259.225Q63.846874 259.725 63.08125 259.725Q62.315624 259.725 61.815624 259.24063Q61.315624 258.74063 61.315624 257.92813L61.315624 257.50626ZM62.128124 257.95938Q62.128124 258.42813 62.378124 258.725Q62.64375 259.02188 63.08125 259.02188Q63.503124 259.02188 63.753124 258.74063Q64.00313 258.44376 64.00313 257.94376L64.00313 257.50626Q64.00313 257.0375 63.7375 256.75626Q63.4875 256.45938 63.065624 256.45938Q62.64375 256.45938 62.378124 256.75626Q62.128124 257.0375 62.128124 257.5375L62.128124 257.95938ZM59.175 258.95938L58.55 258.56876L62.721874 251.89688L63.33125 252.2875L59.175 258.95938Z" fill-rule="nonzero"/><path fill="#757575" d="M26.753124 178.96875L27.190624 174.71875L31.565624 174.71875L31.565624 175.71875L28.1125 175.71875L27.846874 178.04688Q28.4875 177.67188 29.284374 177.67188Q30.440624 177.67188 31.128124 178.45312Q31.815624 179.21875 31.815624 180.53125Q31.815624 181.84375 31.096874 182.60938Q30.39375 183.375 29.1125 183.375Q27.9875 183.375 27.26875 182.75Q26.55 182.10938 26.45625 181.0L27.471874 181.0Q27.58125 181.73438 28.003124 182.10938Q28.425 182.48438 29.1125 182.48438Q29.8625 182.48438 30.3 181.96875Q30.7375 181.45312 30.7375 180.54688Q30.7375 179.6875 30.26875 179.17188Q29.8 178.65625 29.01875 178.65625Q28.315624 178.65625 27.909374 178.95312L27.628124 179.1875L26.753124 178.96875ZM38.6125 179.60938Q38.6125 181.51562 37.95625 182.45312Q37.315624 183.375 35.925 183.375Q34.565624 183.375 33.909374 182.46875Q33.253124 181.5625 33.221874 179.75L33.221874 178.3125Q33.221874 176.42188 33.8625 175.51562Q34.51875 174.59375 35.909374 174.59375Q37.284374 174.59375 37.940624 175.48438Q38.596874 176.35938 38.6125 178.20312L38.6125 179.60938ZM37.51875 178.125Q37.51875 176.75 37.128124 176.125Q36.753124 175.48438 35.909374 175.48438Q35.08125 175.48438 34.690624 176.125Q34.315624 176.75 34.315624 178.04688L34.315624 179.78125Q34.315624 181.15625 34.70625 181.82812Q35.1125 182.48438 35.925 182.48438Q36.721874 182.48438 37.1125 181.85938Q37.503124 181.23438 37.51875 179.90625L37.51875 178.125ZM40.39375 182.6875Q40.39375 182.40625 40.55 182.21875Q40.721874 182.03125 41.05 182.03125Q41.39375 182.03125 41.565624 182.21875Q41.7375 182.40625 41.7375 182.6875Q41.7375 182.95312 41.565624 183.14062Q41.39375 183.3125 41.05 183.3125Q40.721874 183.3125 40.55 183.14062Q40.39375 182.95312 40.39375 182.6875ZM48.6125 179.60938Q48.6125 181.51562 47.95625 182.45312Q47.315624 183.375 45.925 183.375Q44.565624 183.375 43.909374 182.46875Q43.253124 181.5625 43.221874 179.75L43.221874 178.3125Q43.221874 176.42188 43.8625 175.51562Q44.51875 174.59375 45.909374 174.59375Q47.284374 174.59375 47.940624 175.48438Q48.596874 176.35938 48.6125 178.20312L48.6125 179.60938ZM47.51875 178.125Q47.51875 176.75 47.128124 176.125Q46.753124 175.48438 45.909374 175.48438Q45.08125 175.48438 44.690624 176.125Q44.315624 176.75 44.315624 178.04688L44.315624 179.78125Q44.315624 181.15625 44.70625 181.82812Q45.1125 182.48438 45.925 182.48438Q46.721874 182.48438 47.1125 181.85938Q47.503124 181.23438 47.51875 179.90625L47.51875 178.125ZM55.6125 179.60938Q55.6125 181.51562 54.95625 182.45312Q54.315624 183.375 52.925 183.375Q51.565624 183.375 50.909374 182.46875Q50.253124 181.5625 50.221874 179.75L50.221874 178.3125Q50.221874 176.42188 50.8625 175.51562Q51.51875 174.59375 52.909374 174.59375Q54.284374 174.59375 54.940624 175.48438Q55.596874 176.35938 55.6125 178.20312L55.6125 179.60938ZM54.51875 178.125Q54.51875 176.75 54.128124 176.125Q53.753124 175.48438 52.909374 175.48438Q52.08125 175.48438 51.690624 176.125Q51.315624 176.75 51.315624 178.04688L51.315624 179.78125Q51.315624 181.15625 51.70625 181.82812Q52.1125 182.48438 52.925 182.48438Q53.721874 182.48438 54.1125 181.85938Q54.503124 181.23438 54.51875 179.90625L54.51875 178.125ZM57.159374 176.35938Q57.159374 175.59375 57.64375 175.09375Q58.14375 174.59375 58.909374 174.59375Q59.690624 174.59375 60.175 175.09375Q60.659374 175.59375 60.659374 176.39062L60.659374 176.8125Q60.659374 177.57812 60.159374 178.07812Q59.675 178.5625 58.925 178.5625Q58.159374 178.5625 57.659374 178.07812Q57.159374 177.57812 57.159374 176.76562L57.159374 176.35938ZM57.971874 176.8125Q57.971874 177.26562 58.221874 177.5625Q58.4875 177.85938 58.925 177.85938Q59.346874 177.85938 59.596874 177.57812Q59.846874 177.28125 59.846874 176.78125L59.846874 176.35938Q59.846874 175.90625 59.596874 175.60938Q59.346874 175.29688 58.909374 175.29688Q58.471874 175.29688 58.221874 175.60938Q57.971874 175.90625 57.971874 176.375L57.971874 176.8125ZM61.315624 181.15625Q61.315624 180.39062 61.8 179.90625Q62.3 179.40625 63.065624 179.40625Q63.83125 179.40625 64.31563 179.90625Q64.81563 180.39062 64.81563 181.20312L64.81563 181.60938Q64.81563 182.375 64.33125 182.875Q63.846874 183.375 63.08125 183.375Q62.315624 183.375 61.815624 182.89062Q61.315624 182.39062 61.315624 181.57812L61.315624 181.15625ZM62.128124 181.60938Q62.128124 182.07812 62.378124 182.375Q62.64375 182.67188 63.08125 182.67188Q63.503124 182.67188 63.753124 182.39062Q64.00313 182.09375 64.00313 181.59375L64.00313 181.15625Q64.00313 180.6875 63.7375 180.40625Q63.4875 180.10938 63.065624 180.10938Q62.64375 180.10938 62.378124 180.40625Q62.128124 180.6875 62.128124 181.1875L62.128124 181.60938ZM59.175 182.60938L58.55 182.21875L62.721874 175.54688L63.33125 175.9375L59.175 182.60938Z" fill-rule="nonzero"/><path fill="#757575" d="M31.76875 98.97813L28.2375 106.9L27.096874 106.9L30.6125 99.25938L26.003124 99.25938L26.003124 98.36875L31.76875 98.36875L31.76875 98.97813ZM33.753124 102.61875L34.190624 98.36875L38.565624 98.36875L38.565624 99.36875L35.1125 99.36875L34.846874 101.69688Q35.4875 101.32188 36.284374 101.32188Q37.440624 101.32188 38.128124 102.10313Q38.815624 102.86875 38.815624 104.18125Q38.815624 105.49375 38.096874 106.25938Q37.39375 107.025 36.1125 107.025Q34.9875 107.025 34.26875 106.4Q33.55 105.75938 33.45625 104.65L34.471874 104.65Q34.58125 105.38438 35.003124 105.75938Q35.425 106.13438 36.1125 106.13438Q36.8625 106.13438 37.3 105.61875Q37.7375 105.10313 37.7375 104.19688Q37.7375 103.3375 37.26875 102.82188Q36.8 102.30625 36.01875 102.30625Q35.315624 102.30625 34.909374 102.60313L34.628124 102.8375L33.753124 102.61875ZM40.39375 106.3375Q40.39375 106.05625 40.55 105.86875Q40.721874 105.68125 41.05 105.68125Q41.39375 105.68125 41.565624 105.86875Q41.7375 106.05625 41.7375 106.3375Q41.7375 106.60313 41.565624 106.79063Q41.39375 106.9625 41.05 106.9625Q40.721874 106.9625 40.55 106.79063Q40.39375 106.60313 40.39375 106.3375ZM48.6125 103.25938Q48.6125 105.16563 47.95625 106.10313Q47.315624 107.025 45.925 107.025Q44.565624 107.025 43.909374 106.11875Q43.253124 105.2125 43.221874 103.4L43.221874 101.9625Q43.221874 100.07188 43.8625 99.16563Q44.51875 98.24375 45.909374 98.24375Q47.284374 98.24375 47.940624 99.13438Q48.596874 100.00938 48.6125 101.85313L48.6125 103.25938ZM47.51875 101.775Q47.51875 100.4 47.128124 99.775Q46.753124 99.13438 45.909374 99.13438Q45.08125 99.13438 44.690624 99.775Q44.315624 100.4 44.315624 101.69688L44.315624 103.43125Q44.315624 104.80625 44.70625 105.47813Q45.1125 106.13438 45.925 106.13438Q46.721874 106.13438 47.1125 105.50938Q47.503124 104.88438 47.51875 103.55625L47.51875 101.775ZM55.6125 103.25938Q55.6125 105.16563 54.95625 106.10313Q54.315624 107.025 52.925 107.025Q51.565624 107.025 50.909374 106.11875Q50.253124 105.2125 50.221874 103.4L50.221874 101.9625Q50.221874 100.07188 50.8625 99.16563Q51.51875 98.24375 52.909374 98.24375Q54.284374 98.24375 54.940624 99.13438Q55.596874 100.00938 55.6125 101.85313L55.6125 103.25938ZM54.51875 101.775Q54.51875 100.4 54.128124 99.775Q53.753124 99.13438 52.909374 99.13438Q52.08125 99.13438 51.690624 99.775Q51.315624 100.4 51.315624 101.69688L51.315624 103.43125Q51.315624 104.80625 51.70625 105.47813Q52.1125 106.13438 52.925 106.13438Q53.721874 106.13438 54.1125 105.50938Q54.503124 104.88438 54.51875 103.55625L54.51875 101.775ZM57.159374 100.00938Q57.159374 99.24375 57.64375 98.74375Q58.14375 98.24375 58.909374 98.24375Q59.690624 98.24375 60.175 98.74375Q60.659374 99.24375 60.659374 100.04063L60.659374 100.4625Q60.659374 101.22813 60.159374 101.72813Q59.675 102.2125 58.925 102.2125Q58.159374 102.2125 57.659374 101.72813Q57.159374 101.22813 57.159374 100.41563L57.159374 100.00938ZM57.971874 100.4625Q57.971874 100.91563 58.221874 101.2125Q58.4875 101.50938 58.925 101.50938Q59.346874 101.50938 59.596874 101.22813Q59.846874 100.93125 59.846874 100.43125L59.846874 100.00938Q59.846874 99.55625 59.596874 99.25938Q59.346874 98.94688 58.909374 98.94688Q58.471874 98.94688 58.221874 99.25938Q57.971874 99.55625 57.971874 100.025L57.971874 100.4625ZM61.315624 104.80625Q61.315624 104.04063 61.8 103.55625Q62.3 103.05625 63.065624 103.05625Q63.83125 103.05625 64.31563 103.55625Q64.81563 104.04063 64.81563 104.85313L64.81563 105.25938Q64.81563 106.025 64.33125 106.525Q63.846874 107.025 63.08125 107.025Q62.315624 107.025 61.815624 106.54063Q61.315624 106.04063 61.315624 105.22813L61.315624 104.80625ZM62.128124 105.25938Q62.128124 105.72813 62.378124 106.025Q62.64375 106.32188 63.08125 106.32188Q63.503124 106.32188 63.753124 106.04063Q64.00313 105.74375 64.00313 105.24375L64.00313 104.80625Q64.00313 104.3375 63.7375 104.05625Q63.4875 103.75938 63.065624 103.75938Q62.64375 103.75938 62.378124 104.05625Q62.128124 104.3375 62.128124 104.8375L62.128124 105.25938ZM59.175 106.25938L58.55 105.86875L62.721874 99.19688L63.33125 99.5875L59.175 106.25938Z" fill-rule="nonzero"/><path fill="#757575" d="M22.815624 30.55L21.7375 30.55L21.7375 23.33125L19.55 24.128124L19.55 23.14375L22.659374 21.971874L22.815624 21.971874L22.815624 30.55ZM31.6125 26.909374Q31.6125 28.815624 30.95625 29.753124Q30.315624 30.675 28.925 30.675Q27.565624 30.675 26.909374 29.76875Q26.253124 28.8625 26.221874 27.05L26.221874 25.6125Q26.221874 23.721874 26.8625 22.815624Q27.51875 21.89375 28.909374 21.89375Q30.284374 21.89375 30.940624 22.784374Q31.596874 23.659374 31.6125 25.503124L31.6125 26.909374ZM30.51875 25.425Q30.51875 24.05 30.128124 23.425Q29.753124 22.784374 28.909374 22.784374Q28.08125 22.784374 27.690624 23.425Q27.315624 24.05 27.315624 25.346874L27.315624 27.08125Q27.315624 28.45625 27.70625 29.128124Q28.1125 29.784374 28.925 29.784374Q29.721874 29.784374 30.1125 29.159374Q30.503124 28.534374 30.51875 27.20625L30.51875 25.425ZM38.6125 26.909374Q38.6125 28.815624 37.95625 29.753124Q37.315624 30.675 35.925 30.675Q34.565624 30.675 33.909374 29.76875Q33.253124 28.8625 33.221874 27.05L33.221874 25.6125Q33.221874 23.721874 33.8625 22.815624Q34.51875 21.89375 35.909374 21.89375Q37.284374 21.89375 37.940624 22.784374Q38.596874 23.659374 38.6125 25.503124L38.6125 26.909374ZM37.51875 25.425Q37.51875 24.05 37.128124 23.425Q36.753124 22.784374 35.909374 22.784374Q35.08125 22.784374 34.690624 23.425Q34.315624 24.05 34.315624 25.346874L34.315624 27.08125Q34.315624 28.45625 34.70625 29.128124Q35.1125 29.784374 35.925 29.784374Q36.721874 29.784374 37.1125 29.159374Q37.503124 28.534374 37.51875 27.20625L37.51875 25.425ZM40.39375 29.9875Q40.39375 29.70625 40.55 29.51875Q40.721874 29.33125 41.05 29.33125Q41.39375 29.33125 41.565624 29.51875Q41.7375 29.70625 41.7375 29.9875Q41.7375 30.253124 41.565624 30.440624Q41.39375 30.6125 41.05 30.6125Q40.721874 30.6125 40.55 30.440624Q40.39375 30.253124 40.39375 29.9875ZM48.6125 26.909374Q48.6125 28.815624 47.95625 29.753124Q47.315624 30.675 45.925 30.675Q44.565624 30.675 43.909374 29.76875Q43.253124 28.8625 43.221874 27.05L43.221874 25.6125Q43.221874 23.721874 43.8625 22.815624Q44.51875 21.89375 45.909374 21.89375Q47.284374 21.89375 47.940624 22.784374Q48.596874 23.659374 48.6125 25.503124L48.6125 26.909374ZM47.51875 25.425Q47.51875 24.05 47.128124 23.425Q46.753124 22.784374 45.909374 22.784374Q45.08125 22.784374 44.690624 23.425Q44.315624 24.05 44.315624 25.346874L44.315624 27.08125Q44.315624 28.45625 44.70625 29.128124Q45.1125 29.784374 45.925 29.784374Q46.721874 29.784374 47.1125 29.159374Q47.503124 28.534374 47.51875 27.20625L47.51875 25.425ZM55.6125 26.909374Q55.6125 28.815624 54.95625 29.753124Q54.315624 30.675 52.925 30.675Q51.565624 30.675 50.909374 29.76875Q50.253124 28.8625 50.221874 27.05L50.221874 25.6125Q50.221874 23.721874 50.8625 22.815624Q51.51875 21.89375 52.909374 21.89375Q54.284374 21.89375 54.940624 22.784374Q55.596874 23.659374 55.6125 25.503124L55.6125 26.909374ZM54.51875 25.425Q54.51875 24.05 54.128124 23.425Q53.753124 22.784374 52.909374 22.784374Q52.08125 22.784374 51.690624 23.425Q51.315624 24.05 51.315624 25.346874L51.315624 27.08125Q51.315624 28.45625 51.70625 29.128124Q52.1125 29.784374 52.925 29.784374Q53.721874 29.784374 54.1125 29.159374Q54.503124 28.534374 54.51875 27.20625L54.51875 25.425ZM57.159374 23.659374Q57.159374 22.89375 57.64375 22.39375Q58.14375 21.89375 58.909374 21.89375Q59.690624 21.89375 60.175 22.39375Q60.659374 22.89375 60.659374 23.690624L60.659374 24.1125Q60.659374 24.878124 60.159374 25.378124Q59.675 25.8625 58.925 25.8625Q58.159374 25.8625 57.659374 25.378124Q57.159374 24.878124 57.159374 24.065624L57.159374 23.659374ZM57.971874 24.1125Q57.971874 24.565624 58.221874 24.8625Q58.4875 25.159374 58.925 25.159374Q59.346874 25.159374 59.596874 24.878124Q59.846874 24.58125 59.846874 24.08125L59.846874 23.659374Q59.846874 23.20625 59.596874 22.909374Q59.346874 22.596874 58.909374 22.596874Q58.471874 22.596874 58.221874 22.909374Q57.971874 23.20625 57.971874 23.675L57.971874 24.1125ZM61.315624 28.45625Q61.315624 27.690624 61.8 27.20625Q62.3 26.70625 63.065624 26.70625Q63.83125 26.70625 64.31563 27.20625Q64.81563 27.690624 64.81563 28.503124L64.81563 28.909374Q64.81563 29.675 64.33125 30.175Q63.846874 30.675 63.08125 30.675Q62.315624 30.675 61.815624 30.190624Q61.315624 29.690624 61.315624 28.878124L61.315624 28.45625ZM62.128124 28.909374Q62.128124 29.378124 62.378124 29.675Q62.64375 29.971874 63.08125 29.971874Q63.503124 29.971874 63.753124 29.690624Q64.00313 29.39375 64.00313 28.89375L64.00313 28.45625Q64.00313 27.9875 63.7375 27.70625Q63.4875 27.409374 63.065624 27.409374Q62.64375 27.409374 62.378124 27.70625Q62.128124 27.9875 62.128124 28.4875L62.128124 28.909374ZM59.175 29.909374L58.55 29.51875L62.721874 22.846874L63.33125 23.2375L59.175 29.909374Z" fill-rule="nonzero"/><path fill="#757575" d="M117.87554 347.21564L114.29742 347.21564L113.50054 349.45L112.34429 349.45L115.59429 340.91876L116.57867 340.91876L119.84429 349.45L118.68804 349.45L117.87554 347.21564ZM114.64117 346.29376L117.54742 346.29376L116.09429 342.3094L114.64117 346.29376ZM122.46929 341.575L122.46929 343.10626L123.64117 343.10626L123.64117 343.95L122.46929 343.95L122.46929 347.8719Q122.46929 348.2625 122.62554 348.45Q122.78179 348.6375 123.15679 348.6375Q123.34429 348.6375 123.67242 348.575L123.67242 349.45Q123.25054 349.575 122.84429 349.575Q122.12554 349.575 121.75054 349.1375Q121.37554 348.6844 121.37554 347.8719L121.37554 343.95L120.21929 343.95L120.21929 343.10626L121.37554 343.10626L121.37554 341.575L122.46929 341.575ZM129.17242 349.45L128.0943 349.45L128.0943 340.45L129.17242 340.45L129.17242 349.45ZM133.62555 349.575Q132.32867 349.575 131.51617 348.73126Q130.7193 347.8719 130.7193 346.45L130.7193 346.2625Q130.7193 345.3094 131.07867 344.575Q131.43805 343.825 132.07867 343.41876Q132.73492 342.9969 133.48492 342.9969Q134.7193 342.9969 135.4068 343.8094Q136.0943 344.6219 136.0943 346.1375L136.0943 346.59064L131.79742 346.59064Q131.82867 347.52814 132.3443 348.10626Q132.87555 348.6844 133.68805 348.6844Q134.25055 348.6844 134.64117 348.45Q135.04742 348.21564 135.35992 347.825L136.01617 348.34064Q135.2193 349.575 133.62555 349.575ZM133.48492 343.8875Q132.82867 343.8875 132.37555 344.3719Q131.93805 344.84064 131.8443 345.7L135.01617 345.7L135.01617 345.6219Q134.9693 344.79376 134.56305 344.34064Q134.17242 343.8875 133.48492 343.8875ZM140.9068 349.45Q140.81305 349.2625 140.75055 348.77814Q140.00055 349.575 138.95367 349.575Q138.01617 349.575 137.4068 349.04376Q136.81305 348.5125 136.81305 347.6844Q136.81305 346.7 137.56305 346.15314Q138.31305 345.60626 139.68805 345.60626L140.73492 345.60626L140.73492 345.10626Q140.73492 344.54376 140.39117 344.21564Q140.06305 343.8719 139.39117 343.8719Q138.81305 343.8719 138.42242 344.16876Q138.0318 344.45 138.0318 344.8719L136.93805 344.8719Q136.93805 344.3875 137.26617 343.95Q137.60992 343.5125 138.18805 343.2625Q138.76617 342.9969 139.45367 342.9969Q140.56305 342.9969 141.17242 343.54376Q141.79742 344.09064 141.82867 345.04376L141.82867 347.96564Q141.82867 348.84064 142.04742 349.35626L142.04742 349.45L140.9068 349.45ZM139.10992 348.6219Q139.62555 348.6219 140.07867 348.35626Q140.5318 348.09064 140.73492 347.66876L140.73492 346.3719L139.89117 346.3719Q137.89117 346.3719 137.89117 347.54376Q137.89117 348.04376 138.23492 348.34064Q138.57867 348.6219 139.10992 348.6219ZM147.68805 347.7625Q147.68805 347.325 147.3443 347.09064Q147.01617 346.84064 146.18805 346.66876Q145.37555 346.4969 144.89117 346.2469Q144.4068 345.9969 144.17242 345.66876Q143.95367 345.325 143.95367 344.85626Q143.95367 344.075 144.60992 343.54376Q145.26617 342.9969 146.29742 342.9969Q147.37555 342.9969 148.0318 343.5594Q148.70367 344.10626 148.70367 344.96564L147.62555 344.96564Q147.62555 344.52814 147.23492 344.21564Q146.85992 343.8875 146.29742 343.8875Q145.70367 343.8875 145.35992 344.15314Q145.0318 344.40314 145.0318 344.8094Q145.0318 345.2 145.3443 345.40314Q145.6568 345.60626 146.4693 345.79376Q147.2818 345.96564 147.7818 346.21564Q148.2818 346.46564 148.51617 346.825Q148.76617 347.1844 148.76617 347.6844Q148.76617 348.54376 148.07867 349.0594Q147.4068 349.575 146.32867 349.575Q145.56305 349.575 144.9693 349.3094Q144.39117 349.02814 144.06305 348.54376Q143.73492 348.0594 143.73492 347.4969L144.81305 347.4969Q144.8443 348.04376 145.25055 348.3719Q145.6568 348.6844 146.32867 348.6844Q146.93805 348.6844 147.31305 348.4344Q147.68805 348.1844 147.68805 347.7625ZM151.4693 341.575L151.4693 343.10626L152.64117 343.10626L152.64117 343.95L151.4693 343.95L151.4693 347.8719Q151.4693 348.2625 151.62555 348.45Q151.7818 348.6375 152.1568 348.6375Q152.3443 348.6375 152.67242 348.575L152.67242 349.45Q152.25055 349.575 151.8443 349.575Q151.12555 349.575 150.75055 349.1375Q150.37555 348.6844 150.37555 347.8719L150.37555 343.95L149.2193 343.95L149.2193 343.10626L150.37555 343.10626L150.37555 341.575L151.4693 341.575ZM158.45367 344.65314L159.26617 344.65314Q160.04742 344.6375 160.48492 344.2469Q160.92242 343.85626 160.92242 343.1844Q160.92242 341.6844 159.42242 341.6844Q158.7193 341.6844 158.29742 342.09064Q157.89117 342.4969 157.89117 343.15314L156.79742 343.15314Q156.79742 342.1375 157.5318 341.46564Q158.2818 340.79376 159.42242 340.79376Q160.62555 340.79376 161.31305 341.4344Q162.00055 342.075 162.00055 343.21564Q162.00055 343.77814 161.64117 344.29376Q161.2818 344.8094 160.6568 345.075Q161.35992 345.29376 161.73492 345.8094Q162.12555 346.325 162.12555 347.075Q162.12555 348.21564 161.37555 348.90314Q160.62555 349.575 159.42242 349.575Q158.23492 349.575 157.4693 348.91876Q156.7193 348.2625 156.7193 347.2L157.81305 347.2Q157.81305 347.8719 158.25055 348.27814Q158.68805 348.6844 159.43805 348.6844Q160.2193 348.6844 160.62555 348.27814Q161.04742 347.85626 161.04742 347.09064Q161.04742 346.35626 160.5943 345.96564Q160.14117 345.5594 159.26617 345.54376L158.45367 345.54376L158.45367 344.65314ZM165.45367 344.65314L166.26617 344.65314Q167.04742 344.6375 167.48492 344.2469Q167.92242 343.85626 167.92242 343.1844Q167.92242 341.6844 166.42242 341.6844Q165.7193 341.6844 165.29742 342.09064Q164.89117 342.4969 164.89117 343.15314L163.79742 343.15314Q163.79742 342.1375 164.5318 341.46564Q165.2818 340.79376 166.42242 340.79376Q167.62555 340.79376 168.31305 341.4344Q169.00055 342.075 169.00055 343.21564Q169.00055 343.77814 168.64117 344.29376Q168.2818 344.8094 167.6568 345.075Q168.35992 345.29376 168.73492 345.8094Q169.12555 346.325 169.12555 347.075Q169.12555 348.21564 168.37555 348.90314Q167.62555 349.575 166.42242 349.575Q165.23492 349.575 164.4693 348.91876Q163.7193 348.2625 163.7193 347.2L164.81305 347.2Q164.81305 347.8719 165.25055 348.27814Q165.68805 348.6844 166.43805 348.6844Q167.2193 348.6844 167.62555 348.27814Q168.04742 347.85626 168.04742 347.09064Q168.04742 346.35626 167.5943 345.96564Q167.14117 345.5594 166.26617 345.54376L165.45367 345.54376L165.45367 344.65314ZM171.01617 348.8875Q171.01617 348.60626 171.17242 348.41876Q171.3443 348.23126 171.67242 348.23126Q172.01617 348.23126 172.18805 348.41876Q172.35992 348.60626 172.35992 348.8875Q172.35992 349.15314 172.18805 349.34064Q172.01617 349.5125 171.67242 349.5125Q171.3443 349.5125 171.17242 349.34064Q171.01617 349.15314 171.01617 348.8875ZM175.45367 344.65314L176.26617 344.65314Q177.04742 344.6375 177.48492 344.2469Q177.92242 343.85626 177.92242 343.1844Q177.92242 341.6844 176.42242 341.6844Q175.7193 341.6844 175.29742 342.09064Q174.89117 342.4969 174.89117 343.15314L173.79742 343.15314Q173.79742 342.1375 174.5318 341.46564Q175.2818 340.79376 176.42242 340.79376Q177.62555 340.79376 178.31305 341.4344Q179.00055 342.075 179.00055 343.21564Q179.00055 343.77814 178.64117 344.29376Q178.2818 344.8094 177.6568 345.075Q178.35992 345.29376 178.73492 345.8094Q179.12555 346.325 179.12555 347.075Q179.12555 348.21564 178.37555 348.90314Q177.62555 349.575 176.42242 349.575Q175.23492 349.575 174.4693 348.91876Q173.7193 348.2625 173.7193 347.2L174.81305 347.2Q174.81305 347.8719 175.25055 348.27814Q175.68805 348.6844 176.43805 348.6844Q177.2193 348.6844 177.62555 348.27814Q178.04742 347.85626 178.04742 347.09064Q178.04742 346.35626 177.5943 345.96564Q177.14117 345.5594 176.26617 345.54376L175.45367 345.54376L175.45367 344.65314ZM180.7818 342.5594Q180.7818 341.79376 181.26617 341.29376Q181.76617 340.79376 182.5318 340.79376Q183.31305 340.79376 183.79742 341.29376Q184.2818 341.79376 184.2818 342.59064L184.2818 343.0125Q184.2818 343.77814 183.7818 344.27814Q183.29742 344.7625 182.54742 344.7625Q181.7818 344.7625 181.2818 344.27814Q180.7818 343.77814 180.7818 342.96564L180.7818 342.5594ZM181.5943 343.0125Q181.5943 343.46564 181.8443 343.7625Q182.10992 344.0594 182.54742 344.0594Q182.9693 344.0594 183.2193 343.77814Q183.4693 343.48126 183.4693 342.98126L183.4693 342.5594Q183.4693 342.10626 183.2193 341.8094Q182.9693 341.4969 182.5318 341.4969Q182.0943 341.4969 181.8443 341.8094Q181.5943 342.10626 181.5943 342.575L181.5943 343.0125ZM184.93805 347.35626Q184.93805 346.59064 185.42242 346.10626Q185.92242 345.60626 186.68805 345.60626Q187.45367 345.60626 187.93805 346.10626Q188.43805 346.59064 188.43805 347.40314L188.43805 347.8094Q188.43805 348.575 187.95367 349.075Q187.4693 349.575 186.70367 349.575Q185.93805 349.575 185.43805 349.09064Q184.93805 348.59064 184.93805 347.77814L184.93805 347.35626ZM185.75055 347.8094Q185.75055 348.27814 186.00055 348.575Q186.26617 348.8719 186.70367 348.8719Q187.12555 348.8719 187.37555 348.59064Q187.62555 348.29376 187.62555 347.79376L187.62555 347.35626Q187.62555 346.8875 187.35992 346.60626Q187.10992 346.3094 186.68805 346.3094Q186.26617 346.3094 186.00055 346.60626Q185.75055 346.8875 185.75055 347.3875L185.75055 347.8094ZM182.79742 348.8094L182.17242 348.41876L186.3443 341.7469L186.95367 342.1375L182.79742 348.8094Z" fill-rule="nonzero"/><path fill="#757575" d="M235.09393 347.21564L231.51581 347.21564L230.71893 349.45L229.56268 349.45L232.81268 340.91876L233.79706 340.91876L237.06268 349.45L235.90643 349.45L235.09393 347.21564ZM231.85956 346.29376L234.76581 346.29376L233.31268 342.3094L231.85956 346.29376ZM239.68768 341.575L239.68768 343.10626L240.85956 343.10626L240.85956 343.95L239.68768 343.95L239.68768 347.8719Q239.68768 348.2625 239.84393 348.45Q240.00018 348.6375 240.37518 348.6375Q240.56268 348.6375 240.89081 348.575L240.89081 349.45Q240.46893 349.575 240.06268 349.575Q239.34393 349.575 238.96893 349.1375Q238.59393 348.6844 238.59393 347.8719L238.59393 343.95L237.43768 343.95L237.43768 343.10626L238.59393 343.10626L238.59393 341.575L239.68768 341.575ZM246.39081 349.45L245.31268 349.45L245.31268 340.45L246.39081 340.45L246.39081 349.45ZM250.84393 349.575Q249.54706 349.575 248.73456 348.73126Q247.93768 347.8719 247.93768 346.45L247.93768 346.2625Q247.93768 345.3094 248.29706 344.575Q248.65643 343.825 249.29706 343.41876Q249.95331 342.9969 250.70331 342.9969Q251.93768 342.9969 252.62518 343.8094Q253.31268 344.6219 253.31268 346.1375L253.31268 346.59064L249.01581 346.59064Q249.04706 347.52814 249.56268 348.10626Q250.09393 348.6844 250.90643 348.6844Q251.46893 348.6844 251.85956 348.45Q252.26581 348.21564 252.57831 347.825L253.23456 348.34064Q252.43768 349.575 250.84393 349.575ZM250.70331 343.8875Q250.04706 343.8875 249.59393 344.3719Q249.15643 344.84064 249.06268 345.7L252.23456 345.7L252.23456 345.6219Q252.18768 344.79376 251.78143 344.34064Q251.39081 343.8875 250.70331 343.8875ZM258.12518 349.45Q258.03143 349.2625 257.96893 348.77814Q257.21893 349.575 256.17206 349.575Q255.23456 349.575 254.62518 349.04376Q254.03143 348.5125 254.03143 347.6844Q254.03143 346.7 254.78143 346.15314Q255.53143 345.60626 256.90643 345.60626L257.9533 345.60626L257.9533 345.10626Q257.9533 344.54376 257.60956 344.21564Q257.28143 343.8719 256.60956 343.8719Q256.03143 343.8719 255.64081 344.16876Q255.25018 344.45 255.25018 344.8719L254.15643 344.8719Q254.15643 344.3875 254.48456 343.95Q254.82831 343.5125 255.40643 343.2625Q255.98456 342.9969 256.67206 342.9969Q257.78143 342.9969 258.3908 343.54376Q259.0158 344.09064 259.04706 345.04376L259.04706 347.96564Q259.04706 348.84064 259.2658 349.35626L259.2658 349.45L258.12518 349.45ZM256.3283 348.6219Q256.84393 348.6219 257.29706 348.35626Q257.75018 348.09064 257.9533 347.66876L257.9533 346.3719L257.10956 346.3719Q255.10956 346.3719 255.10956 347.54376Q255.10956 348.04376 255.45331 348.34064Q255.79706 348.6219 256.3283 348.6219ZM264.90643 347.7625Q264.90643 347.325 264.56268 347.09064Q264.23456 346.84064 263.40643 346.66876Q262.59393 346.4969 262.10956 346.2469Q261.62518 345.9969 261.3908 345.66876Q261.17206 345.325 261.17206 344.85626Q261.17206 344.075 261.8283 343.54376Q262.48456 342.9969 263.5158 342.9969Q264.59393 342.9969 265.25018 343.5594Q265.92206 344.10626 265.92206 344.96564L264.84393 344.96564Q264.84393 344.52814 264.4533 344.21564Q264.0783 343.8875 263.5158 343.8875Q262.92206 343.8875 262.5783 344.15314Q262.25018 344.40314 262.25018 344.8094Q262.25018 345.2 262.56268 345.40314Q262.87518 345.60626 263.68768 345.79376Q264.50018 345.96564 265.00018 346.21564Q265.50018 346.46564 265.73456 346.825Q265.98456 347.1844 265.98456 347.6844Q265.98456 348.54376 265.29706 349.0594Q264.62518 349.575 263.54706 349.575Q262.78143 349.575 262.18768 349.3094Q261.60956 349.02814 261.28143 348.54376Q260.9533 348.0594 260.9533 347.4969L262.03143 347.4969Q262.06268 348.04376 262.46893 348.3719Q262.87518 348.6844 263.54706 348.6844Q264.15643 348.6844 264.53143 348.4344Q264.90643 348.1844 264.90643 347.7625ZM268.68768 341.575L268.68768 343.10626L269.85956 343.10626L269.85956 343.95L268.68768 343.95L268.68768 347.8719Q268.68768 348.2625 268.84393 348.45Q269.00018 348.6375 269.37518 348.6375Q269.56268 348.6375 269.8908 348.575L269.8908 349.45Q269.46893 349.575 269.06268 349.575Q268.34393 349.575 267.96893 349.1375Q267.59393 348.6844 267.59393 347.8719L267.59393 343.95L266.43768 343.95L266.43768 343.10626L267.59393 343.10626L267.59393 341.575L268.68768 341.575ZM274.59393 345.16876L275.03143 340.91876L279.40643 340.91876L279.40643 341.91876L275.9533 341.91876L275.68768 344.2469Q276.3283 343.8719 277.12518 343.8719Q278.28143 343.8719 278.96893 344.65314Q279.65643 345.41876 279.65643 346.73126Q279.65643 348.04376 278.93768 348.8094Q278.23456 349.575 276.9533 349.575Q275.8283 349.575 275.10956 348.95Q274.3908 348.3094 274.29706 347.2L275.31268 347.2Q275.42206 347.9344 275.84393 348.3094Q276.2658 348.6844 276.9533 348.6844Q277.7033 348.6844 278.1408 348.16876Q278.5783 347.65314 278.5783 346.7469Q278.5783 345.8875 278.10956 345.3719Q277.6408 344.85626 276.85956 344.85626Q276.15643 344.85626 275.75018 345.15314L275.46893 345.3875L274.59393 345.16876ZM286.4533 345.8094Q286.4533 347.71564 285.79706 348.65314Q285.15643 349.575 283.7658 349.575Q282.40643 349.575 281.75018 348.66876Q281.09393 347.7625 281.06268 345.95L281.06268 344.5125Q281.06268 342.6219 281.7033 341.71564Q282.35956 340.79376 283.75018 340.79376Q285.12518 340.79376 285.78143 341.6844Q286.43768 342.5594 286.4533 344.40314L286.4533 345.8094ZM285.35956 344.325Q285.35956 342.95 284.96893 342.325Q284.59393 341.6844 283.75018 341.6844Q282.92206 341.6844 282.53143 342.325Q282.15643 342.95 282.15643 344.2469L282.15643 345.98126Q282.15643 347.35626 282.54706 348.02814Q282.9533 348.6844 283.7658 348.6844Q284.56268 348.6844 284.9533 348.0594Q285.34393 347.4344 285.35956 346.10626L285.35956 344.325ZM288.23456 348.8875Q288.23456 348.60626 288.3908 348.41876Q288.56268 348.23126 288.8908 348.23126Q289.23456 348.23126 289.40643 348.41876Q289.5783 348.60626 289.5783 348.8875Q289.5783 349.15314 289.40643 349.34064Q289.23456 349.5125 288.8908 349.5125Q288.56268 349.5125 288.3908 349.34064Q288.23456 349.15314 288.23456 348.8875ZM296.4533 345.8094Q296.4533 347.71564 295.79706 348.65314Q295.15643 349.575 293.7658 349.575Q292.40643 349.575 291.75018 348.66876Q291.09393 347.7625 291.06268 345.95L291.06268 344.5125Q291.06268 342.6219 291.7033 341.71564Q292.35956 340.79376 293.75018 340.79376Q295.12518 340.79376 295.78143 341.6844Q296.43768 342.5594 296.4533 344.40314L296.4533 345.8094ZM295.35956 344.325Q295.35956 342.95 294.96893 342.325Q294.59393 341.6844 293.75018 341.6844Q292.92206 341.6844 292.53143 342.325Q292.15643 342.95 292.15643 344.2469L292.15643 345.98126Q292.15643 347.35626 292.54706 348.02814Q292.9533 348.6844 293.7658 348.6844Q294.56268 348.6844 294.9533 348.0594Q295.34393 347.4344 295.35956 346.10626L295.35956 344.325ZM298.00018 342.5594Q298.00018 341.79376 298.48456 341.29376Q298.98456 340.79376 299.75018 340.79376Q300.53143 340.79376 301.0158 341.29376Q301.50018 341.79376 301.50018 342.59064L301.50018 343.0125Q301.50018 343.77814 301.00018 344.27814Q300.5158 344.7625 299.7658 344.7625Q299.00018 344.7625 298.50018 344.27814Q298.00018 343.77814 298.00018 342.96564L298.00018 342.5594ZM298.81268 343.0125Q298.81268 343.46564 299.06268 343.7625Q299.3283 344.0594 299.7658 344.0594Q300.18768 344.0594 300.43768 343.77814Q300.68768 343.48126 300.68768 342.98126L300.68768 342.5594Q300.68768 342.10626 300.43768 341.8094Q300.18768 341.4969 299.75018 341.4969Q299.31268 341.4969 299.06268 341.8094Q298.81268 342.10626 298.81268 342.575L298.81268 343.0125ZM302.15643 347.35626Q302.15643 346.59064 302.6408 346.10626Q303.1408 345.60626 303.90643 345.60626Q304.67206 345.60626 305.15643 346.10626Q305.65643 346.59064 305.65643 347.40314L305.65643 347.8094Q305.65643 348.575 305.17206 349.075Q304.68768 349.575 303.92206 349.575Q303.15643 349.575 302.65643 349.09064Q302.15643 348.59064 302.15643 347.77814L302.15643 347.35626ZM302.96893 347.8094Q302.96893 348.27814 303.21893 348.575Q303.48456 348.8719 303.92206 348.8719Q304.34393 348.8719 304.59393 348.59064Q304.84393 348.29376 304.84393 347.79376L304.84393 347.35626Q304.84393 346.8875 304.5783 346.60626Q304.3283 346.3094 303.90643 346.3094Q303.48456 346.3094 303.21893 346.60626Q302.96893 346.8875 302.96893 347.3875L302.96893 347.8094ZM300.0158 348.8094L299.3908 348.41876L303.56268 341.7469L304.17206 342.1375L300.0158 348.8094Z" fill-rule="nonzero"/><path fill="#757575" d="M352.31232 347.21564L348.7342 347.21564L347.93732 349.45L346.78107 349.45L350.03107 340.91876L351.01544 340.91876L354.28107 349.45L353.12482 349.45L352.31232 347.21564ZM349.07794 346.29376L351.9842 346.29376L350.53107 342.3094L349.07794 346.29376ZM356.90607 341.575L356.90607 343.10626L358.07794 343.10626L358.07794 343.95L356.90607 343.95L356.90607 347.8719Q356.90607 348.2625 357.06232 348.45Q357.21857 348.6375 357.59357 348.6375Q357.78107 348.6375 358.1092 348.575L358.1092 349.45Q357.68732 349.575 357.28107 349.575Q356.56232 349.575 356.18732 349.1375Q355.81232 348.6844 355.81232 347.8719L355.81232 343.95L354.65607 343.95L354.65607 343.10626L355.81232 343.10626L355.81232 341.575L356.90607 341.575ZM363.6092 349.45L362.53107 349.45L362.53107 340.45L363.6092 340.45L363.6092 349.45ZM368.06232 349.575Q366.76544 349.575 365.95294 348.73126Q365.15607 347.8719 365.15607 346.45L365.15607 346.2625Q365.15607 345.3094 365.51544 344.575Q365.87482 343.825 366.51544 343.41876Q367.1717 342.9969 367.9217 342.9969Q369.15607 342.9969 369.84357 343.8094Q370.53107 344.6219 370.53107 346.1375L370.53107 346.59064L366.2342 346.59064Q366.26544 347.52814 366.78107 348.10626Q367.31232 348.6844 368.12482 348.6844Q368.68732 348.6844 369.07794 348.45Q369.4842 348.21564 369.7967 347.825L370.45294 348.34064Q369.65607 349.575 368.06232 349.575ZM367.9217 343.8875Q367.26544 343.8875 366.81232 344.3719Q366.37482 344.84064 366.28107 345.7L369.45294 345.7L369.45294 345.6219Q369.40607 344.79376 368.99982 344.34064Q368.6092 343.8875 367.9217 343.8875ZM375.34357 349.45Q375.24982 349.2625 375.18732 348.77814Q374.43732 349.575 373.39044 349.575Q372.45294 349.575 371.84357 349.04376Q371.24982 348.5125 371.24982 347.6844Q371.24982 346.7 371.99982 346.15314Q372.74982 345.60626 374.12482 345.60626L375.1717 345.60626L375.1717 345.10626Q375.1717 344.54376 374.82794 344.21564Q374.49982 343.8719 373.82794 343.8719Q373.24982 343.8719 372.8592 344.16876Q372.46857 344.45 372.46857 344.8719L371.37482 344.8719Q371.37482 344.3875 371.70294 343.95Q372.0467 343.5125 372.62482 343.2625Q373.20294 342.9969 373.89044 342.9969Q374.99982 342.9969 375.6092 343.54376Q376.2342 344.09064 376.26544 345.04376L376.26544 347.96564Q376.26544 348.84064 376.4842 349.35626L376.4842 349.45L375.34357 349.45ZM373.5467 348.6219Q374.06232 348.6219 374.51544 348.35626Q374.96857 348.09064 375.1717 347.66876L375.1717 346.3719L374.32794 346.3719Q372.32794 346.3719 372.32794 347.54376Q372.32794 348.04376 372.6717 348.34064Q373.01544 348.6219 373.5467 348.6219ZM382.12482 347.7625Q382.12482 347.325 381.78107 347.09064Q381.45294 346.84064 380.62482 346.66876Q379.81232 346.4969 379.32794 346.2469Q378.84357 345.9969 378.6092 345.66876Q378.39044 345.325 378.39044 344.85626Q378.39044 344.075 379.0467 343.54376Q379.70294 342.9969 380.7342 342.9969Q381.81232 342.9969 382.46857 343.5594Q383.14044 344.10626 383.14044 344.96564L382.06232 344.96564Q382.06232 344.52814 381.6717 344.21564Q381.2967 343.8875 380.7342 343.8875Q380.14044 343.8875 379.7967 344.15314Q379.46857 344.40314 379.46857 344.8094Q379.46857 345.2 379.78107 345.40314Q380.09357 345.60626 380.90607 345.79376Q381.71857 345.96564 382.21857 346.21564Q382.71857 346.46564 382.95294 346.825Q383.20294 347.1844 383.20294 347.6844Q383.20294 348.54376 382.51544 349.0594Q381.84357 349.575 380.76544 349.575Q379.99982 349.575 379.40607 349.3094Q378.82794 349.02814 378.49982 348.54376Q378.1717 348.0594 378.1717 347.4969L379.24982 347.4969Q379.28107 348.04376 379.68732 348.3719Q380.09357 348.6844 380.76544 348.6844Q381.37482 348.6844 381.74982 348.4344Q382.12482 348.1844 382.12482 347.7625ZM385.90607 341.575L385.90607 343.10626L387.07794 343.10626L387.07794 343.95L385.90607 343.95L385.90607 347.8719Q385.90607 348.2625 386.06232 348.45Q386.21857 348.6375 386.59357 348.6375Q386.78107 348.6375 387.1092 348.575L387.1092 349.45Q386.68732 349.575 386.28107 349.575Q385.56232 349.575 385.18732 349.1375Q384.81232 348.6844 384.81232 347.8719L384.81232 343.95L383.65607 343.95L383.65607 343.10626L384.81232 343.10626L384.81232 341.575L385.90607 341.575ZM395.57794 340.91876L395.57794 341.825L395.37482 341.825Q394.1092 341.85626 393.3592 342.59064Q392.6092 343.3094 392.4842 344.6219Q393.1717 343.85626 394.32794 343.85626Q395.43732 343.85626 396.1092 344.6375Q396.78107 345.41876 396.78107 346.66876Q396.78107 347.98126 396.06232 348.77814Q395.34357 349.575 394.12482 349.575Q392.90607 349.575 392.14044 348.6375Q391.39044 347.6844 391.39044 346.2L391.39044 345.79376Q391.39044 343.4344 392.39044 342.1844Q393.39044 340.9344 395.37482 340.91876L395.57794 340.91876ZM394.15607 344.7625Q393.59357 344.7625 393.12482 345.09064Q392.65607 345.41876 392.46857 345.9344L392.46857 346.325Q392.46857 347.3875 392.93732 348.02814Q393.4217 348.66876 394.12482 348.66876Q394.8592 348.66876 395.28107 348.1375Q395.70294 347.59064 395.70294 346.71564Q395.70294 345.84064 395.28107 345.3094Q394.8592 344.7625 394.15607 344.7625ZM402.57794 340.91876L402.57794 341.825L402.37482 341.825Q401.1092 341.85626 400.3592 342.59064Q399.6092 343.3094 399.4842 344.6219Q400.1717 343.85626 401.32794 343.85626Q402.43732 343.85626 403.1092 344.6375Q403.78107 345.41876 403.78107 346.66876Q403.78107 347.98126 403.06232 348.77814Q402.34357 349.575 401.12482 349.575Q399.90607 349.575 399.14044 348.6375Q398.39044 347.6844 398.39044 346.2L398.39044 345.79376Q398.39044 343.4344 399.39044 342.1844Q400.39044 340.9344 402.37482 340.91876L402.57794 340.91876ZM401.15607 344.7625Q400.59357 344.7625 400.12482 345.09064Q399.65607 345.41876 399.46857 345.9344L399.46857 346.325Q399.46857 347.3875 399.93732 348.02814Q400.4217 348.66876 401.12482 348.66876Q401.8592 348.66876 402.28107 348.1375Q402.70294 347.59064 402.70294 346.71564Q402.70294 345.84064 402.28107 345.3094Q401.8592 344.7625 401.15607 344.7625ZM405.45294 348.8875Q405.45294 348.60626 405.6092 348.41876Q405.78107 348.23126 406.1092 348.23126Q406.45294 348.23126 406.62482 348.41876Q406.7967 348.60626 406.7967 348.8875Q406.7967 349.15314 406.62482 349.34064Q406.45294 349.5125 406.1092 349.5125Q405.78107 349.5125 405.6092 349.34064Q405.45294 349.15314 405.45294 348.8875ZM413.82794 341.52814L410.2967 349.45L409.15607 349.45L412.6717 341.8094L408.06232 341.8094L408.06232 340.91876L413.82794 340.91876L413.82794 341.52814ZM415.21857 342.5594Q415.21857 341.79376 415.70294 341.29376Q416.20294 340.79376 416.96857 340.79376Q417.74982 340.79376 418.2342 341.29376Q418.71857 341.79376 418.71857 342.59064L418.71857 343.0125Q418.71857 343.77814 418.21857 344.27814Q417.7342 344.7625 416.9842 344.7625Q416.21857 344.7625 415.71857 344.27814Q415.21857 343.77814 415.21857 342.96564L415.21857 342.5594ZM416.03107 343.0125Q416.03107 343.46564 416.28107 343.7625Q416.5467 344.0594 416.9842 344.0594Q417.40607 344.0594 417.65607 343.77814Q417.90607 343.48126 417.90607 342.98126L417.90607 342.5594Q417.90607 342.10626 417.65607 341.8094Q417.40607 341.4969 416.96857 341.4969Q416.53107 341.4969 416.28107 341.8094Q416.03107 342.10626 416.03107 342.575L416.03107 343.0125ZM419.37482 347.35626Q419.37482 346.59064 419.8592 346.10626Q420.3592 345.60626 421.12482 345.60626Q421.89044 345.60626 422.37482 346.10626Q422.87482 346.59064 422.87482 347.40314L422.87482 347.8094Q422.87482 348.575 422.39044 349.075Q421.90607 349.575 421.14044 349.575Q420.37482 349.575 419.87482 349.09064Q419.37482 348.59064 419.37482 347.77814L419.37482 347.35626ZM420.18732 347.8094Q420.18732 348.27814 420.43732 348.575Q420.70294 348.8719 421.14044 348.8719Q421.56232 348.8719 421.81232 348.59064Q422.06232 348.29376 422.06232 347.79376L422.06232 347.35626Q422.06232 346.8875 421.7967 346.60626Q421.5467 346.3094 421.12482 346.3094Q420.70294 346.3094 420.43732 346.60626Q420.18732 346.8875 420.18732 347.3875L420.18732 347.8094ZM417.2342 348.8094L416.6092 348.41876L420.78107 341.7469L421.39044 342.1375L417.2342 348.8094Z" fill-rule="nonzero"/><path fill="#757575" d="M491.5932 349.45L490.51508 349.45L490.51508 342.23126L488.32758 343.02814L488.32758 342.04376L491.43695 340.8719L491.5932 340.8719L491.5932 349.45ZM500.39008 345.8094Q500.39008 347.71564 499.73383 348.65314Q499.0932 349.575 497.70258 349.575Q496.3432 349.575 495.68695 348.66876Q495.0307 347.7625 494.99945 345.95L494.99945 344.5125Q494.99945 342.6219 495.64008 341.71564Q496.29633 340.79376 497.68695 340.79376Q499.06195 340.79376 499.7182 341.6844Q500.37445 342.5594 500.39008 344.40314L500.39008 345.8094ZM499.29633 344.325Q499.29633 342.95 498.9057 342.325Q498.5307 341.6844 497.68695 341.6844Q496.85883 341.6844 496.4682 342.325Q496.0932 342.95 496.0932 344.2469L496.0932 345.98126Q496.0932 347.35626 496.48383 348.02814Q496.89008 348.6844 497.70258 348.6844Q498.49945 348.6844 498.89008 348.0594Q499.2807 347.4344 499.29633 346.10626L499.29633 344.325ZM507.39008 345.8094Q507.39008 347.71564 506.73383 348.65314Q506.0932 349.575 504.70258 349.575Q503.3432 349.575 502.68695 348.66876Q502.0307 347.7625 501.99945 345.95L501.99945 344.5125Q501.99945 342.6219 502.64008 341.71564Q503.29633 340.79376 504.68695 340.79376Q506.06195 340.79376 506.7182 341.6844Q507.37445 342.5594 507.39008 344.40314L507.39008 345.8094ZM506.29633 344.325Q506.29633 342.95 505.9057 342.325Q505.5307 341.6844 504.68695 341.6844Q503.85883 341.6844 503.4682 342.325Q503.0932 342.95 503.0932 344.2469L503.0932 345.98126Q503.0932 347.35626 503.48383 348.02814Q503.89008 348.6844 504.70258 348.6844Q505.49945 348.6844 505.89008 348.0594Q506.2807 347.4344 506.29633 346.10626L506.29633 344.325ZM508.93695 342.5594Q508.93695 341.79376 509.42133 341.29376Q509.92133 340.79376 510.68695 340.79376Q511.4682 340.79376 511.95258 341.29376Q512.43695 341.79376 512.43695 342.59064L512.43695 343.0125Q512.43695 343.77814 511.93695 344.27814Q511.45258 344.7625 510.70258 344.7625Q509.93695 344.7625 509.43695 344.27814Q508.93695 343.77814 508.93695 342.96564L508.93695 342.5594ZM509.74945 343.0125Q509.74945 343.46564 509.99945 343.7625Q510.26508 344.0594 510.70258 344.0594Q511.12445 344.0594 511.37445 343.77814Q511.62445 343.48126 511.62445 342.98126L511.62445 342.5594Q511.62445 342.10626 511.37445 341.8094Q511.12445 341.4969 510.68695 341.4969Q510.24945 341.4969 509.99945 341.8094Q509.74945 342.10626 509.74945 342.575L509.74945 343.0125ZM513.0932 347.35626Q513.0932 346.59064 513.5776 346.10626Q514.0776 345.60626 514.8432 345.60626Q515.6088 345.60626 516.0932 346.10626Q516.5932 346.59064 516.5932 347.40314L516.5932 347.8094Q516.5932 348.575 516.1088 349.075Q515.62445 349.575 514.8588 349.575Q514.0932 349.575 513.5932 349.09064Q513.0932 348.59064 513.0932 347.77814L513.0932 347.35626ZM513.9057 347.8094Q513.9057 348.27814 514.1557 348.575Q514.4213 348.8719 514.8588 348.8719Q515.2807 348.8719 515.5307 348.59064Q515.7807 348.29376 515.7807 347.79376L515.7807 347.35626Q515.7807 346.8875 515.5151 346.60626Q515.2651 346.3094 514.8432 346.3094Q514.4213 346.3094 514.1557 346.60626Q513.9057 346.8875 513.9057 347.3875L513.9057 347.8094ZM510.95258 348.8094L510.32758 348.41876L514.49945 341.7469L515.1088 342.1375L510.95258 348.8094Z" fill-rule="nonzero"/></svg>