<svg version="1.1" viewBox="0.0 0.0 600.0 371.0" fill="none" stroke="none" stroke-linecap="square" stroke-miterlimit="10" width="600" height="371" xmlns:xlink="http://www.w3.org/1999/xlink" xmlns="http://www.w3.org/2000/svg"><path fill="#ffffff" d="M0 0L600.0 0L600.0 371.0L0 371.0L0 0Z" fill-rule="nonzero"/><path fill="#ffffff" d="M0 0L600.0 0L600.0 371.0L0 371.0L0 0Z" fill-rule="nonzero"/><path stroke="#333333" stroke-width="1.0" stroke-linecap="butt" d="M64.5 298.5L581.5 298.5" fill-rule="nonzero"/><path stroke="#cccccc" stroke-width="1.0" stroke-linecap="butt" d="M64.5 237.5L581.5 237.5" fill-rule="nonzero"/><path stroke="#cccccc" stroke-width="1.0" stroke-linecap="butt" d="M64.5 175.5L581.5 175.5" fill-rule="nonzero"/><path stroke="#cccccc" stroke-width="1.0" stroke-linecap="butt" d="M64.5 114.5L581.5 114.5" fill-rule="nonzero"/><path stroke="#cccccc" stroke-width="1.0" stroke-linecap="butt" d="M64.5 53.5L581.5 53.5" fill-rule="nonzero"/><clipPath id="id_0"><path d="M64.55 53.416668L581.45 53.416668L581.45 298.45L64.55 298.45L64.55 53.416668Z" clip-rule="nonzero"/></clipPath><path stroke="#000000" stroke-width="0.0" stroke-linecap="butt" stroke-opacity="0.0" clip-path="url(#id_0)" d="M144.0 298.0L106.0 298.0L106.0 193.0C106.0 191.89543 106.89543 191.0 108.0 191.0L142.0 191.0C143.10457 191.0 144.0 191.89543 144.0 193.0Z" fill-rule="nonzero"/><path fill="#4285f4" clip-path="url(#id_0)" d="M144.0 298.0L106.0 298.0L106.0 193.0C106.0 191.89543 106.89543 191.0 108.0 191.0L142.0 191.0C143.10457 191.0 144.0 191.89543 144.0 193.0Z" fill-rule="nonzero"/><path stroke="#000000" stroke-width="0.0" stroke-linecap="butt" stroke-opacity="0.0" clip-path="url(#id_0)" d="M263.0 298.0L225.0 298.0L225.0 227.0C225.0 225.89543 225.89543 225.0 227.0 225.0L261.0 225.0C262.10458 225.0 263.0 225.89543 263.0 227.0Z" fill-rule="nonzero"/><path fill="#4285f4" clip-path="url(#id_0)" d="M263.0 298.0L225.0 298.0L225.0 227.0C225.0 225.89543 225.89543 225.0 227.0 225.0L261.0 225.0C262.10458 225.0 263.0 225.89543 263.0 227.0Z" fill-rule="nonzero"/><path stroke="#000000" stroke-width="0.0" stroke-linecap="butt" stroke-opacity="0.0" clip-path="url(#id_0)" d="M381.0 298.0L343.0 298.0L343.0 224.0C343.0 222.89543 343.89542 222.0 345.0 222.0L379.0 222.0C380.10458 222.0 381.0 222.89543 381.0 224.0Z" fill-rule="nonzero"/><path fill="#4285f4" clip-path="url(#id_0)" d="M381.0 298.0L343.0 298.0L343.0 224.0C343.0 222.89543 343.89542 222.0 345.0 222.0L379.0 222.0C380.10458 222.0 381.0 222.89543 381.0 224.0Z" fill-rule="nonzero"/><path stroke="#000000" stroke-width="0.0" stroke-linecap="butt" stroke-opacity="0.0" clip-path="url(#id_0)" d="M500.0 298.0L462.0 298.0L462.0 264.0C462.0 262.89542 462.89542 262.0 464.0 262.0L498.0 262.0C499.10458 262.0 500.0 262.89542 500.0 264.0Z" fill-rule="nonzero"/><path fill="#4285f4" clip-path="url(#id_0)" d="M500.0 298.0L462.0 298.0L462.0 264.0C462.0 262.89542 462.89542 262.0 464.0 262.0L498.0 262.0C499.10458 262.0 500.0 262.89542 500.0 264.0Z" fill-rule="nonzero"/><path stroke="#000000" stroke-width="0.0" stroke-linecap="butt" stroke-opacity="0.0" clip-path="url(#id_0)" d="M183.0 298.0L145.0 298.0L145.0 48.0C145.0 46.89543 145.89543 46.0 147.0 46.0L181.0 46.0C182.10457 46.0 183.0 46.89543 183.0 48.0Z" fill-rule="nonzero"/><path fill="#db4437" clip-path="url(#id_0)" d="M183.0 298.0L145.0 298.0L145.0 48.0C145.0 46.89543 145.89543 46.0 147.0 46.0L181.0 46.0C182.10457 46.0 183.0 46.89543 183.0 48.0Z" fill-rule="nonzero"/><path stroke="#000000" stroke-width="0.0" stroke-linecap="butt" stroke-opacity="0.0" clip-path="url(#id_0)" d="M302.0 298.0L264.0 298.0L264.0 190.0C264.0 188.89543 264.89542 188.0 266.0 188.0L300.0 188.0C301.10458 188.0 302.0 188.89543 302.0 190.0Z" fill-rule="nonzero"/><path fill="#db4437" clip-path="url(#id_0)" d="M302.0 298.0L264.0 298.0L264.0 190.0C264.0 188.89543 264.89542 188.0 266.0 188.0L300.0 188.0C301.10458 188.0 302.0 188.89543 302.0 190.0Z" fill-rule="nonzero"/><path stroke="#000000" stroke-width="0.0" stroke-linecap="butt" stroke-opacity="0.0" clip-path="url(#id_0)" d="M420.0 298.0L382.0 298.0L382.0 180.0C382.0 178.89543 382.89542 178.0 384.0 178.0L418.0 178.0C419.10458 178.0 420.0 178.89543 420.0 180.0Z" fill-rule="nonzero"/><path fill="#db4437" clip-path="url(#id_0)" d="M420.0 298.0L382.0 298.0L382.0 180.0C382.0 178.89543 382.89542 178.0 384.0 178.0L418.0 178.0C419.10458 178.0 420.0 178.89543 420.0 180.0Z" fill-rule="nonzero"/><path stroke="#000000" stroke-width="0.0" stroke-linecap="butt" stroke-opacity="0.0" clip-path="url(#id_0)" d="M539.0 298.0L501.0 298.0L501.0 234.0C501.0 232.89543 501.89542 232.0 503.0 232.0L537.0 232.0C538.10455 232.0 539.0 232.89543 539.0 234.0Z" fill-rule="nonzero"/><path fill="#db4437" clip-path="url(#id_0)" d="M539.0 298.0L501.0 298.0L501.0 234.0C501.0 232.89543 501.89542 232.0 503.0 232.0L537.0 232.0C538.10455 232.0 539.0 232.89543 539.0 234.0Z" fill-rule="nonzero"/><path fill="#424242" d="M289.70312 347.21564L286.125 347.21564L285.32812 349.45L284.17188 349.45L287.42188 340.91876L288.40625 340.91876L291.67188 349.45L290.51562 349.45L289.70312 347.21564ZM286.46875 346.29376L289.375 346.29376L287.92188 342.3094L286.46875 346.29376ZM294.90625 347.98126L296.48438 343.10626L297.59375 343.10626L295.3125 349.45L294.48438 349.45L292.1875 343.10626L293.29688 343.10626L294.90625 347.98126ZM301.45312 349.575Q300.15625 349.575 299.34375 348.73126Q298.54688 347.8719 298.54688 346.45L298.54688 346.2625Q298.54688 345.3094 298.90625 344.575Q299.26562 343.825 299.90625 343.41876Q300.5625 342.9969 301.3125 342.9969Q302.54688 342.9969 303.23438 343.8094Q303.92188 344.6219 303.92188 346.1375L303.92188 346.59064L299.625 346.59064Q299.65625 347.52814 300.17188 348.10626Q300.70312 348.6844 301.51562 348.6844Q302.07812 348.6844 302.46875 348.45Q302.875 348.21564 303.1875 347.825L303.84375 348.34064Q303.04688 349.575 301.45312 349.575ZM301.3125 343.8875Q300.65625 343.8875 300.20312 344.3719Q299.76562 344.84064 299.67188 345.7L302.84375 345.7L302.84375 345.6219Q302.79688 344.79376 302.39062 344.34064Q302.0 343.8875 301.3125 343.8875ZM307.89062 344.075Q307.64062 344.04376 307.35938 344.04376Q306.28125 344.04376 305.90625 344.95L305.90625 349.45L304.82812 349.45L304.82812 343.10626L305.875 343.10626L305.89062 343.84064Q306.42188 342.9969 307.40625 342.9969Q307.71875 342.9969 307.89062 343.075L307.89062 344.075ZM312.73438 349.45Q312.64062 349.2625 312.57812 348.77814Q311.82812 349.575 310.78125 349.575Q309.84375 349.575 309.23438 349.04376Q308.64062 348.5125 308.64062 347.6844Q308.64062 346.7 309.39062 346.15314Q310.14062 345.60626 311.51562 345.60626L312.5625 345.60626L312.5625 345.10626Q312.5625 344.54376 312.21875 344.21564Q311.89062 343.8719 311.21875 343.8719Q310.64062 343.8719 310.25 344.16876Q309.85938 344.45 309.85938 344.8719L308.76562 344.8719Q308.76562 344.3875 309.09375 343.95Q309.4375 343.5125 310.01562 343.2625Q310.59375 342.9969 311.28125 342.9969Q312.39062 342.9969 313.0 343.54376Q313.625 344.09064 313.65625 345.04376L313.65625 347.96564Q313.65625 348.84064 313.875 349.35626L313.875 349.45L312.73438 349.45ZM310.9375 348.6219Q311.45312 348.6219 311.90625 348.35626Q312.35938 348.09064 312.5625 347.66876L312.5625 346.3719L311.71875 346.3719Q309.71875 346.3719 309.71875 347.54376Q309.71875 348.04376 310.0625 348.34064Q310.40625 348.6219 310.9375 348.6219ZM315.5625 346.23126Q315.5625 344.7469 316.25 343.8719Q316.9375 342.9969 318.0625 342.9969Q319.21875 342.9969 319.875 343.8094L319.92188 343.10626L320.92188 343.10626L320.92188 349.29376Q320.92188 350.52814 320.1875 351.23126Q319.45312 351.95 318.23438 351.95Q317.54688 351.95 316.89062 351.65314Q316.23438 351.35626 315.89062 350.85626L316.45312 350.2Q317.14062 351.0594 318.15625 351.0594Q318.9375 351.0594 319.375 350.60626Q319.82812 350.16876 319.82812 349.35626L319.82812 348.8094Q319.17188 349.575 318.04688 349.575Q316.9375 349.575 316.25 348.6844Q315.5625 347.77814 315.5625 346.23126ZM316.65625 346.35626Q316.65625 347.41876 317.09375 348.04376Q317.53125 348.65314 318.32812 348.65314Q319.34375 348.65314 319.82812 347.71564L319.82812 344.825Q319.32812 343.91876 318.32812 343.91876Q317.54688 343.91876 317.09375 344.52814Q316.65625 345.1375 316.65625 346.35626ZM325.45312 349.575Q324.15625 349.575 323.34375 348.73126Q322.54688 347.8719 322.54688 346.45L322.54688 346.2625Q322.54688 345.3094 322.90625 344.575Q323.26562 343.825 323.90625 343.41876Q324.5625 342.9969 325.3125 342.9969Q326.54688 342.9969 327.23438 343.8094Q327.92188 344.6219 327.92188 346.1375L327.92188 346.59064L323.625 346.59064Q323.65625 347.52814 324.17188 348.10626Q324.70312 348.6844 325.51562 348.6844Q326.07812 348.6844 326.46875 348.45Q326.875 348.21564 327.1875 347.825L327.84375 348.34064Q327.04688 349.575 325.45312 349.575ZM325.3125 343.8875Q324.65625 343.8875 324.20312 344.3719Q323.76562 344.84064 323.67188 345.7L326.84375 345.7L326.84375 345.6219Q326.79688 344.79376 326.39062 344.34064Q326.0 343.8875 325.3125 343.8875ZM333.10938 346.10626L333.10938 349.45L331.98438 349.45L331.98438 340.91876L335.14062 340.91876Q336.53125 340.91876 337.32812 341.6375Q338.125 342.34064 338.125 343.52814Q338.125 344.7625 337.34375 345.4344Q336.57812 346.10626 335.125 346.10626L333.10938 346.10626ZM333.10938 345.1844L335.14062 345.1844Q336.04688 345.1844 336.51562 344.7625Q337.0 344.34064 337.0 343.54376Q337.0 342.77814 336.51562 342.325Q336.04688 341.85626 335.20312 341.84064L333.10938 341.84064L333.10938 345.1844ZM339.78125 345.98126Q339.78125 344.66876 340.125 343.45Q340.48438 342.23126 341.1875 341.23126Q341.89062 340.23126 342.65625 339.825L342.875 340.54376Q342.01562 341.2 341.46875 342.54376Q340.92188 343.8875 340.875 345.5594L340.85938 346.0594Q340.85938 348.325 341.6875 349.98126Q342.1875 350.98126 342.875 351.54376L342.65625 352.2Q341.875 351.77814 341.15625 350.7469Q339.78125 348.7625 339.78125 345.98126ZM345.29688 341.575L345.29688 343.10626L346.46875 343.10626L346.46875 343.95L345.29688 343.95L345.29688 347.8719Q345.29688 348.2625 345.45312 348.45Q345.60938 348.6375 345.98438 348.6375Q346.17188 348.6375 346.5 348.575L346.5 349.45Q346.07812 349.575 345.67188 349.575Q344.95312 349.575 344.57812 349.1375Q344.20312 348.6844 344.20312 347.8719L344.20312 343.95L343.04688 343.95L343.04688 343.10626L344.20312 343.10626L344.20312 341.575L345.29688 341.575ZM348.90625 351.02814L348.03125 351.02814L348.03125 340.91876L348.90625 340.91876L348.90625 351.02814ZM357.26562 346.7469Q357.10938 348.09064 356.26562 348.84064Q355.42188 349.575 354.03125 349.575Q352.51562 349.575 351.60938 348.4969Q350.70312 347.40314 350.70312 345.575L350.70312 344.7625Q350.70312 343.575 351.125 342.66876Q351.54688 341.7625 352.32812 341.27814Q353.10938 340.79376 354.125 340.79376Q355.48438 340.79376 356.29688 341.5594Q357.125 342.325 357.26562 343.65314L356.14062 343.65314Q355.98438 342.6375 355.5 342.1844Q355.01562 341.73126 354.125 341.73126Q353.04688 341.73126 352.4375 342.52814Q351.82812 343.325 351.82812 344.79376L351.82812 345.6219Q351.82812 347.0125 352.40625 347.84064Q352.98438 348.65314 354.03125 348.65314Q354.96875 348.65314 355.46875 348.23126Q355.96875 347.79376 356.14062 346.7469L357.26562 346.7469ZM361.32812 346.04376Q361.32812 347.35626 360.98438 348.5594Q360.64062 349.7469 359.92188 350.7625Q359.21875 351.77814 358.45312 352.2L358.21875 351.54376Q359.125 350.85626 359.67188 349.40314Q360.21875 347.9344 360.23438 346.16876L360.23438 345.98126Q360.23438 344.7469 359.96875 343.6844Q359.71875 342.6219 359.25 341.79376Q358.79688 340.95 358.21875 340.48126L358.45312 339.825Q359.21875 340.2469 359.92188 341.2469Q360.625 342.2469 360.96875 343.46564Q361.32812 344.66876 361.32812 346.04376Z" fill-rule="nonzero"/><path fill="#757575" d="M31.6125 299.3094Q31.6125 301.21564 30.95625 302.15314Q30.315624 303.075 28.925 303.075Q27.565624 303.075 26.909374 302.16876Q26.253124 301.2625 26.221874 299.45L26.221874 298.0125Q26.221874 296.1219 26.8625 295.21564Q27.51875 294.29376 28.909374 294.29376Q30.284374 294.29376 30.940624 295.1844Q31.596874 296.0594 31.6125 297.90314L31.6125 299.3094ZM30.51875 297.825Q30.51875 296.45 30.128124 295.825Q29.753124 295.1844 28.909374 295.1844Q28.08125 295.1844 27.690624 295.825Q27.315624 296.45 27.315624 297.7469L27.315624 299.48126Q27.315624 300.85626 27.70625 301.52814Q28.1125 302.1844 28.925 302.1844Q29.721874 302.1844 30.1125 301.5594Q30.503124 300.9344 30.51875 299.60626L30.51875 297.825ZM33.39375 302.3875Q33.39375 302.10626 33.55 301.91876Q33.721874 301.73126 34.05 301.73126Q34.39375 301.73126 34.565624 301.91876Q34.7375 302.10626 34.7375 302.3875Q34.7375 302.65314 34.565624 302.84064Q34.39375 303.0125 34.05 303.0125Q33.721874 303.0125 33.55 302.84064Q33.39375 302.65314 33.39375 302.3875ZM41.6125 299.3094Q41.6125 301.21564 40.95625 302.15314Q40.315624 303.075 38.925 303.075Q37.565624 303.075 36.909374 302.16876Q36.253124 301.2625 36.221874 299.45L36.221874 298.0125Q36.221874 296.1219 36.8625 295.21564Q37.51875 294.29376 38.909374 294.29376Q40.284374 294.29376 40.940624 295.1844Q41.596874 296.0594 41.6125 297.90314L41.6125 299.3094ZM40.51875 297.825Q40.51875 296.45 40.128124 295.825Q39.753124 295.1844 38.909374 295.1844Q38.08125 295.1844 37.690624 295.825Q37.315624 296.45 37.315624 297.7469L37.315624 299.48126Q37.315624 300.85626 37.70625 301.52814Q38.1125 302.1844 38.925 302.1844Q39.721874 302.1844 40.1125 301.5594Q40.503124 300.9344 40.51875 299.60626L40.51875 297.825ZM48.6125 299.3094Q48.6125 301.21564 47.95625 302.15314Q47.315624 303.075 45.925 303.075Q44.565624 303.075 43.909374 302.16876Q43.253124 301.2625 43.221874 299.45L43.221874 298.0125Q43.221874 296.1219 43.8625 295.21564Q44.51875 294.29376 45.909374 294.29376Q47.284374 294.29376 47.940624 295.1844Q48.596874 296.0594 48.6125 297.90314L48.6125 299.3094ZM47.51875 297.825Q47.51875 296.45 47.128124 295.825Q46.753124 295.1844 45.909374 295.1844Q45.08125 295.1844 44.690624 295.825Q44.315624 296.45 44.315624 297.7469L44.315624 299.48126Q44.315624 300.85626 44.70625 301.52814Q45.1125 302.1844 45.925 302.1844Q46.721874 302.1844 47.1125 301.5594Q47.503124 300.9344 47.51875 299.60626L47.51875 297.825ZM50.159374 296.0594Q50.159374 295.29376 50.64375 294.79376Q51.14375 294.29376 51.909374 294.29376Q52.690624 294.29376 53.175 294.79376Q53.659374 295.29376 53.659374 296.09064L53.659374 296.5125Q53.659374 297.27814 53.159374 297.77814Q52.675 298.2625 51.925 298.2625Q51.159374 298.2625 50.659374 297.77814Q50.159374 297.27814 50.159374 296.46564L50.159374 296.0594ZM50.971874 296.5125Q50.971874 296.96564 51.221874 297.2625Q51.4875 297.5594 51.925 297.5594Q52.346874 297.5594 52.596874 297.27814Q52.846874 296.98126 52.846874 296.48126L52.846874 296.0594Q52.846874 295.60626 52.596874 295.3094Q52.346874 294.9969 51.909374 294.9969Q51.471874 294.9969 51.221874 295.3094Q50.971874 295.60626 50.971874 296.075L50.971874 296.5125ZM54.315624 300.85626Q54.315624 300.09064 54.8 299.60626Q55.3 299.10626 56.065624 299.10626Q56.83125 299.10626 57.315624 299.60626Q57.815624 300.09064 57.815624 300.90314L57.815624 301.3094Q57.815624 302.075 57.33125 302.575Q56.846874 303.075 56.08125 303.075Q55.315624 303.075 54.815624 302.59064Q54.315624 302.09064 54.315624 301.27814L54.315624 300.85626ZM55.128124 301.3094Q55.128124 301.77814 55.378124 302.075Q55.64375 302.3719 56.08125 302.3719Q56.503124 302.3719 56.753124 302.09064Q57.003124 301.79376 57.003124 301.29376L57.003124 300.85626Q57.003124 300.3875 56.7375 300.10626Q56.4875 299.8094 56.065624 299.8094Q55.64375 299.8094 55.378124 300.10626Q55.128124 300.3875 55.128124 300.8875L55.128124 301.3094ZM52.175 302.3094L51.55 301.91876L55.721874 295.2469L56.33125 295.6375L52.175 302.3094Z" fill-rule="nonzero"/><path fill="#757575" d="M31.846874 241.69167L26.253124 241.69167L26.253124 240.91042L29.20625 237.62917Q29.8625 236.87917 30.1125 236.42604Q30.3625 235.95729 30.3625 235.45729Q30.3625 234.78542 29.95625 234.36354Q29.565624 233.92604 28.878124 233.92604Q28.08125 233.92604 27.628124 234.39479Q27.175 234.84792 27.175 235.67604L26.096874 235.67604Q26.096874 234.48854 26.846874 233.76979Q27.6125 233.03542 28.878124 233.03542Q30.08125 233.03542 30.76875 233.66042Q31.45625 234.28542 31.45625 235.33229Q31.45625 236.58229 29.846874 238.33229L27.565624 240.80104L31.846874 240.80104L31.846874 241.69167ZM33.39375 241.12917Q33.39375 240.84792 33.55 240.66042Q33.721874 240.47292 34.05 240.47292Q34.39375 240.47292 34.565624 240.66042Q34.7375 240.84792 34.7375 241.12917Q34.7375 241.39479 34.565624 241.58229Q34.39375 241.75417 34.05 241.75417Q33.721874 241.75417 33.55 241.58229Q33.39375 241.39479 33.39375 241.12917ZM36.753124 237.41042L37.190624 233.16042L41.565624 233.16042L41.565624 234.16042L38.1125 234.16042L37.846874 236.48854Q38.4875 236.11354 39.284374 236.11354Q40.440624 236.11354 41.128124 236.89479Q41.815624 237.66042 41.815624 238.97292Q41.815624 240.28542 41.096874 241.05104Q40.39375 241.81667 39.1125 241.81667Q37.9875 241.81667 37.26875 241.19167Q36.55 240.55104 36.45625 239.44167L37.471874 239.44167Q37.58125 240.17604 38.003124 240.55104Q38.425 240.92604 39.1125 240.92604Q39.8625 240.92604 40.3 240.41042Q40.7375 239.89479 40.7375 238.98854Q40.7375 238.12917 40.26875 237.61354Q39.8 237.09792 39.01875 237.09792Q38.315624 237.09792 37.909374 237.39479L37.628124 237.62917L36.753124 237.41042ZM48.6125 238.05104Q48.6125 239.95729 47.95625 240.89479Q47.315624 241.81667 45.925 241.81667Q44.565624 241.81667 43.909374 240.91042Q43.253124 240.00417 43.221874 238.19167L43.221874 236.75417Q43.221874 234.86354 43.8625 233.95729Q44.51875 233.03542 45.909374 233.03542Q47.284374 233.03542 47.940624 233.92604Q48.596874 234.80104 48.6125 236.64479L48.6125 238.05104ZM47.51875 236.56667Q47.51875 235.19167 47.128124 234.56667Q46.753124 233.92604 45.909374 233.92604Q45.08125 233.92604 44.690624 234.56667Q44.315624 235.19167 44.315624 236.48854L44.315624 238.22292Q44.315624 239.59792 44.70625 240.26979Q45.1125 240.92604 45.925 240.92604Q46.721874 240.92604 47.1125 240.30104Q47.503124 239.67604 47.51875 238.34792L47.51875 236.56667ZM50.159374 234.80104Q50.159374 234.03542 50.64375 233.53542Q51.14375 233.03542 51.909374 233.03542Q52.690624 233.03542 53.175 233.53542Q53.659374 234.03542 53.659374 234.83229L53.659374 235.25417Q53.659374 236.01979 53.159374 236.51979Q52.675 237.00417 51.925 237.00417Q51.159374 237.00417 50.659374 236.51979Q50.159374 236.01979 50.159374 235.20729L50.159374 234.80104ZM50.971874 235.25417Q50.971874 235.70729 51.221874 236.00417Q51.4875 236.30104 51.925 236.30104Q52.346874 236.30104 52.596874 236.01979Q52.846874 235.72292 52.846874 235.22292L52.846874 234.80104Q52.846874 234.34792 52.596874 234.05104Q52.346874 233.73854 51.909374 233.73854Q51.471874 233.73854 51.221874 234.05104Q50.971874 234.34792 50.971874 234.81667L50.971874 235.25417ZM54.315624 239.59792Q54.315624 238.83229 54.8 238.34792Q55.3 237.84792 56.065624 237.84792Q56.83125 237.84792 57.315624 238.34792Q57.815624 238.83229 57.815624 239.64479L57.815624 240.05104Q57.815624 240.81667 57.33125 241.31667Q56.846874 241.81667 56.08125 241.81667Q55.315624 241.81667 54.815624 241.33229Q54.315624 240.83229 54.315624 240.01979L54.315624 239.59792ZM55.128124 240.05104Q55.128124 240.51979 55.378124 240.81667Q55.64375 241.11354 56.08125 241.11354Q56.503124 241.11354 56.753124 240.83229Q57.003124 240.53542 57.003124 240.03542L57.003124 239.59792Q57.003124 239.12917 56.7375 238.84792Q56.4875 238.55104 56.065624 238.55104Q55.64375 238.55104 55.378124 238.84792Q55.128124 239.12917 55.128124 239.62917L55.128124 240.05104ZM52.175 241.05104L51.55 240.66042L55.721874 233.98854L56.33125 234.37917L52.175 241.05104Z" fill-rule="nonzero"/><path fill="#757575" d="M26.753124 176.15208L27.190624 171.90208L31.565624 171.90208L31.565624 172.90208L28.1125 172.90208L27.846874 175.23021Q28.4875 174.85521 29.284374 174.85521Q30.440624 174.85521 31.128124 175.63646Q31.815624 176.40208 31.815624 177.71458Q31.815624 179.02708 31.096874 179.79271Q30.39375 180.55833 29.1125 180.55833Q27.9875 180.55833 27.26875 179.93333Q26.55 179.29271 26.45625 178.18333L27.471874 178.18333Q27.58125 178.91771 28.003124 179.29271Q28.425 179.66771 29.1125 179.66771Q29.8625 179.66771 30.3 179.15208Q30.7375 178.63646 30.7375 177.73021Q30.7375 176.87083 30.26875 176.35521Q29.8 175.83958 29.01875 175.83958Q28.315624 175.83958 27.909374 176.13646L27.628124 176.37083L26.753124 176.15208ZM33.39375 179.87083Q33.39375 179.58958 33.55 179.40208Q33.721874 179.21458 34.05 179.21458Q34.39375 179.21458 34.565624 179.40208Q34.7375 179.58958 34.7375 179.87083Q34.7375 180.13646 34.565624 180.32396Q34.39375 180.49583 34.05 180.49583Q33.721874 180.49583 33.55 180.32396Q33.39375 180.13646 33.39375 179.87083ZM41.6125 176.79271Q41.6125 178.69896 40.95625 179.63646Q40.315624 180.55833 38.925 180.55833Q37.565624 180.55833 36.909374 179.65208Q36.253124 178.74583 36.221874 176.93333L36.221874 175.49583Q36.221874 173.60521 36.8625 172.69896Q37.51875 171.77708 38.909374 171.77708Q40.284374 171.77708 40.940624 172.66771Q41.596874 173.54271 41.6125 175.38646L41.6125 176.79271ZM40.51875 175.30833Q40.51875 173.93333 40.128124 173.30833Q39.753124 172.66771 38.909374 172.66771Q38.08125 172.66771 37.690624 173.30833Q37.315624 173.93333 37.315624 175.23021L37.315624 176.96458Q37.315624 178.33958 37.70625 179.01146Q38.1125 179.66771 38.925 179.66771Q39.721874 179.66771 40.1125 179.04271Q40.503124 178.41771 40.51875 177.08958L40.51875 175.30833ZM48.6125 176.79271Q48.6125 178.69896 47.95625 179.63646Q47.315624 180.55833 45.925 180.55833Q44.565624 180.55833 43.909374 179.65208Q43.253124 178.74583 43.221874 176.93333L43.221874 175.49583Q43.221874 173.60521 43.8625 172.69896Q44.51875 171.77708 45.909374 171.77708Q47.284374 171.77708 47.940624 172.66771Q48.596874 173.54271 48.6125 175.38646L48.6125 176.79271ZM47.51875 175.30833Q47.51875 173.93333 47.128124 173.30833Q46.753124 172.66771 45.909374 172.66771Q45.08125 172.66771 44.690624 173.30833Q44.315624 173.93333 44.315624 175.23021L44.315624 176.96458Q44.315624 178.33958 44.70625 179.01146Q45.1125 179.66771 45.925 179.66771Q46.721874 179.66771 47.1125 179.04271Q47.503124 178.41771 47.51875 177.08958L47.51875 175.30833ZM50.159374 173.54271Q50.159374 172.77708 50.64375 172.27708Q51.14375 171.77708 51.909374 171.77708Q52.690624 171.77708 53.175 172.27708Q53.659374 172.77708 53.659374 173.57396L53.659374 173.99583Q53.659374 174.76146 53.159374 175.26146Q52.675 175.74583 51.925 175.74583Q51.159374 175.74583 50.659374 175.26146Q50.159374 174.76146 50.159374 173.94896L50.159374 173.54271ZM50.971874 173.99583Q50.971874 174.44896 51.221874 174.74583Q51.4875 175.04271 51.925 175.04271Q52.346874 175.04271 52.596874 174.76146Q52.846874 174.46458 52.846874 173.96458L52.846874 173.54271Q52.846874 173.08958 52.596874 172.79271Q52.346874 172.48021 51.909374 172.48021Q51.471874 172.48021 51.221874 172.79271Q50.971874 173.08958 50.971874 173.55833L50.971874 173.99583ZM54.315624 178.33958Q54.315624 177.57396 54.8 177.08958Q55.3 176.58958 56.065624 176.58958Q56.83125 176.58958 57.315624 177.08958Q57.815624 177.57396 57.815624 178.38646L57.815624 178.79271Q57.815624 179.55833 57.33125 180.05833Q56.846874 180.55833 56.08125 180.55833Q55.315624 180.55833 54.815624 180.07396Q54.315624 179.57396 54.315624 178.76146L54.315624 178.33958ZM55.128124 178.79271Q55.128124 179.26146 55.378124 179.55833Q55.64375 179.85521 56.08125 179.85521Q56.503124 179.85521 56.753124 179.57396Q57.003124 179.27708 57.003124 178.77708L57.003124 178.33958Q57.003124 177.87083 56.7375 177.58958Q56.4875 177.29271 56.065624 177.29271Q55.64375 177.29271 55.378124 177.58958Q55.128124 177.87083 55.128124 178.37083L55.128124 178.79271ZM52.175 179.79271L51.55 179.40208L55.721874 172.73021L56.33125 173.12083L52.175 179.79271Z" fill-rule="nonzero"/><path fill="#757575" d="M31.76875 111.25313L28.2375 119.175L27.096874 119.175L30.6125 111.53438L26.003124 111.53438L26.003124 110.64375L31.76875 110.64375L31.76875 111.25313ZM33.39375 118.6125Q33.39375 118.33125 33.55 118.14375Q33.721874 117.95625 34.05 117.95625Q34.39375 117.95625 34.565624 118.14375Q34.7375 118.33125 34.7375 118.6125Q34.7375 118.87813 34.565624 119.06563Q34.39375 119.2375 34.05 119.2375Q33.721874 119.2375 33.55 119.06563Q33.39375 118.87813 33.39375 118.6125ZM36.753124 114.89375L37.190624 110.64375L41.565624 110.64375L41.565624 111.64375L38.1125 111.64375L37.846874 113.97188Q38.4875 113.59688 39.284374 113.59688Q40.440624 113.59688 41.128124 114.37813Q41.815624 115.14375 41.815624 116.45625Q41.815624 117.76875 41.096874 118.53438Q40.39375 119.3 39.1125 119.3Q37.9875 119.3 37.26875 118.675Q36.55 118.03438 36.45625 116.925L37.471874 116.925Q37.58125 117.65938 38.003124 118.03438Q38.425 118.40938 39.1125 118.40938Q39.8625 118.40938 40.3 117.89375Q40.7375 117.37813 40.7375 116.47188Q40.7375 115.6125 40.26875 115.09688Q39.8 114.58125 39.01875 114.58125Q38.315624 114.58125 37.909374 114.87813L37.628124 115.1125L36.753124 114.89375ZM48.6125 115.53438Q48.6125 117.44063 47.95625 118.37813Q47.315624 119.3 45.925 119.3Q44.565624 119.3 43.909374 118.39375Q43.253124 117.4875 43.221874 115.675L43.221874 114.2375Q43.221874 112.34688 43.8625 111.44063Q44.51875 110.51875 45.909374 110.51875Q47.284374 110.51875 47.940624 111.40938Q48.596874 112.28438 48.6125 114.12813L48.6125 115.53438ZM47.51875 114.05Q47.51875 112.675 47.128124 112.05Q46.753124 111.40938 45.909374 111.40938Q45.08125 111.40938 44.690624 112.05Q44.315624 112.675 44.315624 113.97188L44.315624 115.70625Q44.315624 117.08125 44.70625 117.75313Q45.1125 118.40938 45.925 118.40938Q46.721874 118.40938 47.1125 117.78438Q47.503124 117.15938 47.51875 115.83125L47.51875 114.05ZM50.159374 112.28438Q50.159374 111.51875 50.64375 111.01875Q51.14375 110.51875 51.909374 110.51875Q52.690624 110.51875 53.175 111.01875Q53.659374 111.51875 53.659374 112.31563L53.659374 112.7375Q53.659374 113.50313 53.159374 114.00313Q52.675 114.4875 51.925 114.4875Q51.159374 114.4875 50.659374 114.00313Q50.159374 113.50313 50.159374 112.69063L50.159374 112.28438ZM50.971874 112.7375Q50.971874 113.19063 51.221874 113.4875Q51.4875 113.78438 51.925 113.78438Q52.346874 113.78438 52.596874 113.50313Q52.846874 113.20625 52.846874 112.70625L52.846874 112.28438Q52.846874 111.83125 52.596874 111.53438Q52.346874 111.22188 51.909374 111.22188Q51.471874 111.22188 51.221874 111.53438Q50.971874 111.83125 50.971874 112.3L50.971874 112.7375ZM54.315624 117.08125Q54.315624 116.31563 54.8 115.83125Q55.3 115.33125 56.065624 115.33125Q56.83125 115.33125 57.315624 115.83125Q57.815624 116.31563 57.815624 117.12813L57.815624 117.53438Q57.815624 118.3 57.33125 118.8Q56.846874 119.3 56.08125 119.3Q55.315624 119.3 54.815624 118.81563Q54.315624 118.31563 54.315624 117.50313L54.315624 117.08125ZM55.128124 117.53438Q55.128124 118.00313 55.378124 118.3Q55.64375 118.59688 56.08125 118.59688Q56.503124 118.59688 56.753124 118.31563Q57.003124 118.01875 57.003124 117.51875L57.003124 117.08125Q57.003124 116.6125 56.7375 116.33125Q56.4875 116.03438 56.065624 116.03438Q55.64375 116.03438 55.378124 116.33125Q55.128124 116.6125 55.128124 117.1125L55.128124 117.53438ZM52.175 118.53438L51.55 118.14375L55.721874 111.47188L56.33125 111.8625L52.175 118.53438Z" fill-rule="nonzero"/><path fill="#757575" d="M22.815624 57.916668L21.7375 57.916668L21.7375 50.697918L19.55 51.494793L19.55 50.510418L22.659374 49.338543L22.815624 49.338543L22.815624 57.916668ZM31.6125 54.276043Q31.6125 56.182293 30.95625 57.119793Q30.315624 58.041668 28.925 58.041668Q27.565624 58.041668 26.909374 57.135418Q26.253124 56.229168 26.221874 54.416668L26.221874 52.979168Q26.221874 51.088543 26.8625 50.182293Q27.51875 49.260418 28.909374 49.260418Q30.284374 49.260418 30.940624 50.151043Q31.596874 51.026043 31.6125 52.869793L31.6125 54.276043ZM30.51875 52.791668Q30.51875 51.416668 30.128124 50.791668Q29.753124 50.151043 28.909374 50.151043Q28.08125 50.151043 27.690624 50.791668Q27.315624 51.416668 27.315624 52.713543L27.315624 54.447918Q27.315624 55.822918 27.70625 56.494793Q28.1125 57.151043 28.925 57.151043Q29.721874 57.151043 30.1125 56.526043Q30.503124 55.901043 30.51875 54.572918L30.51875 52.791668ZM33.39375 57.354168Q33.39375 57.072918 33.55 56.885418Q33.721874 56.697918 34.05 56.697918Q34.39375 56.697918 34.565624 56.885418Q34.7375 57.072918 34.7375 57.354168Q34.7375 57.619793 34.565624 57.807293Q34.39375 57.979168 34.05 57.979168Q33.721874 57.979168 33.55 57.807293Q33.39375 57.619793 33.39375 57.354168ZM41.6125 54.276043Q41.6125 56.182293 40.95625 57.119793Q40.315624 58.041668 38.925 58.041668Q37.565624 58.041668 36.909374 57.135418Q36.253124 56.229168 36.221874 54.416668L36.221874 52.979168Q36.221874 51.088543 36.8625 50.182293Q37.51875 49.260418 38.909374 49.260418Q40.284374 49.260418 40.940624 50.151043Q41.596874 51.026043 41.6125 52.869793L41.6125 54.276043ZM40.51875 52.791668Q40.51875 51.416668 40.128124 50.791668Q39.753124 50.151043 38.909374 50.151043Q38.08125 50.151043 37.690624 50.791668Q37.315624 51.416668 37.315624 52.713543L37.315624 54.447918Q37.315624 55.822918 37.70625 56.494793Q38.1125 57.151043 38.925 57.151043Q39.721874 57.151043 40.1125 56.526043Q40.503124 55.901043 40.51875 54.572918L40.51875 52.791668ZM48.6125 54.276043Q48.6125 56.182293 47.95625 57.119793Q47.315624 58.041668 45.925 58.041668Q44.565624 58.041668 43.909374 57.135418Q43.253124 56.229168 43.221874 54.416668L43.221874 52.979168Q43.221874 51.088543 43.8625 50.182293Q44.51875 49.260418 45.909374 49.260418Q47.284374 49.260418 47.940624 50.151043Q48.596874 51.026043 48.6125 52.869793L48.6125 54.276043ZM47.51875 52.791668Q47.51875 51.416668 47.128124 50.791668Q46.753124 50.151043 45.909374 50.151043Q45.08125 50.151043 44.690624 50.791668Q44.315624 51.416668 44.315624 52.713543L44.315624 54.447918Q44.315624 55.822918 44.70625 56.494793Q45.1125 57.151043 45.925 57.151043Q46.721874 57.151043 47.1125 56.526043Q47.503124 55.901043 47.51875 54.572918L47.51875 52.791668ZM50.159374 51.026043Q50.159374 50.260418 50.64375 49.760418Q51.14375 49.260418 51.909374 49.260418Q52.690624 49.260418 53.175 49.760418Q53.659374 50.260418 53.659374 51.057293L53.659374 51.479168Q53.659374 52.244793 53.159374 52.744793Q52.675 53.229168 51.925 53.229168Q51.159374 53.229168 50.659374 52.744793Q50.159374 52.244793 50.159374 51.432293L50.159374 51.026043ZM50.971874 51.479168Q50.971874 51.932293 51.221874 52.229168Q51.4875 52.526043 51.925 52.526043Q52.346874 52.526043 52.596874 52.244793Q52.846874 51.947918 52.846874 51.447918L52.846874 51.026043Q52.846874 50.572918 52.596874 50.276043Q52.346874 49.963543 51.909374 49.963543Q51.471874 49.963543 51.221874 50.276043Q50.971874 50.572918 50.971874 51.041668L50.971874 51.479168ZM54.315624 55.822918Q54.315624 55.057293 54.8 54.572918Q55.3 54.072918 56.065624 54.072918Q56.83125 54.072918 57.315624 54.572918Q57.815624 55.057293 57.815624 55.869793L57.815624 56.276043Q57.815624 57.041668 57.33125 57.541668Q56.846874 58.041668 56.08125 58.041668Q55.315624 58.041668 54.815624 57.557293Q54.315624 57.057293 54.315624 56.244793L54.315624 55.822918ZM55.128124 56.276043Q55.128124 56.744793 55.378124 57.041668Q55.64375 57.338543 56.08125 57.338543Q56.503124 57.338543 56.753124 57.057293Q57.003124 56.760418 57.003124 56.260418L57.003124 55.822918Q57.003124 55.354168 56.7375 55.072918Q56.4875 54.776043 56.065624 54.776043Q55.64375 54.776043 55.378124 55.072918Q55.128124 55.354168 55.128124 55.854168L55.128124 56.276043ZM52.175 57.276043L51.55 56.885418L55.721874 50.213543L56.33125 50.604168L52.175 57.276043Z" fill-rule="nonzero"/><path fill="#757575" d="M103.96175 316.45L102.83675 316.45L102.83675 307.91876L103.96175 307.91876L103.96175 316.45ZM106.60237 310.10626L106.63362 310.8094Q107.32112 309.9969 108.50862 309.9969Q109.83675 309.9969 110.32112 311.0125Q110.63362 310.5594 111.13362 310.27814Q111.64925 309.9969 112.33675 309.9969Q114.4305 309.9969 114.46175 312.2L114.46175 316.45L113.38362 316.45L113.38362 312.2625Q113.38362 311.59064 113.07112 311.2625Q112.75862 310.91876 112.02425 310.91876Q111.41487 310.91876 111.00862 311.27814Q110.618 311.6375 110.5555 312.2469L110.5555 316.45L109.47737 316.45L109.47737 312.29376Q109.47737 310.91876 108.118 310.91876Q107.0555 310.91876 106.66487 311.825L106.66487 316.45L105.57112 316.45L105.57112 310.10626L106.60237 310.10626ZM121.9305 313.35626Q121.9305 314.79376 121.27425 315.6844Q120.618 316.575 119.47737 316.575Q118.32112 316.575 117.66487 315.84064L117.66487 318.8875L116.58675 318.8875L116.58675 310.10626L117.57112 310.10626L117.618 310.8094Q118.28987 309.9969 119.46175 309.9969Q120.60237 309.9969 121.25862 310.85626Q121.9305 311.71564 121.9305 313.2469L121.9305 313.35626ZM120.85237 313.23126Q120.85237 312.15314 120.38362 311.54376Q119.9305 310.91876 119.13362 310.91876Q118.14925 310.91876 117.66487 311.77814L117.66487 314.8094Q118.14925 315.6844 119.14925 315.6844Q119.9305 315.6844 120.38362 315.075Q120.85237 314.45 120.85237 313.23126ZM124.75862 316.45L123.6805 316.45L123.6805 307.45L124.75862 307.45L124.75862 316.45ZM129.21175 316.575Q127.91487 316.575 127.10237 315.73126Q126.3055 314.8719 126.3055 313.45L126.3055 313.2625Q126.3055 312.3094 126.66487 311.575Q127.02425 310.825 127.66487 310.41876Q128.32112 309.9969 129.07112 309.9969Q130.3055 309.9969 130.993 310.8094Q131.6805 311.6219 131.6805 313.1375L131.6805 313.59064L127.38362 313.59064Q127.41487 314.52814 127.9305 315.10626Q128.46175 315.6844 129.27425 315.6844Q129.83675 315.6844 130.22737 315.45Q130.63362 315.21564 130.94612 314.825L131.60237 315.34064Q130.8055 316.575 129.21175 316.575ZM129.07112 310.8875Q128.41487 310.8875 127.96175 311.3719Q127.52425 311.84064 127.4305 312.7L130.60237 312.7L130.60237 312.6219Q130.5555 311.79376 130.14925 311.34064Q129.75862 310.8875 129.07112 310.8875ZM133.60237 310.10626L133.63362 310.8094Q134.32112 309.9969 135.50862 309.9969Q136.83675 309.9969 137.32112 311.0125Q137.63362 310.5594 138.13362 310.27814Q138.64925 309.9969 139.33675 309.9969Q141.4305 309.9969 141.46175 312.2L141.46175 316.45L140.38362 316.45L140.38362 312.2625Q140.38362 311.59064 140.07112 311.2625Q139.75862 310.91876 139.02425 310.91876Q138.41487 310.91876 138.00862 311.27814Q137.618 311.6375 137.5555 312.2469L137.5555 316.45L136.47737 316.45L136.47737 312.29376Q136.47737 310.91876 135.118 310.91876Q134.0555 310.91876 133.66487 311.825L133.66487 316.45L132.57112 316.45L132.57112 310.10626L133.60237 310.10626ZM146.21175 316.575Q144.91487 316.575 144.10237 315.73126Q143.3055 314.8719 143.3055 313.45L143.3055 313.2625Q143.3055 312.3094 143.66487 311.575Q144.02425 310.825 144.66487 310.41876Q145.32112 309.9969 146.07112 309.9969Q147.3055 309.9969 147.993 310.8094Q148.6805 311.6219 148.6805 313.1375L148.6805 313.59064L144.38362 313.59064Q144.41487 314.52814 144.9305 315.10626Q145.46175 315.6844 146.27425 315.6844Q146.83675 315.6844 147.22737 315.45Q147.63362 315.21564 147.94612 314.825L148.60237 315.34064Q147.8055 316.575 146.21175 316.575ZM146.07112 310.8875Q145.41487 310.8875 144.96175 311.3719Q144.52425 311.84064 144.4305 312.7L147.60237 312.7L147.60237 312.6219Q147.5555 311.79376 147.14925 311.34064Q146.75862 310.8875 146.07112 310.8875ZM150.60237 310.10626L150.63362 310.90314Q151.368 309.9969 152.53987 309.9969Q154.5555 309.9969 154.57112 312.2625L154.57112 316.45L153.47737 316.45L153.47737 312.2469Q153.47737 311.575 153.16487 311.2469Q152.868 310.91876 152.21175 310.91876Q151.6805 310.91876 151.27425 311.2Q150.88362 311.48126 150.66487 311.9344L150.66487 316.45L149.58675 316.45L149.58675 310.10626L150.60237 310.10626ZM158.0555 308.575L158.0555 310.10626L159.22737 310.10626L159.22737 310.95L158.0555 310.95L158.0555 314.8719Q158.0555 315.2625 158.21175 315.45Q158.368 315.6375 158.743 315.6375Q158.9305 315.6375 159.25862 315.575L159.25862 316.45Q158.83675 316.575 158.4305 316.575Q157.71175 316.575 157.33675 316.1375Q156.96175 315.6844 156.96175 314.8719L156.96175 310.95L155.8055 310.95L155.8055 310.10626L156.96175 310.10626L156.96175 308.575L158.0555 308.575ZM164.493 316.45Q164.39925 316.2625 164.33675 315.77814Q163.58675 316.575 162.53987 316.575Q161.60237 316.575 160.993 316.04376Q160.39925 315.5125 160.39925 314.6844Q160.39925 313.7 161.14925 313.15314Q161.89925 312.60626 163.27425 312.60626L164.32112 312.60626L164.32112 312.10626Q164.32112 311.54376 163.97737 311.21564Q163.64925 310.8719 162.97737 310.8719Q162.39925 310.8719 162.00862 311.16876Q161.618 311.45 161.618 311.8719L160.52425 311.8719Q160.52425 311.3875 160.85237 310.95Q161.19612 310.5125 161.77425 310.2625Q162.35237 309.9969 163.03987 309.9969Q164.14925 309.9969 164.75862 310.54376Q165.38362 311.09064 165.41487 312.04376L165.41487 314.96564Q165.41487 315.84064 165.63362 316.35626L165.63362 316.45L164.493 316.45ZM162.69612 315.6219Q163.21175 315.6219 163.66487 315.35626Q164.118 315.09064 164.32112 314.66876L164.32112 313.3719L163.47737 313.3719Q161.47737 313.3719 161.47737 314.54376Q161.47737 315.04376 161.82112 315.34064Q162.16487 315.6219 162.69612 315.6219ZM169.0555 308.575L169.0555 310.10626L170.22737 310.10626L170.22737 310.95L169.0555 310.95L169.0555 314.8719Q169.0555 315.2625 169.21175 315.45Q169.368 315.6375 169.743 315.6375Q169.9305 315.6375 170.25862 315.575L170.25862 316.45Q169.83675 316.575 169.4305 316.575Q168.71175 316.575 168.33675 316.1375Q167.96175 315.6844 167.96175 314.8719L167.96175 310.95L166.8055 310.95L166.8055 310.10626L167.96175 310.10626L167.96175 308.575L169.0555 308.575ZM172.75862 316.45L171.6805 316.45L171.6805 310.10626L172.75862 310.10626L172.75862 316.45ZM171.58675 308.4344Q171.58675 308.16876 171.743 307.98126Q171.91487 307.79376 172.22737 307.79376Q172.53987 307.79376 172.69612 307.98126Q172.868 308.16876 172.868 308.4344Q172.868 308.6844 172.69612 308.8719Q172.53987 309.04376 172.22737 309.04376Q171.91487 309.04376 171.743 308.8719Q171.58675 308.6844 171.58675 308.4344ZM174.28987 313.21564Q174.28987 312.29376 174.64925 311.54376Q175.02425 310.79376 175.6805 310.40314Q176.33675 309.9969 177.16487 309.9969Q178.46175 309.9969 179.25862 310.8875Q180.07112 311.77814 180.07112 313.27814L180.07112 313.35626Q180.07112 314.27814 179.71175 315.0125Q179.35237 315.7469 178.69612 316.16876Q178.03987 316.575 177.1805 316.575Q175.89925 316.575 175.08675 315.6844Q174.28987 314.77814 174.28987 313.29376L174.28987 313.21564ZM175.38362 313.35626Q175.38362 314.40314 175.868 315.04376Q176.368 315.6844 177.1805 315.6844Q178.00862 315.6844 178.493 315.04376Q178.97737 314.3875 178.97737 313.21564Q178.97737 312.1844 178.47737 311.54376Q177.993 310.8875 177.16487 310.8875Q176.368 310.8875 175.868 311.52814Q175.38362 312.15314 175.38362 313.35626ZM182.60237 310.10626L182.63362 310.90314Q183.368 309.9969 184.53987 309.9969Q186.5555 309.9969 186.57112 312.2625L186.57112 316.45L185.47737 316.45L185.47737 312.2469Q185.47737 311.575 185.16487 311.2469Q184.868 310.91876 184.21175 310.91876Q183.6805 310.91876 183.27425 311.2Q182.88362 311.48126 182.66487 311.9344L182.66487 316.45L181.58675 316.45L181.58675 310.10626L182.60237 310.10626Z" fill-rule="nonzero"/><path fill="#757575" d="M222.78934 316.45L221.66434 316.45L221.66434 307.91876L222.78934 307.91876L222.78934 316.45ZM225.42996 310.10626L225.46121 310.90314Q226.19559 309.9969 227.36746 309.9969Q229.38309 309.9969 229.39871 312.2625L229.39871 316.45L228.30496 316.45L228.30496 312.2469Q228.30496 311.575 227.99246 311.2469Q227.69559 310.91876 227.03934 310.91876Q226.50809 310.91876 226.10184 311.2Q225.71121 311.48126 225.49246 311.9344L225.49246 316.45L224.41434 316.45L224.41434 310.10626L225.42996 310.10626ZM232.88309 308.575L232.88309 310.10626L234.05496 310.10626L234.05496 310.95L232.88309 310.95L232.88309 314.8719Q232.88309 315.2625 233.03934 315.45Q233.19559 315.6375 233.57059 315.6375Q233.75809 315.6375 234.08621 315.575L234.08621 316.45Q233.66434 316.575 233.25809 316.575Q232.53934 316.575 232.16434 316.1375Q231.78934 315.6844 231.78934 314.8719L231.78934 310.95L230.63309 310.95L230.63309 310.10626L231.78934 310.10626L231.78934 308.575L232.88309 308.575ZM238.03934 316.575Q236.74246 316.575 235.92996 315.73126Q235.13309 314.8719 235.13309 313.45L235.13309 313.2625Q235.13309 312.3094 235.49246 311.575Q235.85184 310.825 236.49246 310.41876Q237.14871 309.9969 237.89871 309.9969Q239.13309 309.9969 239.82059 310.8094Q240.50809 311.6219 240.50809 313.1375L240.50809 313.59064L236.21121 313.59064Q236.24246 314.52814 236.75809 315.10626Q237.28934 315.6844 238.10184 315.6844Q238.66434 315.6844 239.05496 315.45Q239.46121 315.21564 239.77371 314.825L240.42996 315.34064Q239.63309 316.575 238.03934 316.575ZM237.89871 310.8875Q237.24246 310.8875 236.78934 311.3719Q236.35184 311.84064 236.25809 312.7L239.42996 312.7L239.42996 312.6219Q239.38309 311.79376 238.97684 311.34064Q238.58621 310.8875 237.89871 310.8875ZM244.47684 311.075Q244.22684 311.04376 243.94559 311.04376Q242.86746 311.04376 242.49246 311.95L242.49246 316.45L241.41434 316.45L241.41434 310.10626L242.46121 310.10626L242.47684 310.84064Q243.00809 309.9969 243.99246 309.9969Q244.30496 309.9969 244.47684 310.075L244.47684 311.075ZM245.94559 316.45L245.94559 310.95L244.94559 310.95L244.94559 310.10626L245.94559 310.10626L245.94559 309.46564Q245.94559 308.4344 246.47684 307.8875Q247.02371 307.325 248.02371 307.325Q248.39871 307.325 248.77371 307.41876L248.71121 308.3094Q248.42996 308.2469 248.13309 308.2469Q247.60184 308.2469 247.30496 308.5594Q247.02371 308.8719 247.02371 309.4344L247.02371 310.10626L248.38309 310.10626L248.38309 310.95L247.02371 310.95L247.02371 316.45L245.94559 316.45ZM253.32059 316.45Q253.22684 316.2625 253.16434 315.77814Q252.41434 316.575 251.36746 316.575Q250.42996 316.575 249.82059 316.04376Q249.22684 315.5125 249.22684 314.6844Q249.22684 313.7 249.97684 313.15314Q250.72684 312.60626 252.10184 312.60626L253.14871 312.60626L253.14871 312.10626Q253.14871 311.54376 252.80496 311.21564Q252.47684 310.8719 251.80496 310.8719Q251.22684 310.8719 250.83621 311.16876Q250.44559 311.45 250.44559 311.8719L249.35184 311.8719Q249.35184 311.3875 249.67996 310.95Q250.02371 310.5125 250.60184 310.2625Q251.17996 309.9969 251.86746 309.9969Q252.97684 309.9969 253.58621 310.54376Q254.21121 311.09064 254.24246 312.04376L254.24246 314.96564Q254.24246 315.84064 254.46121 316.35626L254.46121 316.45L253.32059 316.45ZM251.52371 315.6219Q252.03934 315.6219 252.49246 315.35626Q252.94559 315.09064 253.14871 314.66876L253.14871 313.3719L252.30496 313.3719Q250.30496 313.3719 250.30496 314.54376Q250.30496 315.04376 250.64871 315.34064Q250.99246 315.6219 251.52371 315.6219ZM258.9456 315.6844Q259.5237 315.6844 259.9612 315.34064Q260.3987 314.98126 260.4456 314.45L261.47684 314.45Q261.4456 314.9969 261.0862 315.4969Q260.74246 315.98126 260.16434 316.27814Q259.60184 316.575 258.9456 316.575Q257.6487 316.575 256.8831 315.71564Q256.1331 314.84064 256.1331 313.34064L256.1331 313.15314Q256.1331 312.23126 256.4612 311.5125Q256.80496 310.79376 257.42996 310.40314Q258.0706 309.9969 258.9456 309.9969Q260.0081 309.9969 260.7112 310.6375Q261.42996 311.2625 261.47684 312.29376L260.4456 312.29376Q260.3987 311.66876 259.97684 311.27814Q259.55496 310.8875 258.9456 310.8875Q258.11746 310.8875 257.66434 311.48126Q257.2112 312.075 257.2112 313.2L257.2112 313.40314Q257.2112 314.4969 257.66434 315.09064Q258.11746 315.6844 258.9456 315.6844ZM265.03934 316.575Q263.74246 316.575 262.92996 315.73126Q262.1331 314.8719 262.1331 313.45L262.1331 313.2625Q262.1331 312.3094 262.49246 311.575Q262.85184 310.825 263.49246 310.41876Q264.1487 309.9969 264.8987 309.9969Q266.1331 309.9969 266.8206 310.8094Q267.5081 311.6219 267.5081 313.1375L267.5081 313.59064L263.2112 313.59064Q263.24246 314.52814 263.7581 315.10626Q264.28934 315.6844 265.10184 315.6844Q265.66434 315.6844 266.05496 315.45Q266.4612 315.21564 266.7737 314.825L267.42996 315.34064Q266.6331 316.575 265.03934 316.575ZM264.8987 310.8875Q264.24246 310.8875 263.78934 311.3719Q263.35184 311.84064 263.2581 312.7L266.42996 312.7L266.42996 312.6219Q266.3831 311.79376 265.97684 311.34064Q265.5862 310.8875 264.8987 310.8875ZM271.36746 312.98126Q271.36746 311.66876 271.7112 310.45Q272.0706 309.23126 272.7737 308.23126Q273.47684 307.23126 274.24246 306.825L274.4612 307.54376Q273.60184 308.2 273.05496 309.54376Q272.5081 310.8875 272.4612 312.5594L272.4456 313.0594Q272.4456 315.325 273.2737 316.98126Q273.7737 317.98126 274.4612 318.54376L274.24246 319.2Q273.4612 318.77814 272.74246 317.7469Q271.36746 315.7625 271.36746 312.98126ZM276.5862 316.45L275.5081 316.45L275.5081 310.10626L276.5862 310.10626L276.5862 316.45ZM275.41434 308.4344Q275.41434 308.16876 275.5706 307.98126Q275.74246 307.79376 276.05496 307.79376Q276.36746 307.79376 276.5237 307.98126Q276.6956 308.16876 276.6956 308.4344Q276.6956 308.6844 276.5237 308.8719Q276.36746 309.04376 276.05496 309.04376Q275.74246 309.04376 275.5706 308.8719Q275.41434 308.6844 275.41434 308.4344ZM279.42996 310.10626L279.4612 310.90314Q280.1956 309.9969 281.36746 309.9969Q283.3831 309.9969 283.3987 312.2625L283.3987 316.45L282.30496 316.45L282.30496 312.2469Q282.30496 311.575 281.99246 311.2469Q281.6956 310.91876 281.03934 310.91876Q280.5081 310.91876 280.10184 311.2Q279.7112 311.48126 279.49246 311.9344L279.49246 316.45L278.41434 316.45L278.41434 310.10626L279.42996 310.10626ZM290.7581 313.35626Q290.7581 314.79376 290.10184 315.6844Q289.4456 316.575 288.30496 316.575Q287.1487 316.575 286.49246 315.84064L286.49246 318.8875L285.41434 318.8875L285.41434 310.10626L286.3987 310.10626L286.4456 310.8094Q287.11746 309.9969 288.28934 309.9969Q289.42996 309.9969 290.0862 310.85626Q290.7581 311.71564 290.7581 313.2469L290.7581 313.35626ZM289.67996 313.23126Q289.67996 312.15314 289.2112 311.54376Q288.7581 310.91876 287.9612 310.91876Q286.97684 310.91876 286.49246 311.77814L286.49246 314.8094Q286.97684 315.6844 287.97684 315.6844Q288.7581 315.6844 289.2112 315.075Q289.67996 314.45 289.67996 313.23126ZM296.3206 315.825Q295.6956 316.575 294.4612 316.575Q293.4456 316.575 292.91434 315.98126Q292.3831 315.3875 292.3831 314.23126L292.3831 310.10626L293.4612 310.10626L293.4612 314.2Q293.4612 315.65314 294.6331 315.65314Q295.8831 315.65314 296.28934 314.71564L296.28934 310.10626L297.3831 310.10626L297.3831 316.45L296.35184 316.45L296.3206 315.825ZM300.8831 308.575L300.8831 310.10626L302.05496 310.10626L302.05496 310.95L300.8831 310.95L300.8831 314.8719Q300.8831 315.2625 301.03934 315.45Q301.1956 315.6375 301.5706 315.6375Q301.7581 315.6375 302.0862 315.575L302.0862 316.45Q301.66434 316.575 301.2581 316.575Q300.53934 316.575 300.16434 316.1375Q299.78934 315.6844 299.78934 314.8719L299.78934 310.95L298.6331 310.95L298.6331 310.10626L299.78934 310.10626L299.78934 308.575L300.8831 308.575ZM305.91434 313.04376Q305.91434 314.35626 305.5706 315.5594Q305.22684 316.7469 304.5081 317.7625Q303.80496 318.77814 303.03934 319.2L302.80496 318.54376Q303.7112 317.85626 304.2581 316.40314Q304.80496 314.9344 304.8206 313.16876L304.8206 312.98126Q304.8206 311.7469 304.55496 310.6844Q304.30496 309.6219 303.8362 308.79376Q303.3831 307.95 302.80496 307.48126L303.03934 306.825Q303.80496 307.2469 304.5081 308.2469Q305.2112 309.2469 305.55496 310.46564Q305.91434 311.66876 305.91434 313.04376Z" fill-rule="nonzero"/><path fill="#757575" d="M337.6169 316.45L336.4919 316.45L336.4919 307.91876L337.6169 307.91876L337.6169 316.45ZM340.25754 310.10626L340.2888 310.90314Q341.02316 309.9969 342.19504 309.9969Q344.21066 309.9969 344.2263 312.2625L344.2263 316.45L343.13254 316.45L343.13254 312.2469Q343.13254 311.575 342.82004 311.2469Q342.52316 310.91876 341.8669 310.91876Q341.33566 310.91876 340.9294 311.2Q340.5388 311.48126 340.32004 311.9344L340.32004 316.45L339.2419 316.45L339.2419 310.10626L340.25754 310.10626ZM347.71066 308.575L347.71066 310.10626L348.88254 310.10626L348.88254 310.95L347.71066 310.95L347.71066 314.8719Q347.71066 315.2625 347.8669 315.45Q348.02316 315.6375 348.39816 315.6375Q348.58566 315.6375 348.9138 315.575L348.9138 316.45Q348.4919 316.575 348.08566 316.575Q347.3669 316.575 346.9919 316.1375Q346.6169 315.6844 346.6169 314.8719L346.6169 310.95L345.46066 310.95L345.46066 310.10626L346.6169 310.10626L346.6169 308.575L347.71066 308.575ZM352.8669 316.575Q351.57004 316.575 350.75754 315.73126Q349.96066 314.8719 349.96066 313.45L349.96066 313.2625Q349.96066 312.3094 350.32004 311.575Q350.6794 310.825 351.32004 310.41876Q351.9763 309.9969 352.7263 309.9969Q353.96066 309.9969 354.64816 310.8094Q355.33566 311.6219 355.33566 313.1375L355.33566 313.59064L351.0388 313.59064Q351.07004 314.52814 351.58566 315.10626Q352.1169 315.6844 352.9294 315.6844Q353.4919 315.6844 353.88254 315.45Q354.2888 315.21564 354.6013 314.825L355.25754 315.34064Q354.46066 316.575 352.8669 316.575ZM352.7263 310.8875Q352.07004 310.8875 351.6169 311.3719Q351.1794 311.84064 351.08566 312.7L354.25754 312.7L354.25754 312.6219Q354.21066 311.79376 353.8044 311.34064Q353.4138 310.8875 352.7263 310.8875ZM359.3044 311.075Q359.0544 311.04376 358.77316 311.04376Q357.69504 311.04376 357.32004 311.95L357.32004 316.45L356.2419 316.45L356.2419 310.10626L357.2888 310.10626L357.3044 310.84064Q357.83566 309.9969 358.82004 309.9969Q359.13254 309.9969 359.3044 310.075L359.3044 311.075ZM360.77316 316.45L360.77316 310.95L359.77316 310.95L359.77316 310.10626L360.77316 310.10626L360.77316 309.46564Q360.77316 308.4344 361.3044 307.8875Q361.8513 307.325 362.8513 307.325Q363.2263 307.325 363.6013 307.41876L363.5388 308.3094Q363.25754 308.2469 362.96066 308.2469Q362.4294 308.2469 362.13254 308.5594Q361.8513 308.8719 361.8513 309.4344L361.8513 310.10626L363.21066 310.10626L363.21066 310.95L361.8513 310.95L361.8513 316.45L360.77316 316.45ZM368.14816 316.45Q368.0544 316.2625 367.9919 315.77814Q367.2419 316.575 366.19504 316.575Q365.25754 316.575 364.64816 316.04376Q364.0544 315.5125 364.0544 314.6844Q364.0544 313.7 364.8044 313.15314Q365.5544 312.60626 366.9294 312.60626L367.9763 312.60626L367.9763 312.10626Q367.9763 311.54376 367.63254 311.21564Q367.3044 310.8719 366.63254 310.8719Q366.0544 310.8719 365.6638 311.16876Q365.27316 311.45 365.27316 311.8719L364.1794 311.8719Q364.1794 311.3875 364.50754 310.95Q364.8513 310.5125 365.4294 310.2625Q366.00754 309.9969 366.69504 309.9969Q367.8044 309.9969 368.4138 310.54376Q369.0388 311.09064 369.07004 312.04376L369.07004 314.96564Q369.07004 315.84064 369.2888 316.35626L369.2888 316.45L368.14816 316.45ZM366.3513 315.6219Q366.8669 315.6219 367.32004 315.35626Q367.77316 315.09064 367.9763 314.66876L367.9763 313.3719L367.13254 313.3719Q365.13254 313.3719 365.13254 314.54376Q365.13254 315.04376 365.4763 315.34064Q365.82004 315.6219 366.3513 315.6219ZM373.77316 315.6844Q374.3513 315.6844 374.7888 315.34064Q375.2263 314.98126 375.27316 314.45L376.3044 314.45Q376.27316 314.9969 375.9138 315.4969Q375.57004 315.98126 374.9919 316.27814Q374.4294 316.575 373.77316 316.575Q372.4763 316.575 371.71066 315.71564Q370.96066 314.84064 370.96066 313.34064L370.96066 313.15314Q370.96066 312.23126 371.2888 311.5125Q371.63254 310.79376 372.25754 310.40314Q372.89816 309.9969 373.77316 309.9969Q374.83566 309.9969 375.5388 310.6375Q376.25754 311.2625 376.3044 312.29376L375.27316 312.29376Q375.2263 311.66876 374.8044 311.27814Q374.38254 310.8875 373.77316 310.8875Q372.94504 310.8875 372.4919 311.48126Q372.0388 312.075 372.0388 313.2L372.0388 313.40314Q372.0388 314.4969 372.4919 315.09064Q372.94504 315.6844 373.77316 315.6844ZM379.8669 316.575Q378.57004 316.575 377.75754 315.73126Q376.96066 314.8719 376.96066 313.45L376.96066 313.2625Q376.96066 312.3094 377.32004 311.575Q377.6794 310.825 378.32004 310.41876Q378.9763 309.9969 379.7263 309.9969Q380.96066 309.9969 381.64816 310.8094Q382.33566 311.6219 382.33566 313.1375L382.33566 313.59064L378.0388 313.59064Q378.07004 314.52814 378.58566 315.10626Q379.1169 315.6844 379.9294 315.6844Q380.4919 315.6844 380.88254 315.45Q381.2888 315.21564 381.6013 314.825L382.25754 315.34064Q381.46066 316.575 379.8669 316.575ZM379.7263 310.8875Q379.07004 310.8875 378.6169 311.3719Q378.1794 311.84064 378.08566 312.7L381.25754 312.7L381.25754 312.6219Q381.21066 311.79376 380.8044 311.34064Q380.4138 310.8875 379.7263 310.8875ZM386.19504 312.98126Q386.19504 311.66876 386.5388 310.45Q386.89816 309.23126 387.6013 308.23126Q388.3044 307.23126 389.07004 306.825L389.2888 307.54376Q388.4294 308.2 387.88254 309.54376Q387.33566 310.8875 387.2888 312.5594L387.27316 313.0594Q387.27316 315.325 388.1013 316.98126Q388.6013 317.98126 389.2888 318.54376L389.07004 319.2Q388.2888 318.77814 387.57004 317.7469Q386.19504 315.7625 386.19504 312.98126ZM389.94504 313.21564Q389.94504 312.29376 390.3044 311.54376Q390.6794 310.79376 391.33566 310.40314Q391.9919 309.9969 392.82004 309.9969Q394.1169 309.9969 394.9138 310.8875Q395.7263 311.77814 395.7263 313.27814L395.7263 313.35626Q395.7263 314.27814 395.3669 315.0125Q395.00754 315.7469 394.3513 316.16876Q393.69504 316.575 392.83566 316.575Q391.5544 316.575 390.7419 315.6844Q389.94504 314.77814 389.94504 313.29376L389.94504 313.21564ZM391.0388 313.35626Q391.0388 314.40314 391.52316 315.04376Q392.02316 315.6844 392.83566 315.6844Q393.6638 315.6844 394.14816 315.04376Q394.63254 314.3875 394.63254 313.21564Q394.63254 312.1844 394.13254 311.54376Q393.64816 310.8875 392.82004 310.8875Q392.02316 310.8875 391.52316 311.52814Q391.0388 312.15314 391.0388 313.35626ZM401.14816 315.825Q400.52316 316.575 399.2888 316.575Q398.27316 316.575 397.7419 315.98126Q397.21066 315.3875 397.21066 314.23126L397.21066 310.10626L398.2888 310.10626L398.2888 314.2Q398.2888 315.65314 399.46066 315.65314Q400.71066 315.65314 401.1169 314.71564L401.1169 310.10626L402.21066 310.10626L402.21066 316.45L401.1794 316.45L401.14816 315.825ZM405.71066 308.575L405.71066 310.10626L406.88254 310.10626L406.88254 310.95L405.71066 310.95L405.71066 314.8719Q405.71066 315.2625 405.8669 315.45Q406.02316 315.6375 406.39816 315.6375Q406.58566 315.6375 406.9138 315.575L406.9138 316.45Q406.4919 316.575 406.08566 316.575Q405.3669 316.575 404.9919 316.1375Q404.6169 315.6844 404.6169 314.8719L404.6169 310.95L403.46066 310.95L403.46066 310.10626L404.6169 310.10626L404.6169 308.575L405.71066 308.575ZM413.58566 313.35626Q413.58566 314.79376 412.9294 315.6844Q412.27316 316.575 411.13254 316.575Q409.9763 316.575 409.32004 315.84064L409.32004 318.8875L408.2419 318.8875L408.2419 310.10626L409.2263 310.10626L409.27316 310.8094Q409.94504 309.9969 411.1169 309.9969Q412.25754 309.9969 412.9138 310.85626Q413.58566 311.71564 413.58566 313.2469L413.58566 313.35626ZM412.50754 313.23126Q412.50754 312.15314 412.0388 311.54376Q411.58566 310.91876 410.7888 310.91876Q409.8044 310.91876 409.32004 311.77814L409.32004 314.8094Q409.8044 315.6844 410.8044 315.6844Q411.58566 315.6844 412.0388 315.075Q412.50754 314.45 412.50754 313.23126ZM419.14816 315.825Q418.52316 316.575 417.2888 316.575Q416.27316 316.575 415.7419 315.98126Q415.21066 315.3875 415.21066 314.23126L415.21066 310.10626L416.2888 310.10626L416.2888 314.2Q416.2888 315.65314 417.46066 315.65314Q418.71066 315.65314 419.1169 314.71564L419.1169 310.10626L420.21066 310.10626L420.21066 316.45L419.1794 316.45L419.14816 315.825ZM423.71066 308.575L423.71066 310.10626L424.88254 310.10626L424.88254 310.95L423.71066 310.95L423.71066 314.8719Q423.71066 315.2625 423.8669 315.45Q424.02316 315.6375 424.39816 315.6375Q424.58566 315.6375 424.9138 315.575L424.9138 316.45Q424.4919 316.575 424.08566 316.575Q423.3669 316.575 422.9919 316.1375Q422.6169 315.6844 422.6169 314.8719L422.6169 310.95L421.46066 310.95L421.46066 310.10626L422.6169 310.10626L422.6169 308.575L423.71066 308.575ZM428.7419 313.04376Q428.7419 314.35626 428.39816 315.5594Q428.0544 316.7469 427.33566 317.7625Q426.63254 318.77814 425.8669 319.2L425.63254 318.54376Q426.5388 317.85626 427.08566 316.40314Q427.63254 314.9344 427.64816 313.16876L427.64816 312.98126Q427.64816 311.7469 427.38254 310.6844Q427.13254 309.6219 426.6638 308.79376Q426.21066 307.95 425.63254 307.48126L425.8669 306.825Q426.63254 307.2469 427.33566 308.2469Q428.0388 309.2469 428.38254 310.46564Q428.7419 311.66876 428.7419 313.04376Z" fill-rule="nonzero"/><path fill="#757575" d="M480.5539 312.5125L476.85077 312.5125L476.85077 315.52814L481.14764 315.52814L481.14764 316.45L475.72577 316.45L475.72577 307.91876L481.10077 307.91876L481.10077 308.84064L476.85077 308.84064L476.85077 311.59064L480.5539 311.59064L480.5539 312.5125ZM483.58514 310.10626L483.6164 310.90314Q484.35077 309.9969 485.52264 309.9969Q487.53827 309.9969 487.5539 312.2625L487.5539 316.45L486.46014 316.45L486.46014 312.2469Q486.46014 311.575 486.14764 311.2469Q485.85077 310.91876 485.19452 310.91876Q484.66327 310.91876 484.25702 311.2Q483.8664 311.48126 483.64764 311.9344L483.64764 316.45L482.56952 316.45L482.56952 310.10626L483.58514 310.10626ZM492.10077 315.6844Q492.6789 315.6844 493.1164 315.34064Q493.5539 314.98126 493.60077 314.45L494.63202 314.45Q494.60077 314.9969 494.2414 315.4969Q493.89764 315.98126 493.31952 316.27814Q492.75702 316.575 492.10077 316.575Q490.8039 316.575 490.03827 315.71564Q489.28827 314.84064 489.28827 313.34064L489.28827 313.15314Q489.28827 312.23126 489.6164 311.5125Q489.96014 310.79376 490.58514 310.40314Q491.22577 309.9969 492.10077 309.9969Q493.16327 309.9969 493.8664 310.6375Q494.58514 311.2625 494.63202 312.29376L493.60077 312.29376Q493.5539 311.66876 493.13202 311.27814Q492.71014 310.8875 492.10077 310.8875Q491.27264 310.8875 490.81952 311.48126Q490.3664 312.075 490.3664 313.2L490.3664 313.40314Q490.3664 314.4969 490.81952 315.09064Q491.27264 315.6844 492.10077 315.6844ZM496.7414 316.45L495.66327 316.45L495.66327 307.45L496.7414 307.45L496.7414 316.45ZM498.27264 313.21564Q498.27264 312.29376 498.63202 311.54376Q499.00702 310.79376 499.66327 310.40314Q500.31952 309.9969 501.14764 309.9969Q502.44452 309.9969 503.2414 310.8875Q504.0539 311.77814 504.0539 313.27814L504.0539 313.35626Q504.0539 314.27814 503.69452 315.0125Q503.33514 315.7469 502.6789 316.16876Q502.02264 316.575 501.16327 316.575Q499.88202 316.575 499.06952 315.6844Q498.27264 314.77814 498.27264 313.29376L498.27264 313.21564ZM499.3664 313.35626Q499.3664 314.40314 499.85077 315.04376Q500.35077 315.6844 501.16327 315.6844Q501.9914 315.6844 502.47577 315.04376Q502.96014 314.3875 502.96014 313.21564Q502.96014 312.1844 502.46014 311.54376Q501.97577 310.8875 501.14764 310.8875Q500.35077 310.8875 499.85077 311.52814Q499.3664 312.15314 499.3664 313.35626ZM509.25702 314.7625Q509.25702 314.325 508.91327 314.09064Q508.58514 313.84064 507.75702 313.66876Q506.94452 313.4969 506.46014 313.2469Q505.97577 312.9969 505.7414 312.66876Q505.52264 312.325 505.52264 311.85626Q505.52264 311.075 506.1789 310.54376Q506.83514 309.9969 507.8664 309.9969Q508.94452 309.9969 509.60077 310.5594Q510.27264 311.10626 510.27264 311.96564L509.19452 311.96564Q509.19452 311.52814 508.8039 311.21564Q508.4289 310.8875 507.8664 310.8875Q507.27264 310.8875 506.9289 311.15314Q506.60077 311.40314 506.60077 311.8094Q506.60077 312.2 506.91327 312.40314Q507.22577 312.60626 508.03827 312.79376Q508.85077 312.96564 509.35077 313.21564Q509.85077 313.46564 510.08514 313.825Q510.33514 314.1844 510.33514 314.6844Q510.33514 315.54376 509.64764 316.0594Q508.97577 316.575 507.89764 316.575Q507.13202 316.575 506.53827 316.3094Q505.96014 316.02814 505.63202 315.54376Q505.3039 315.0594 505.3039 314.4969L506.38202 314.4969Q506.41327 315.04376 506.81952 315.3719Q507.22577 315.6844 507.89764 315.6844Q508.50702 315.6844 508.88202 315.4344Q509.25702 315.1844 509.25702 314.7625ZM512.7414 316.45L511.66327 316.45L511.66327 310.10626L512.7414 310.10626L512.7414 316.45ZM511.56952 308.4344Q511.56952 308.16876 511.72577 307.98126Q511.89764 307.79376 512.21014 307.79376Q512.52264 307.79376 512.6789 307.98126Q512.85077 308.16876 512.85077 308.4344Q512.85077 308.6844 512.6789 308.8719Q512.52264 309.04376 512.21014 309.04376Q511.89764 309.04376 511.72577 308.8719Q511.56952 308.6844 511.56952 308.4344ZM515.58514 310.10626L515.6164 310.90314Q516.35077 309.9969 517.52264 309.9969Q519.53827 309.9969 519.5539 312.2625L519.5539 316.45L518.46014 316.45L518.46014 312.2469Q518.46014 311.575 518.14764 311.2469Q517.85077 310.91876 517.1945 310.91876Q516.66327 310.91876 516.257 311.2Q515.8664 311.48126 515.64764 311.9344L515.64764 316.45L514.5695 316.45L514.5695 310.10626L515.58514 310.10626ZM521.3039 313.23126Q521.3039 311.7469 521.9914 310.8719Q522.6789 309.9969 523.8039 309.9969Q524.96014 309.9969 525.6164 310.8094L525.66327 310.10626L526.66327 310.10626L526.66327 316.29376Q526.66327 317.52814 525.9289 318.23126Q525.1945 318.95 523.97577 318.95Q523.28827 318.95 522.632 318.65314Q521.97577 318.35626 521.632 317.85626L522.1945 317.2Q522.882 318.0594 523.89764 318.0594Q524.6789 318.0594 525.1164 317.60626Q525.5695 317.16876 525.5695 316.35626L525.5695 315.8094Q524.91327 316.575 523.78827 316.575Q522.6789 316.575 521.9914 315.6844Q521.3039 314.77814 521.3039 313.23126ZM522.39764 313.35626Q522.39764 314.41876 522.83514 315.04376Q523.27264 315.65314 524.0695 315.65314Q525.08514 315.65314 525.5695 314.71564L525.5695 311.825Q525.0695 310.91876 524.0695 310.91876Q523.28827 310.91876 522.83514 311.52814Q522.39764 312.1375 522.39764 313.35626Z" fill-rule="nonzero"/><path fill="#4285f4" d="M163.0 21.05C163.0 20.497715 163.44771 20.05 164.0 20.05L174.0 20.05C174.55229 20.05 175.0 20.497715 175.0 21.05L175.0 31.05C175.0 31.602285 174.55229 32.05 174.0 32.05L164.0 32.05C163.44771 32.05 163.0 31.602285 163.0 31.05Z" fill-rule="nonzero"/><path fill="#757575" d="M185.20312 30.55L184.07812 30.55L184.07812 22.01875L185.20312 22.01875L185.20312 30.55ZM187.84375 24.20625L187.875 25.003124Q188.60938 24.096874 189.78125 24.096874Q191.79688 24.096874 191.8125 26.3625L191.8125 30.55L190.71875 30.55L190.71875 26.346874Q190.71875 25.675 190.40625 25.346874Q190.10938 25.01875 189.45312 25.01875Q188.92188 25.01875 188.51562 25.3Q188.125 25.58125 187.90625 26.034374L187.90625 30.55L186.82812 30.55L186.82812 24.20625L187.84375 24.20625ZM196.35938 29.784374Q196.9375 29.784374 197.375 29.440624Q197.8125 29.08125 197.85938 28.55L198.89062 28.55Q198.85938 29.096874 198.5 29.596874Q198.15625 30.08125 197.57812 30.378124Q197.01562 30.675 196.35938 30.675Q195.0625 30.675 194.29688 29.815624Q193.54688 28.940624 193.54688 27.440624L193.54688 27.253124Q193.54688 26.33125 193.875 25.6125Q194.21875 24.89375 194.84375 24.503124Q195.48438 24.096874 196.35938 24.096874Q197.42188 24.096874 198.125 24.7375Q198.84375 25.3625 198.89062 26.39375L197.85938 26.39375Q197.8125 25.76875 197.39062 25.378124Q196.96875 24.9875 196.35938 24.9875Q195.53125 24.9875 195.07812 25.58125Q194.625 26.175 194.625 27.3L194.625 27.503124Q194.625 28.596874 195.07812 29.190624Q195.53125 29.784374 196.35938 29.784374ZM199.53125 27.315624Q199.53125 26.39375 199.89062 25.64375Q200.26562 24.89375 200.92188 24.503124Q201.57812 24.096874 202.40625 24.096874Q203.70312 24.096874 204.5 24.9875Q205.3125 25.878124 205.3125 27.378124L205.3125 27.45625Q205.3125 28.378124 204.95312 29.1125Q204.59375 29.846874 203.9375 30.26875Q203.28125 30.675 202.42188 30.675Q201.14062 30.675 200.32812 29.784374Q199.53125 28.878124 199.53125 27.39375L199.53125 27.315624ZM200.625 27.45625Q200.625 28.503124 201.10938 29.14375Q201.60938 29.784374 202.42188 29.784374Q203.25 29.784374 203.73438 29.14375Q204.21875 28.4875 204.21875 27.315624Q204.21875 26.284374 203.71875 25.64375Q203.23438 24.9875 202.40625 24.9875Q201.60938 24.9875 201.10938 25.628124Q200.625 26.253124 200.625 27.45625ZM207.84375 24.20625L207.875 25.003124Q208.60938 24.096874 209.78125 24.096874Q211.79688 24.096874 211.8125 26.3625L211.8125 30.55L210.71875 30.55L210.71875 26.346874Q210.71875 25.675 210.40625 25.346874Q210.10938 25.01875 209.45312 25.01875Q208.92188 25.01875 208.51562 25.3Q208.125 25.58125 207.90625 26.034374L207.90625 30.55L206.82812 30.55L206.82812 24.20625L207.84375 24.20625ZM217.51562 28.8625Q217.51562 28.425 217.17188 28.190624Q216.84375 27.940624 216.01562 27.76875Q215.20312 27.596874 214.71875 27.346874Q214.23438 27.096874 214.0 26.76875Q213.78125 26.425 213.78125 25.95625Q213.78125 25.175 214.4375 24.64375Q215.09375 24.096874 216.125 24.096874Q217.20312 24.096874 217.85938 24.659374Q218.53125 25.20625 218.53125 26.065624L217.45312 26.065624Q217.45312 25.628124 217.0625 25.315624Q216.6875 24.9875 216.125 24.9875Q215.53125 24.9875 215.1875 25.253124Q214.85938 25.503124 214.85938 25.909374Q214.85938 26.3 215.17188 26.503124Q215.48438 26.70625 216.29688 26.89375Q217.10938 27.065624 217.60938 27.315624Q218.10938 27.565624 218.34375 27.925Q218.59375 28.284374 218.59375 28.784374Q218.59375 29.64375 217.90625 30.159374Q217.23438 30.675 216.15625 30.675Q215.39062 30.675 214.79688 30.409374Q214.21875 30.128124 213.89062 29.64375Q213.5625 29.159374 213.5625 28.596874L214.64062 28.596874Q214.67188 29.14375 215.07812 29.471874Q215.48438 29.784374 216.15625 29.784374Q216.76562 29.784374 217.14062 29.534374Q217.51562 29.284374 217.51562 28.8625ZM221.0 30.55L219.92188 30.55L219.92188 24.20625L221.0 24.20625L221.0 30.55ZM219.82812 22.534374Q219.82812 22.26875 219.98438 22.08125Q220.15625 21.89375 220.46875 21.89375Q220.78125 21.89375 220.9375 22.08125Q221.10938 22.26875 221.10938 22.534374Q221.10938 22.784374 220.9375 22.971874Q220.78125 23.14375 220.46875 23.14375Q220.15625 23.14375 219.98438 22.971874Q219.82812 22.784374 219.82812 22.534374ZM226.51562 28.8625Q226.51562 28.425 226.17188 28.190624Q225.84375 27.940624 225.01562 27.76875Q224.20312 27.596874 223.71875 27.346874Q223.23438 27.096874 223.0 26.76875Q222.78125 26.425 222.78125 25.95625Q222.78125 25.175 223.4375 24.64375Q224.09375 24.096874 225.125 24.096874Q226.20312 24.096874 226.85938 24.659374Q227.53125 25.20625 227.53125 26.065624L226.45312 26.065624Q226.45312 25.628124 226.0625 25.315624Q225.6875 24.9875 225.125 24.9875Q224.53125 24.9875 224.1875 25.253124Q223.85938 25.503124 223.85938 25.909374Q223.85938 26.3 224.17188 26.503124Q224.48438 26.70625 225.29688 26.89375Q226.10938 27.065624 226.60938 27.315624Q227.10938 27.565624 227.34375 27.925Q227.59375 28.284374 227.59375 28.784374Q227.59375 29.64375 226.90625 30.159374Q226.23438 30.675 225.15625 30.675Q224.39062 30.675 223.79688 30.409374Q223.21875 30.128124 222.89062 29.64375Q222.5625 29.159374 222.5625 28.596874L223.64062 28.596874Q223.67188 29.14375 224.07812 29.471874Q224.48438 29.784374 225.15625 29.784374Q225.76562 29.784374 226.14062 29.534374Q226.51562 29.284374 226.51562 28.8625ZM230.29688 22.675L230.29688 24.20625L231.46875 24.20625L231.46875 25.05L230.29688 25.05L230.29688 28.971874Q230.29688 29.3625 230.45312 29.55Q230.60938 29.7375 230.98438 29.7375Q231.17188 29.7375 231.5 29.675L231.5 30.55Q231.07812 30.675 230.67188 30.675Q229.95312 30.675 229.57812 30.2375Q229.20312 29.784374 229.20312 28.971874L229.20312 25.05L228.04688 25.05L228.04688 24.20625L229.20312 24.20625L229.20312 22.675L230.29688 22.675ZM235.45312 30.675Q234.15625 30.675 233.34375 29.83125Q232.54688 28.971874 232.54688 27.55L232.54688 27.3625Q232.54688 26.409374 232.90625 25.675Q233.26562 24.925 233.90625 24.51875Q234.5625 24.096874 235.3125 24.096874Q236.54688 24.096874 237.23438 24.909374Q237.92188 25.721874 237.92188 27.2375L237.92188 27.690624L233.625 27.690624Q233.65625 28.628124 234.17188 29.20625Q234.70312 29.784374 235.51562 29.784374Q236.07812 29.784374 236.46875 29.55Q236.875 29.315624 237.1875 28.925L237.84375 29.440624Q237.04688 30.675 235.45312 30.675ZM235.3125 24.9875Q234.65625 24.9875 234.20312 25.471874Q233.76562 25.940624 233.67188 26.8L236.84375 26.8L236.84375 26.721874Q236.79688 25.89375 236.39062 25.440624Q236.0 24.9875 235.3125 24.9875ZM239.84375 24.20625L239.875 25.003124Q240.60938 24.096874 241.78125 24.096874Q243.79688 24.096874 243.8125 26.3625L243.8125 30.55L242.71875 30.55L242.71875 26.346874Q242.71875 25.675 242.40625 25.346874Q242.10938 25.01875 241.45312 25.01875Q240.92188 25.01875 240.51562 25.3Q240.125 25.58125 239.90625 26.034374L239.90625 30.55L238.82812 30.55L238.82812 24.20625L239.84375 24.20625ZM247.29688 22.675L247.29688 24.20625L248.46875 24.20625L248.46875 25.05L247.29688 25.05L247.29688 28.971874Q247.29688 29.3625 247.45312 29.55Q247.60938 29.7375 247.98438 29.7375Q248.17188 29.7375 248.5 29.675L248.5 30.55Q248.07812 30.675 247.67188 30.675Q246.95312 30.675 246.57812 30.2375Q246.20312 29.784374 246.20312 28.971874L246.20312 25.05L245.04688 25.05L245.04688 24.20625L246.20312 24.20625L246.20312 22.675L247.29688 22.675ZM253.84375 24.20625L253.875 25.003124Q254.60938 24.096874 255.78125 24.096874Q257.79688 24.096874 257.8125 26.3625L257.8125 30.55L256.71875 30.55L256.71875 26.346874Q256.71875 25.675 256.40625 25.346874Q256.10938 25.01875 255.45312 25.01875Q254.92188 25.01875 254.51562 25.3Q254.125 25.58125 253.90625 26.034374L253.90625 30.55L252.82812 30.55L252.82812 24.20625L253.84375 24.20625ZM263.73438 30.55Q263.64062 30.3625 263.57812 29.878124Q262.82812 30.675 261.78125 30.675Q260.84375 30.675 260.23438 30.14375Q259.64062 29.6125 259.64062 28.784374Q259.64062 27.8 260.39062 27.253124Q261.14062 26.70625 262.51562 26.70625L263.5625 26.70625L263.5625 26.20625Q263.5625 25.64375 263.21875 25.315624Q262.89062 24.971874 262.21875 24.971874Q261.64062 24.971874 261.25 25.26875Q260.85938 25.55 260.85938 25.971874L259.76562 25.971874Q259.76562 25.4875 260.09375 25.05Q260.4375 24.6125 261.01562 24.3625Q261.59375 24.096874 262.28125 24.096874Q263.39062 24.096874 264.0 24.64375Q264.625 25.190624 264.65625 26.14375L264.65625 29.065624Q264.65625 29.940624 264.875 30.45625L264.875 30.55L263.73438 30.55ZM261.9375 29.721874Q262.45312 29.721874 262.90625 29.45625Q263.35938 29.190624 263.5625 28.76875L263.5625 27.471874L262.71875 27.471874Q260.71875 27.471874 260.71875 28.64375Q260.71875 29.14375 261.0625 29.440624Q261.40625 29.721874 261.9375 29.721874ZM267.84375 24.20625L267.875 24.909374Q268.5625 24.096874 269.75 24.096874Q271.07812 24.096874 271.5625 25.1125Q271.875 24.659374 272.375 24.378124Q272.89062 24.096874 273.57812 24.096874Q275.67188 24.096874 275.70312 26.3L275.70312 30.55L274.625 30.55L274.625 26.3625Q274.625 25.690624 274.3125 25.3625Q274.0 25.01875 273.26562 25.01875Q272.65625 25.01875 272.25 25.378124Q271.85938 25.7375 271.79688 26.346874L271.79688 30.55L270.71875 30.55L270.71875 26.39375Q270.71875 25.01875 269.35938 25.01875Q268.29688 25.01875 267.90625 25.925L267.90625 30.55L266.8125 30.55L266.8125 24.20625L267.84375 24.20625ZM280.45312 30.675Q279.15625 30.675 278.34375 29.83125Q277.54688 28.971874 277.54688 27.55L277.54688 27.3625Q277.54688 26.409374 277.90625 25.675Q278.26562 24.925 278.90625 24.51875Q279.5625 24.096874 280.3125 24.096874Q281.54688 24.096874 282.23438 24.909374Q282.92188 25.721874 282.92188 27.2375L282.92188 27.690624L278.625 27.690624Q278.65625 28.628124 279.17188 29.20625Q279.70312 29.784374 280.51562 29.784374Q281.07812 29.784374 281.46875 29.55Q281.875 29.315624 282.1875 28.925L282.84375 29.440624Q282.04688 30.675 280.45312 30.675ZM280.3125 24.9875Q279.65625 24.9875 279.20312 25.471874Q278.76562 25.940624 278.67188 26.8L281.84375 26.8L281.84375 26.721874Q281.79688 25.89375 281.39062 25.440624Q281.0 24.9875 280.3125 24.9875Z" fill-rule="nonzero"/><path fill="#db4437" d="M299.0 21.05C299.0 20.497715 299.44772 20.05 300.0 20.05L310.0 20.05C310.55228 20.05 311.0 20.497715 311.0 21.05L311.0 31.05C311.0 31.602285 310.55228 32.05 310.0 32.05L300.0 32.05C299.44772 32.05 299.0 31.602285 299.0 31.05Z" fill-rule="nonzero"/><path fill="#757575" d="M326.26562 27.846874Q326.10938 29.190624 325.26562 29.940624Q324.42188 30.675 323.03125 30.675Q321.51562 30.675 320.60938 29.596874Q319.70312 28.503124 319.70312 26.675L319.70312 25.8625Q319.70312 24.675 320.125 23.76875Q320.54688 22.8625 321.32812 22.378124Q322.10938 21.89375 323.125 21.89375Q324.48438 21.89375 325.29688 22.659374Q326.125 23.425 326.26562 24.753124L325.14062 24.753124Q324.98438 23.7375 324.5 23.284374Q324.01562 22.83125 323.125 22.83125Q322.04688 22.83125 321.4375 23.628124Q320.82812 24.425 320.82812 25.89375L320.82812 26.721874Q320.82812 28.1125 321.40625 28.940624Q321.98438 29.753124 323.03125 29.753124Q323.96875 29.753124 324.46875 29.33125Q324.96875 28.89375 325.14062 27.846874L326.26562 27.846874ZM327.53125 27.315624Q327.53125 26.39375 327.89062 25.64375Q328.26562 24.89375 328.92188 24.503124Q329.57812 24.096874 330.40625 24.096874Q331.70312 24.096874 332.5 24.9875Q333.3125 25.878124 333.3125 27.378124L333.3125 27.45625Q333.3125 28.378124 332.95312 29.1125Q332.59375 29.846874 331.9375 30.26875Q331.28125 30.675 330.42188 30.675Q329.14062 30.675 328.32812 29.784374Q327.53125 28.878124 327.53125 27.39375L327.53125 27.315624ZM328.625 27.45625Q328.625 28.503124 329.10938 29.14375Q329.60938 29.784374 330.42188 29.784374Q331.25 29.784374 331.73438 29.14375Q332.21875 28.4875 332.21875 27.315624Q332.21875 26.284374 331.71875 25.64375Q331.23438 24.9875 330.40625 24.9875Q329.60938 24.9875 329.10938 25.628124Q328.625 26.253124 328.625 27.45625ZM335.84375 24.20625L335.875 25.003124Q336.60938 24.096874 337.78125 24.096874Q339.79688 24.096874 339.8125 26.3625L339.8125 30.55L338.71875 30.55L338.71875 26.346874Q338.71875 25.675 338.40625 25.346874Q338.10938 25.01875 337.45312 25.01875Q336.92188 25.01875 336.51562 25.3Q336.125 25.58125 335.90625 26.034374L335.90625 30.55L334.82812 30.55L334.82812 24.20625L335.84375 24.20625ZM345.51562 28.8625Q345.51562 28.425 345.17188 28.190624Q344.84375 27.940624 344.01562 27.76875Q343.20312 27.596874 342.71875 27.346874Q342.23438 27.096874 342.0 26.76875Q341.78125 26.425 341.78125 25.95625Q341.78125 25.175 342.4375 24.64375Q343.09375 24.096874 344.125 24.096874Q345.20312 24.096874 345.85938 24.659374Q346.53125 25.20625 346.53125 26.065624L345.45312 26.065624Q345.45312 25.628124 345.0625 25.315624Q344.6875 24.9875 344.125 24.9875Q343.53125 24.9875 343.1875 25.253124Q342.85938 25.503124 342.85938 25.909374Q342.85938 26.3 343.17188 26.503124Q343.48438 26.70625 344.29688 26.89375Q345.10938 27.065624 345.60938 27.315624Q346.10938 27.565624 346.34375 27.925Q346.59375 28.284374 346.59375 28.784374Q346.59375 29.64375 345.90625 30.159374Q345.23438 30.675 344.15625 30.675Q343.39062 30.675 342.79688 30.409374Q342.21875 30.128124 341.89062 29.64375Q341.5625 29.159374 341.5625 28.596874L342.64062 28.596874Q342.67188 29.14375 343.07812 29.471874Q343.48438 29.784374 344.15625 29.784374Q344.76562 29.784374 345.14062 29.534374Q345.51562 29.284374 345.51562 28.8625ZM349.0 30.55L347.92188 30.55L347.92188 24.20625L349.0 24.20625L349.0 30.55ZM347.82812 22.534374Q347.82812 22.26875 347.98438 22.08125Q348.15625 21.89375 348.46875 21.89375Q348.78125 21.89375 348.9375 22.08125Q349.10938 22.26875 349.10938 22.534374Q349.10938 22.784374 348.9375 22.971874Q348.78125 23.14375 348.46875 23.14375Q348.15625 23.14375 347.98438 22.971874Q347.82812 22.784374 347.82812 22.534374ZM354.51562 28.8625Q354.51562 28.425 354.17188 28.190624Q353.84375 27.940624 353.01562 27.76875Q352.20312 27.596874 351.71875 27.346874Q351.23438 27.096874 351.0 26.76875Q350.78125 26.425 350.78125 25.95625Q350.78125 25.175 351.4375 24.64375Q352.09375 24.096874 353.125 24.096874Q354.20312 24.096874 354.85938 24.659374Q355.53125 25.20625 355.53125 26.065624L354.45312 26.065624Q354.45312 25.628124 354.0625 25.315624Q353.6875 24.9875 353.125 24.9875Q352.53125 24.9875 352.1875 25.253124Q351.85938 25.503124 351.85938 25.909374Q351.85938 26.3 352.17188 26.503124Q352.48438 26.70625 353.29688 26.89375Q354.10938 27.065624 354.60938 27.315624Q355.10938 27.565624 355.34375 27.925Q355.59375 28.284374 355.59375 28.784374Q355.59375 29.64375 354.90625 30.159374Q354.23438 30.675 353.15625 30.675Q352.39062 30.675 351.79688 30.409374Q351.21875 30.128124 350.89062 29.64375Q350.5625 29.159374 350.5625 28.596874L351.64062 28.596874Q351.67188 29.14375 352.07812 29.471874Q352.48438 29.784374 353.15625 29.784374Q353.76562 29.784374 354.14062 29.534374Q354.51562 29.284374 354.51562 28.8625ZM358.29688 22.675L358.29688 24.20625L359.46875 24.20625L359.46875 25.05L358.29688 25.05L358.29688 28.971874Q358.29688 29.3625 358.45312 29.55Q358.60938 29.7375 358.98438 29.7375Q359.17188 29.7375 359.5 29.675L359.5 30.55Q359.07812 30.675 358.67188 30.675Q357.95312 30.675 357.57812 30.2375Q357.20312 29.784374 357.20312 28.971874L357.20312 25.05L356.04688 25.05L356.04688 24.20625L357.20312 24.20625L357.20312 22.675L358.29688 22.675ZM363.45312 30.675Q362.15625 30.675 361.34375 29.83125Q360.54688 28.971874 360.54688 27.55L360.54688 27.3625Q360.54688 26.409374 360.90625 25.675Q361.26562 24.925 361.90625 24.51875Q362.5625 24.096874 363.3125 24.096874Q364.54688 24.096874 365.23438 24.909374Q365.92188 25.721874 365.92188 27.2375L365.92188 27.690624L361.625 27.690624Q361.65625 28.628124 362.17188 29.20625Q362.70312 29.784374 363.51562 29.784374Q364.07812 29.784374 364.46875 29.55Q364.875 29.315624 365.1875 28.925L365.84375 29.440624Q365.04688 30.675 363.45312 30.675ZM363.3125 24.9875Q362.65625 24.9875 362.20312 25.471874Q361.76562 25.940624 361.67188 26.8L364.84375 26.8L364.84375 26.721874Q364.79688 25.89375 364.39062 25.440624Q364.0 24.9875 363.3125 24.9875ZM367.84375 24.20625L367.875 25.003124Q368.60938 24.096874 369.78125 24.096874Q371.79688 24.096874 371.8125 26.3625L371.8125 30.55L370.71875 30.55L370.71875 26.346874Q370.71875 25.675 370.40625 25.346874Q370.10938 25.01875 369.45312 25.01875Q368.92188 25.01875 368.51562 25.3Q368.125 25.58125 367.90625 26.034374L367.90625 30.55L366.82812 30.55L366.82812 24.20625L367.84375 24.20625ZM375.29688 22.675L375.29688 24.20625L376.46875 24.20625L376.46875 25.05L375.29688 25.05L375.29688 28.971874Q375.29688 29.3625 375.45312 29.55Q375.60938 29.7375 375.98438 29.7375Q376.17188 29.7375 376.5 29.675L376.5 30.55Q376.07812 30.675 375.67188 30.675Q374.95312 30.675 374.57812 30.2375Q374.20312 29.784374 374.20312 28.971874L374.20312 25.05L373.04688 25.05L373.04688 24.20625L374.20312 24.20625L374.20312 22.675L375.29688 22.675ZM384.73438 30.55Q384.64062 30.3625 384.57812 29.878124Q383.82812 30.675 382.78125 30.675Q381.84375 30.675 381.23438 30.14375Q380.64062 29.6125 380.64062 28.784374Q380.64062 27.8 381.39062 27.253124Q382.14062 26.70625 383.51562 26.70625L384.5625 26.70625L384.5625 26.20625Q384.5625 25.64375 384.21875 25.315624Q383.89062 24.971874 383.21875 24.971874Q382.64062 24.971874 382.25 25.26875Q381.85938 25.55 381.85938 25.971874L380.76562 25.971874Q380.76562 25.4875 381.09375 25.05Q381.4375 24.6125 382.01562 24.3625Q382.59375 24.096874 383.28125 24.096874Q384.39062 24.096874 385.0 24.64375Q385.625 25.190624 385.65625 26.14375L385.65625 29.065624Q385.65625 29.940624 385.875 30.45625L385.875 30.55L384.73438 30.55ZM382.9375 29.721874Q383.45312 29.721874 383.90625 29.45625Q384.35938 29.190624 384.5625 28.76875L384.5625 27.471874L383.71875 27.471874Q381.71875 27.471874 381.71875 28.64375Q381.71875 29.14375 382.0625 29.440624Q382.40625 29.721874 382.9375 29.721874ZM389.0 30.55L387.92188 30.55L387.92188 21.55L389.0 21.55L389.0 30.55ZM392.29688 22.675L392.29688 24.20625L393.46875 24.20625L393.46875 25.05L392.29688 25.05L392.29688 28.971874Q392.29688 29.3625 392.45312 29.55Q392.60938 29.7375 392.98438 29.7375Q393.17188 29.7375 393.5 29.675L393.5 30.55Q393.07812 30.675 392.67188 30.675Q391.95312 30.675 391.57812 30.2375Q391.20312 29.784374 391.20312 28.971874L391.20312 25.05L390.04688 25.05L390.04688 24.20625L391.20312 24.20625L391.20312 22.675L392.29688 22.675ZM397.45312 30.675Q396.15625 30.675 395.34375 29.83125Q394.54688 28.971874 394.54688 27.55L394.54688 27.3625Q394.54688 26.409374 394.90625 25.675Q395.26562 24.925 395.90625 24.51875Q396.5625 24.096874 397.3125 24.096874Q398.54688 24.096874 399.23438 24.909374Q399.92188 25.721874 399.92188 27.2375L399.92188 27.690624L395.625 27.690624Q395.65625 28.628124 396.17188 29.20625Q396.70312 29.784374 397.51562 29.784374Q398.07812 29.784374 398.46875 29.55Q398.875 29.315624 399.1875 28.925L399.84375 29.440624Q399.04688 30.675 397.45312 30.675ZM397.3125 24.9875Q396.65625 24.9875 396.20312 25.471874Q395.76562 25.940624 395.67188 26.8L398.84375 26.8L398.84375 26.721874Q398.79688 25.89375 398.39062 25.440624Q398.0 24.9875 397.3125 24.9875ZM403.89062 25.175Q403.64062 25.14375 403.35938 25.14375Q402.28125 25.14375 401.90625 26.05L401.90625 30.55L400.82812 30.55L400.82812 24.20625L401.875 24.20625L401.89062 24.940624Q402.42188 24.096874 403.40625 24.096874Q403.71875 24.096874 403.89062 24.175L403.89062 25.175ZM405.84375 24.20625L405.875 25.003124Q406.60938 24.096874 407.78125 24.096874Q409.79688 24.096874 409.8125 26.3625L409.8125 30.55L408.71875 30.55L408.71875 26.346874Q408.71875 25.675 408.40625 25.346874Q408.10938 25.01875 407.45312 25.01875Q406.92188 25.01875 406.51562 25.3Q406.125 25.58125 405.90625 26.034374L405.90625 30.55L404.82812 30.55L404.82812 24.20625L405.84375 24.20625ZM415.73438 30.55Q415.64062 30.3625 415.57812 29.878124Q414.82812 30.675 413.78125 30.675Q412.84375 30.675 412.23438 30.14375Q411.64062 29.6125 411.64062 28.784374Q411.64062 27.8 412.39062 27.253124Q413.14062 26.70625 414.51562 26.70625L415.5625 26.70625L415.5625 26.20625Q415.5625 25.64375 415.21875 25.315624Q414.89062 24.971874 414.21875 24.971874Q413.64062 24.971874 413.25 25.26875Q412.85938 25.55 412.85938 25.971874L411.76562 25.971874Q411.76562 25.4875 412.09375 25.05Q412.4375 24.6125 413.01562 24.3625Q413.59375 24.096874 414.28125 24.096874Q415.39062 24.096874 416.0 24.64375Q416.625 25.190624 416.65625 26.14375L416.65625 29.065624Q416.65625 29.940624 416.875 30.45625L416.875 30.55L415.73438 30.55ZM413.9375 29.721874Q414.45312 29.721874 414.90625 29.45625Q415.35938 29.190624 415.5625 28.76875L415.5625 27.471874L414.71875 27.471874Q412.71875 27.471874 412.71875 28.64375Q412.71875 29.14375 413.0625 29.440624Q413.40625 29.721874 413.9375 29.721874ZM420.29688 22.675L420.29688 24.20625L421.46875 24.20625L421.46875 25.05L420.29688 25.05L420.29688 28.971874Q420.29688 29.3625 420.45312 29.55Q420.60938 29.7375 420.98438 29.7375Q421.17188 29.7375 421.5 29.675L421.5 30.55Q421.07812 30.675 420.67188 30.675Q419.95312 30.675 419.57812 30.2375Q419.20312 29.784374 419.20312 28.971874L419.20312 25.05L418.04688 25.05L418.04688 24.20625L419.20312 24.20625L419.20312 22.675L420.29688 22.675ZM424.0 30.55L422.92188 30.55L422.92188 24.20625L424.0 24.20625L424.0 30.55ZM422.82812 22.534374Q422.82812 22.26875 422.98438 22.08125Q423.15625 21.89375 423.46875 21.89375Q423.78125 21.89375 423.9375 22.08125Q424.10938 22.26875 424.10938 22.534374Q424.10938 22.784374 423.9375 22.971874Q423.78125 23.14375 423.46875 23.14375Q423.15625 23.14375 422.98438 22.971874Q422.82812 22.784374 422.82812 22.534374ZM427.90625 29.08125L429.48438 24.20625L430.59375 24.20625L428.3125 30.55L427.48438 30.55L425.1875 24.20625L426.29688 24.20625L427.90625 29.08125ZM434.45312 30.675Q433.15625 30.675 432.34375 29.83125Q431.54688 28.971874 431.54688 27.55L431.54688 27.3625Q431.54688 26.409374 431.90625 25.675Q432.26562 24.925 432.90625 24.51875Q433.5625 24.096874 434.3125 24.096874Q435.54688 24.096874 436.23438 24.909374Q436.92188 25.721874 436.92188 27.2375L436.92188 27.690624L432.625 27.690624Q432.65625 28.628124 433.17188 29.20625Q433.70312 29.784374 434.51562 29.784374Q435.07812 29.784374 435.46875 29.55Q435.875 29.315624 436.1875 28.925L436.84375 29.440624Q436.04688 30.675 434.45312 30.675ZM434.3125 24.9875Q433.65625 24.9875 433.20312 25.471874Q432.76562 25.940624 432.67188 26.8L435.84375 26.8L435.84375 26.721874Q435.79688 25.89375 435.39062 25.440624Q435.0 24.9875 434.3125 24.9875Z" fill-rule="nonzero"/></svg>