<svg version="1.1" viewBox="0.0 0.0 563.0 244.0" fill="none" stroke="none" stroke-linecap="square" stroke-miterlimit="10" width="563" height="244" xmlns:xlink="http://www.w3.org/1999/xlink" xmlns="http://www.w3.org/2000/svg"><path fill="#ffffff" d="M0 0L563.0 0L563.0 244.0L0 244.0L0 0Z" fill-rule="nonzero"/><path stroke="#333333" stroke-width="1.0" stroke-linecap="butt" d="M39.5 210.5L550.5 210.5" fill-rule="nonzero"/><path stroke="#cccccc" stroke-width="1.0" stroke-linecap="butt" d="M39.5 168.5L550.5 168.5" fill-rule="nonzero"/><path stroke="#cccccc" stroke-width="1.0" stroke-linecap="butt" d="M39.5 126.5L550.5 126.5" fill-rule="nonzero"/><path stroke="#cccccc" stroke-width="1.0" stroke-linecap="butt" d="M39.5 84.5L550.5 84.5" fill-rule="nonzero"/><path stroke="#cccccc" stroke-width="1.0" stroke-linecap="butt" d="M39.5 42.5L550.5 42.5" fill-rule="nonzero"/><clipPath id="id_0"><path d="M39.2 42.833332L550.8 42.833332L550.8 210.8L39.2 210.8L39.2 42.833332Z" clip-rule="nonzero"/></clipPath><path stroke="#000000" stroke-width="0.0" stroke-linecap="butt" stroke-opacity="0.0" clip-path="url(#id_0)" d="M118.0 211.0L81.0 211.0L81.0 48.0C81.0 46.89543 81.89543 46.0 83.0 46.0L116.0 46.0C117.10457 46.0 118.0 46.89543 118.0 48.0Z" fill-rule="nonzero"/><path fill="#db4437" clip-path="url(#id_0)" d="M118.0 211.0L81.0 211.0L81.0 48.0C81.0 46.89543 81.89543 46.0 83.0 46.0L116.0 46.0C117.10457 46.0 118.0 46.89543 118.0 48.0Z" fill-rule="nonzero"/><path stroke="#000000" stroke-width="0.0" stroke-linecap="butt" stroke-opacity="0.0" clip-path="url(#id_0)" d="M235.0 211.0L198.0 211.0L198.0 86.0C198.0 84.89543 198.89543 84.0 200.0 84.0L233.0 84.0C234.10457 84.0 235.0 84.89543 235.0 86.0Z" fill-rule="nonzero"/><path fill="#db4437" clip-path="url(#id_0)" d="M235.0 211.0L198.0 211.0L198.0 86.0C198.0 84.89543 198.89543 84.0 200.0 84.0L233.0 84.0C234.10457 84.0 235.0 84.89543 235.0 86.0Z" fill-rule="nonzero"/><path stroke="#000000" stroke-width="0.0" stroke-linecap="butt" stroke-opacity="0.0" clip-path="url(#id_0)" d="M353.0 211.0L316.0 211.0L316.0 97.0C316.0 95.89543 316.89542 95.0 318.0 95.0L351.0 95.0C352.10458 95.0 353.0 95.89543 353.0 97.0Z" fill-rule="nonzero"/><path fill="#db4437" clip-path="url(#id_0)" d="M353.0 211.0L316.0 211.0L316.0 97.0C316.0 95.89543 316.89542 95.0 318.0 95.0L351.0 95.0C352.10458 95.0 353.0 95.89543 353.0 97.0Z" fill-rule="nonzero"/><path stroke="#000000" stroke-width="0.0" stroke-linecap="butt" stroke-opacity="0.0" clip-path="url(#id_0)" d="M470.0 211.0L433.0 211.0L433.0 114.0C433.0 112.89543 433.89542 112.0 435.0 112.0L468.0 112.0C469.10458 112.0 470.0 112.89543 470.0 114.0Z" fill-rule="nonzero"/><path fill="#db4437" clip-path="url(#id_0)" d="M470.0 211.0L433.0 211.0L433.0 114.0C433.0 112.89543 433.89542 112.0 435.0 112.0L468.0 112.0C469.10458 112.0 470.0 112.89543 470.0 114.0Z" fill-rule="nonzero"/><path stroke="#000000" stroke-width="0.0" stroke-linecap="butt" stroke-opacity="0.0" clip-path="url(#id_0)" d="M156.0 211.0L119.0 211.0L119.0 57.0C119.0 55.89543 119.89543 55.0 121.0 55.0L154.0 55.0C155.10457 55.0 156.0 55.89543 156.0 57.0Z" fill-rule="nonzero"/><path fill="#f4b400" clip-path="url(#id_0)" d="M156.0 211.0L119.0 211.0L119.0 57.0C119.0 55.89543 119.89543 55.0 121.0 55.0L154.0 55.0C155.10457 55.0 156.0 55.89543 156.0 57.0Z" fill-rule="nonzero"/><path stroke="#000000" stroke-width="0.0" stroke-linecap="butt" stroke-opacity="0.0" clip-path="url(#id_0)" d="M273.0 211.0L236.0 211.0L236.0 96.0C236.0 94.89543 236.89543 94.0 238.0 94.0L271.0 94.0C272.10458 94.0 273.0 94.89543 273.0 96.0Z" fill-rule="nonzero"/><path fill="#f4b400" clip-path="url(#id_0)" d="M273.0 211.0L236.0 211.0L236.0 96.0C236.0 94.89543 236.89543 94.0 238.0 94.0L271.0 94.0C272.10458 94.0 273.0 94.89543 273.0 96.0Z" fill-rule="nonzero"/><path stroke="#000000" stroke-width="0.0" stroke-linecap="butt" stroke-opacity="0.0" clip-path="url(#id_0)" d="M391.0 211.0L354.0 211.0L354.0 116.0C354.0 114.89543 354.89542 114.0 356.0 114.0L389.0 114.0C390.10458 114.0 391.0 114.89543 391.0 116.0Z" fill-rule="nonzero"/><path fill="#f4b400" clip-path="url(#id_0)" d="M391.0 211.0L354.0 211.0L354.0 116.0C354.0 114.89543 354.89542 114.0 356.0 114.0L389.0 114.0C390.10458 114.0 391.0 114.89543 391.0 116.0Z" fill-rule="nonzero"/><path stroke="#000000" stroke-width="0.0" stroke-linecap="butt" stroke-opacity="0.0" clip-path="url(#id_0)" d="M508.0 211.0L471.0 211.0L471.0 126.0C471.0 124.89543 471.89542 124.0 473.0 124.0L506.0 124.0C507.10458 124.0 508.0 124.89543 508.0 126.0Z" fill-rule="nonzero"/><path fill="#f4b400" clip-path="url(#id_0)" d="M508.0 211.0L471.0 211.0L471.0 126.0C471.0 124.89543 471.89542 124.0 473.0 124.0L506.0 124.0C507.10458 124.0 508.0 124.89543 508.0 126.0Z" fill-rule="nonzero"/><path stroke="#4285f4" stroke-width="2.0" stroke-linecap="butt" clip-path="url(#id_0)" d="M118.586205 91.963585C118.586205 91.963585 196.99234 133.67531 236.1954 150.75192C275.39847 167.82852 314.60153 186.89975 353.8046 194.42325C393.00766 201.94676 471.4138 195.89296 471.4138 195.89296" fill-rule="nonzero"/><path fill="#4285f4" clip-path="url(#id_0)" d="M124.586205 91.963585C124.586205 95.27729 121.89992 97.963585 118.586205 97.963585C115.2725 97.963585 112.586205 95.27729 112.586205 91.963585C112.586205 88.64987 115.2725 85.963585 118.586205 85.963585C121.89992 85.963585 124.586205 88.64987 124.586205 91.963585Z" fill-rule="nonzero"/><path fill="#4285f4" clip-path="url(#id_0)" d="M242.1954 150.75192C242.1954 154.06563 239.50911 156.75192 236.1954 156.75192C232.8817 156.75192 230.1954 154.06563 230.1954 150.75192C230.1954 147.4382 232.8817 144.75192 236.1954 144.75192C239.50911 144.75192 242.1954 147.4382 242.1954 150.75192Z" fill-rule="nonzero"/><path fill="#4285f4" clip-path="url(#id_0)" d="M359.8046 194.42325C359.8046 197.73695 357.11832 200.42325 353.8046 200.42325C350.49088 200.42325 347.8046 197.73695 347.8046 194.42325C347.8046 191.10954 350.49088 188.42325 353.8046 188.42325C357.11832 188.42325 359.8046 191.10954 359.8046 194.42325Z" fill-rule="nonzero"/><path fill="#4285f4" clip-path="url(#id_0)" d="M477.4138 195.89296C477.4138 199.20667 474.7275 201.89296 471.4138 201.89296C468.1001 201.89296 465.4138 199.20667 465.4138 195.89296C465.4138 192.57925 468.1001 189.89296 471.4138 189.89296C474.7275 189.89296 477.4138 192.57925 477.4138 195.89296Z" fill-rule="nonzero"/><path fill="#757575" d="M22.2625 211.65938Q22.2625 213.56563 21.60625 214.50313Q20.965626 215.425 19.575 215.425Q18.215626 215.425 17.559376 214.51875Q16.903126 213.6125 16.871876 211.8L16.871876 210.3625Q16.871876 208.47188 17.5125 207.56563Q18.16875 206.64375 19.559376 206.64375Q20.934376 206.64375 21.590626 207.53438Q22.246876 208.40938 22.2625 210.25313L22.2625 211.65938ZM21.16875 210.175Q21.16875 208.8 20.778126 208.175Q20.403126 207.53438 19.559376 207.53438Q18.73125 207.53438 18.340626 208.175Q17.965626 208.8 17.965626 210.09688L17.965626 211.83125Q17.965626 213.20625 18.35625 213.87813Q18.7625 214.53438 19.575 214.53438Q20.371876 214.53438 20.7625 213.90938Q21.153126 213.28438 21.16875 211.95625L21.16875 210.175ZM24.04375 214.7375Q24.04375 214.45625 24.2 214.26875Q24.371876 214.08125 24.7 214.08125Q25.04375 214.08125 25.215626 214.26875Q25.3875 214.45625 25.3875 214.7375Q25.3875 215.00313 25.215626 215.19063Q25.04375 215.3625 24.7 215.3625Q24.371876 215.3625 24.2 215.19063Q24.04375 215.00313 24.04375 214.7375ZM32.2625 211.65938Q32.2625 213.56563 31.60625 214.50313Q30.965626 215.425 29.575 215.425Q28.215626 215.425 27.559376 214.51875Q26.903126 213.6125 26.871876 211.8L26.871876 210.3625Q26.871876 208.47188 27.5125 207.56563Q28.16875 206.64375 29.559376 206.64375Q30.934376 206.64375 31.590626 207.53438Q32.246876 208.40938 32.2625 210.25313L32.2625 211.65938ZM31.16875 210.175Q31.16875 208.8 30.778126 208.175Q30.403126 207.53438 29.559376 207.53438Q28.73125 207.53438 28.340626 208.175Q27.965626 208.8 27.965626 210.09688L27.965626 211.83125Q27.965626 213.20625 28.35625 213.87813Q28.7625 214.53438 29.575 214.53438Q30.371876 214.53438 30.7625 213.90938Q31.153126 213.28438 31.16875 211.95625L31.16875 210.175Z" fill-rule="nonzero"/><path fill="#757575" d="M22.2625 169.66771Q22.2625 171.57396 21.60625 172.51146Q20.965626 173.43333 19.575 173.43333Q18.215626 173.43333 17.559376 172.52708Q16.903126 171.62083 16.871876 169.80833L16.871876 168.37083Q16.871876 166.48021 17.5125 165.57396Q18.16875 164.65208 19.559376 164.65208Q20.934376 164.65208 21.590626 165.54271Q22.246876 166.41771 22.2625 168.26146L22.2625 169.66771ZM21.16875 168.18333Q21.16875 166.80833 20.778126 166.18333Q20.403126 165.54271 19.559376 165.54271Q18.73125 165.54271 18.340626 166.18333Q17.965626 166.80833 17.965626 168.10521L17.965626 169.83958Q17.965626 171.21458 18.35625 171.88646Q18.7625 172.54271 19.575 172.54271Q20.371876 172.54271 20.7625 171.91771Q21.153126 171.29271 21.16875 169.96458L21.16875 168.18333ZM24.04375 172.74583Q24.04375 172.46458 24.2 172.27708Q24.371876 172.08958 24.7 172.08958Q25.04375 172.08958 25.215626 172.27708Q25.3875 172.46458 25.3875 172.74583Q25.3875 173.01146 25.215626 173.19896Q25.04375 173.37083 24.7 173.37083Q24.371876 173.37083 24.2 173.19896Q24.04375 173.01146 24.04375 172.74583ZM32.496876 173.30833L26.903126 173.30833L26.903126 172.52708L29.85625 169.24583Q30.5125 168.49583 30.7625 168.04271Q31.0125 167.57396 31.0125 167.07396Q31.0125 166.40208 30.60625 165.98021Q30.215626 165.54271 29.528126 165.54271Q28.73125 165.54271 28.278126 166.01146Q27.825 166.46458 27.825 167.29271L26.746876 167.29271Q26.746876 166.10521 27.496876 165.38646Q28.2625 164.65208 29.528126 164.65208Q30.73125 164.65208 31.41875 165.27708Q32.10625 165.90208 32.10625 166.94896Q32.10625 168.19896 30.496876 169.94896L28.215626 172.41771L32.496876 172.41771L32.496876 173.30833Z" fill-rule="nonzero"/><path fill="#757575" d="M22.2625 127.67604Q22.2625 129.58229 21.60625 130.51979Q20.965626 131.44167 19.575 131.44167Q18.215626 131.44167 17.559376 130.53542Q16.903126 129.62917 16.871876 127.816666L16.871876 126.379166Q16.871876 124.48854 17.5125 123.58229Q18.16875 122.660416 19.559376 122.660416Q20.934376 122.660416 21.590626 123.55104Q22.246876 124.42604 22.2625 126.26979L22.2625 127.67604ZM21.16875 126.191666Q21.16875 124.816666 20.778126 124.191666Q20.403126 123.55104 19.559376 123.55104Q18.73125 123.55104 18.340626 124.191666Q17.965626 124.816666 17.965626 126.11354L17.965626 127.847916Q17.965626 129.22292 18.35625 129.89479Q18.7625 130.55104 19.575 130.55104Q20.371876 130.55104 20.7625 129.92604Q21.153126 129.30104 21.16875 127.972916L21.16875 126.191666ZM24.04375 130.75417Q24.04375 130.47292 24.2 130.28542Q24.371876 130.09792 24.7 130.09792Q25.04375 130.09792 25.215626 130.28542Q25.3875 130.47292 25.3875 130.75417Q25.3875 131.01979 25.215626 131.20729Q25.04375 131.37917 24.7 131.37917Q24.371876 131.37917 24.2 131.20729Q24.04375 131.01979 24.04375 130.75417ZM31.48125 128.45729L32.66875 128.45729L32.66875 129.33229L31.48125 129.33229L31.48125 131.31667L30.403126 131.31667L30.403126 129.33229L26.5125 129.33229L26.5125 128.69167L30.325 122.785416L31.48125 122.785416L31.48125 128.45729ZM27.746876 128.45729L30.403126 128.45729L30.403126 124.26979L30.2625 124.504166L27.746876 128.45729Z" fill-rule="nonzero"/><path fill="#757575" d="M22.2625 85.68437Q22.2625 87.59062 21.60625 88.52812Q20.965626 89.45 19.575 89.45Q18.215626 89.45 17.559376 88.54375Q16.903126 87.6375 16.871876 85.825L16.871876 84.3875Q16.871876 82.49687 17.5125 81.59062Q18.16875 80.66875 19.559376 80.66875Q20.934376 80.66875 21.590626 81.55937Q22.246876 82.43437 22.2625 84.27812L22.2625 85.68437ZM21.16875 84.2Q21.16875 82.825 20.778126 82.2Q20.403126 81.55937 19.559376 81.55937Q18.73125 81.55937 18.340626 82.2Q17.965626 82.825 17.965626 84.12187L17.965626 85.85625Q17.965626 87.23125 18.35625 87.90312Q18.7625 88.55937 19.575 88.55937Q20.371876 88.55937 20.7625 87.93437Q21.153126 87.30937 21.16875 85.98125L21.16875 84.2ZM24.04375 88.7625Q24.04375 88.48125 24.2 88.29375Q24.371876 88.10625 24.7 88.10625Q25.04375 88.10625 25.215626 88.29375Q25.3875 88.48125 25.3875 88.7625Q25.3875 89.02812 25.215626 89.21562Q25.04375 89.3875 24.7 89.3875Q24.371876 89.3875 24.2 89.21562Q24.04375 89.02812 24.04375 88.7625ZM31.16875 80.79375L31.16875 81.7L30.965626 81.7Q29.7 81.73125 28.95 82.46562Q28.2 83.18437 28.075 84.49687Q28.7625 83.73125 29.91875 83.73125Q31.028126 83.73125 31.7 84.5125Q32.371876 85.29375 32.371876 86.54375Q32.371876 87.85625 31.653126 88.65312Q30.934376 89.45 29.715626 89.45Q28.496876 89.45 27.73125 88.5125Q26.98125 87.55937 26.98125 86.075L26.98125 85.66875Q26.98125 83.30937 27.98125 82.05937Q28.98125 80.80937 30.965626 80.79375L31.16875 80.79375ZM29.746876 84.6375Q29.184376 84.6375 28.715626 84.96562Q28.246876 85.29375 28.059376 85.80937L28.059376 86.2Q28.059376 87.2625 28.528126 87.90312Q29.0125 88.54375 29.715626 88.54375Q30.45 88.54375 30.871876 88.0125Q31.29375 87.46562 31.29375 86.59062Q31.29375 85.71562 30.871876 85.18437Q30.45 84.6375 29.746876 84.6375Z" fill-rule="nonzero"/><path fill="#757575" d="M22.2625 43.692707Q22.2625 45.598957 21.60625 46.536457Q20.965626 47.458332 19.575 47.458332Q18.215626 47.458332 17.559376 46.552082Q16.903126 45.645832 16.871876 43.833332L16.871876 42.395832Q16.871876 40.505207 17.5125 39.598957Q18.16875 38.677082 19.559376 38.677082Q20.934376 38.677082 21.590626 39.567707Q22.246876 40.442707 22.2625 42.286457L22.2625 43.692707ZM21.16875 42.208332Q21.16875 40.833332 20.778126 40.208332Q20.403126 39.567707 19.559376 39.567707Q18.73125 39.567707 18.340626 40.208332Q17.965626 40.833332 17.965626 42.130207L17.965626 43.864582Q17.965626 45.239582 18.35625 45.911457Q18.7625 46.567707 19.575 46.567707Q20.371876 46.567707 20.7625 45.942707Q21.153126 45.317707 21.16875 43.989582L21.16875 42.208332ZM24.04375 46.770832Q24.04375 46.489582 24.2 46.302082Q24.371876 46.114582 24.7 46.114582Q25.04375 46.114582 25.215626 46.302082Q25.3875 46.489582 25.3875 46.770832Q25.3875 47.036457 25.215626 47.223957Q25.04375 47.395832 24.7 47.395832Q24.371876 47.395832 24.2 47.223957Q24.04375 47.036457 24.04375 46.770832ZM32.090626 41.020832Q32.090626 41.661457 31.746876 42.161457Q31.403126 42.661457 30.840626 42.942707Q31.496876 43.223957 31.8875 43.786457Q32.278126 44.333332 32.278126 45.036457Q32.278126 46.130207 31.528126 46.802082Q30.79375 47.458332 29.575 47.458332Q28.340626 47.458332 27.590626 46.802082Q26.85625 46.130207 26.85625 45.036457Q26.85625 44.333332 27.23125 43.786457Q27.60625 43.223957 28.278126 42.942707Q27.715626 42.661457 27.3875 42.161457Q27.059376 41.661457 27.059376 41.020832Q27.059376 39.942707 27.746876 39.317707Q28.434376 38.677082 29.575 38.677082Q30.7 38.677082 31.3875 39.317707Q32.090626 39.942707 32.090626 41.020832ZM31.2 45.005207Q31.2 44.286457 30.746876 43.848957Q30.29375 43.395832 29.559376 43.395832Q28.825 43.395832 28.371876 43.848957Q27.934376 44.286457 27.934376 45.020832Q27.934376 45.739582 28.371876 46.161457Q28.809376 46.567707 29.575 46.567707Q30.325 46.567707 30.7625 46.145832Q31.2 45.723957 31.2 45.005207ZM29.575 39.567707Q28.934376 39.567707 28.528126 39.973957Q28.1375 40.364582 28.1375 41.052082Q28.1375 41.692707 28.528126 42.098957Q28.91875 42.505207 29.559376 42.505207Q30.215626 42.505207 30.60625 42.098957Q30.996876 41.692707 30.996876 41.052082Q30.996876 40.395832 30.590626 39.989582Q30.184376 39.567707 29.575 39.567707Z" fill-rule="nonzero"/><path fill="#757575" d="M97.773705 228.8L96.086205 228.8L96.086205 222.26875L94.07058 222.89375L94.07058 221.51875L97.60183 220.25313L97.773705 220.25313L97.773705 228.8ZM104.023705 225.83125L100.72683 225.83125L100.72683 224.45625L104.023705 224.45625L104.023705 225.83125ZM105.91433 224.59688L106.41433 220.26875L111.19558 220.26875L111.19558 221.675L107.804955 221.675L107.586205 223.51875Q108.19558 223.19063 108.867455 223.19063Q110.086205 223.19063 110.773705 223.95625Q111.47683 224.70625 111.47683 226.06563Q111.47683 226.89375 111.117455 227.55Q110.773705 228.19063 110.117455 228.56563Q109.47683 228.925 108.586205 228.925Q107.82058 228.925 107.148705 228.6125Q106.492455 228.28438 106.10183 227.72188Q105.72683 227.15938 105.69558 226.425L107.38308 226.425Q107.429955 226.95625 107.742455 227.25313Q108.07058 227.55 108.586205 227.55Q109.16433 227.55 109.461205 227.14375Q109.773705 226.72188 109.773705 225.97188Q109.773705 225.2375 109.41433 224.8625Q109.07058 224.47188 108.41433 224.47188Q107.804955 224.47188 107.429955 224.78438L107.273705 224.94063L105.91433 224.59688ZM117.60183 227.39375L121.336205 227.39375L121.336205 228.8L115.85183 228.8L115.85183 220.26875L117.60183 220.26875L117.60183 227.39375ZM129.85184 224.72188Q129.85184 225.9875 129.39871 226.94063Q128.96121 227.87813 128.13309 228.40938Q127.304955 228.925 126.242455 228.925Q125.179955 228.925 124.336205 228.40938Q123.50808 227.89375 123.054955 226.95625Q122.60183 226.00313 122.586205 224.76875L122.586205 224.34688Q122.586205 223.09688 123.03933 222.14375Q123.492455 221.175 124.32058 220.65938Q125.16433 220.14375 126.22683 220.14375Q127.28933 220.14375 128.11746 220.65938Q128.94559 221.175 129.39871 222.14375Q129.85184 223.09688 129.85184 224.34688L129.85184 224.72188ZM128.07059 224.34688Q128.07059 223.00313 127.586205 222.3Q127.117455 221.59688 126.22683 221.59688Q125.336205 221.59688 124.85183 222.3Q124.38308 222.9875 124.367455 224.31563L124.367455 224.72188Q124.367455 226.03438 124.85183 226.75313Q125.336205 227.47188 126.242455 227.47188Q127.117455 227.47188 127.586205 226.78438Q128.07059 226.08125 128.07059 224.75313L128.07059 224.34688ZM137.53934 225.95625Q137.44559 227.33125 136.52371 228.12813Q135.61746 228.925 134.11746 228.925Q132.47684 228.925 131.52371 227.81563Q130.58621 226.70625 130.58621 224.78438L130.58621 224.25313Q130.58621 223.03438 131.02371 222.09688Q131.46121 221.15938 132.25809 220.65938Q133.07059 220.14375 134.13309 220.14375Q135.61746 220.14375 136.50809 220.94063Q137.41434 221.7375 137.55496 223.15938L135.80496 223.15938Q135.74246 222.33125 135.33621 221.97188Q134.94559 221.59688 134.13309 221.59688Q133.25809 221.59688 132.82059 222.22188Q132.38309 222.84688 132.36746 224.175L132.36746 224.81563Q132.36746 226.20625 132.78934 226.84688Q133.21121 227.4875 134.11746 227.4875Q134.92996 227.4875 135.32059 227.1125Q135.72684 226.7375 135.78934 225.95625L137.53934 225.95625ZM142.16434 227.05Q142.16434 226.7375 141.85184 226.56563Q141.55496 226.37813 140.88309 226.2375Q138.61746 225.76875 138.61746 224.31563Q138.61746 223.47188 139.30496 222.90938Q140.00809 222.34688 141.14871 222.34688Q142.35184 222.34688 143.07059 222.90938Q143.80496 223.47188 143.80496 224.39375L142.10184 224.39375Q142.10184 224.01875 141.86746 223.78438Q141.63309 223.55 141.13309 223.55Q140.71121 223.55 140.47684 223.75313Q140.24246 223.94063 140.24246 224.2375Q140.24246 224.51875 140.50809 224.69063Q140.77371 224.8625 141.39871 224.9875Q142.03934 225.1125 142.47684 225.26875Q143.82059 225.76875 143.82059 226.97188Q143.82059 227.84688 143.07059 228.39375Q142.33621 228.925 141.14871 228.925Q140.35184 228.925 139.72684 228.64375Q139.11746 228.34688 138.75809 227.8625Q138.41434 227.3625 138.41434 226.78438L140.02371 226.78438Q140.03934 227.2375 140.35184 227.4875Q140.66434 227.72188 141.17996 227.72188Q141.67996 227.72188 141.91434 227.53438Q142.16434 227.34688 142.16434 227.05Z" fill-rule="nonzero"/><path fill="#757575" d="M212.36728 220.175L212.36728 221.58125L212.21103 221.58125Q211.05478 221.59688 210.35165 222.175Q209.66415 222.75313 209.52353 223.78438Q210.1954 223.09688 211.22665 223.09688Q212.35165 223.09688 213.0079 223.89375Q213.66415 224.69063 213.66415 225.9875Q213.66415 226.81563 213.30478 227.4875Q212.9454 228.15938 212.27353 228.55Q211.61728 228.925 210.78915 228.925Q209.4454 228.925 208.61728 227.9875Q207.78915 227.03438 207.78915 225.47188L207.78915 224.8625Q207.78915 223.47188 208.30478 222.40938Q208.83603 221.34688 209.80478 220.76875Q210.78915 220.19063 212.08603 220.175L212.36728 220.175ZM210.71103 224.45625Q210.30478 224.45625 209.96103 224.675Q209.6329 224.87813 209.47665 225.2375L209.47665 225.75313Q209.47665 226.59688 209.80478 227.08125Q210.14853 227.55 210.7579 227.55Q211.30478 227.55 211.6329 227.12813Q211.97665 226.69063 211.97665 226.00313Q211.97665 225.3 211.6329 224.87813Q211.28915 224.45625 210.71103 224.45625ZM218.1329 225.83125L214.83603 225.83125L214.83603 224.45625L218.1329 224.45625L218.1329 225.83125ZM223.8829 228.8L222.1954 228.8L222.1954 222.26875L220.17978 222.89375L220.17978 221.51875L223.71103 220.25313L223.8829 220.25313L223.8829 228.8ZM227.02353 224.59688L227.52353 220.26875L232.30478 220.26875L232.30478 221.675L228.91415 221.675L228.6954 223.51875Q229.30478 223.19063 229.97665 223.19063Q231.1954 223.19063 231.8829 223.95625Q232.58603 224.70625 232.58603 226.06563Q232.58603 226.89375 232.22665 227.55Q231.8829 228.19063 231.22665 228.56563Q230.58603 228.925 229.6954 228.925Q228.92978 228.925 228.2579 228.6125Q227.60165 228.28438 227.21103 227.72188Q226.83603 227.15938 226.80478 226.425L228.49228 226.425Q228.53915 226.95625 228.85165 227.25313Q229.17978 227.55 229.6954 227.55Q230.27353 227.55 230.5704 227.14375Q230.8829 226.72188 230.8829 225.97188Q230.8829 225.2375 230.52353 224.8625Q230.17978 224.47188 229.52353 224.47188Q228.91415 224.47188 228.53915 224.78438L228.3829 224.94063L227.02353 224.59688ZM238.71103 227.39375L242.4454 227.39375L242.4454 228.8L236.96103 228.8L236.96103 220.26875L238.71103 220.26875L238.71103 227.39375ZM250.96103 224.72188Q250.96103 225.9875 250.5079 226.94063Q250.0704 227.87813 249.24228 228.40938Q248.41415 228.925 247.35165 228.925Q246.28915 228.925 245.4454 228.40938Q244.61728 227.89375 244.16415 226.95625Q243.71103 226.00313 243.6954 224.76875L243.6954 224.34688Q243.6954 223.09688 244.14853 222.14375Q244.60165 221.175 245.42978 220.65938Q246.27353 220.14375 247.33603 220.14375Q248.39853 220.14375 249.22665 220.65938Q250.05478 221.175 250.5079 222.14375Q250.96103 223.09688 250.96103 224.34688L250.96103 224.72188ZM249.17978 224.34688Q249.17978 223.00313 248.6954 222.3Q248.22665 221.59688 247.33603 221.59688Q246.4454 221.59688 245.96103 222.3Q245.49228 222.9875 245.47665 224.31563L245.47665 224.72188Q245.47665 226.03438 245.96103 226.75313Q246.4454 227.47188 247.35165 227.47188Q248.22665 227.47188 248.6954 226.78438Q249.17978 226.08125 249.17978 224.75313L249.17978 224.34688ZM258.64853 225.95625Q258.55478 227.33125 257.6329 228.12813Q256.72665 228.925 255.22665 228.925Q253.58603 228.925 252.6329 227.81563Q251.6954 226.70625 251.6954 224.78438L251.6954 224.25313Q251.6954 223.03438 252.1329 222.09688Q252.5704 221.15938 253.36728 220.65938Q254.17978 220.14375 255.24228 220.14375Q256.72665 220.14375 257.61728 220.94063Q258.52353 221.7375 258.66415 223.15938L256.91415 223.15938Q256.85165 222.33125 256.4454 221.97188Q256.05478 221.59688 255.24228 221.59688Q254.36728 221.59688 253.92978 222.22188Q253.49228 222.84688 253.47665 224.175L253.47665 224.81563Q253.47665 226.20625 253.89853 226.84688Q254.3204 227.4875 255.22665 227.4875Q256.03915 227.4875 256.42978 227.1125Q256.83603 226.7375 256.89853 225.95625L258.64853 225.95625ZM263.27353 227.05Q263.27353 226.7375 262.96103 226.56563Q262.66415 226.37813 261.99228 226.2375Q259.72665 225.76875 259.72665 224.31563Q259.72665 223.47188 260.41415 222.90938Q261.11728 222.34688 262.2579 222.34688Q263.46103 222.34688 264.17978 222.90938Q264.91415 223.47188 264.91415 224.39375L263.21103 224.39375Q263.21103 224.01875 262.97665 223.78438Q262.74228 223.55 262.24228 223.55Q261.8204 223.55 261.58603 223.75313Q261.35165 223.94063 261.35165 224.2375Q261.35165 224.51875 261.61728 224.69063Q261.8829 224.8625 262.5079 224.9875Q263.14853 225.1125 263.58603 225.26875Q264.92978 225.76875 264.92978 226.97188Q264.92978 227.84688 264.17978 228.39375Q263.4454 228.925 262.2579 228.925Q261.46103 228.925 260.83603 228.64375Q260.22665 228.34688 259.86728 227.8625Q259.52353 227.3625 259.52353 226.78438L261.1329 226.78438Q261.14853 227.2375 261.46103 227.4875Q261.77353 227.72188 262.28915 227.72188Q262.78915 227.72188 263.02353 227.53438Q263.27353 227.34688 263.27353 227.05Z" fill-rule="nonzero"/><path fill="#757575" d="M325.9921 228.8L324.3046 228.8L324.3046 222.26875L322.28897 222.89375L322.28897 221.51875L325.82022 220.25313L325.9921 220.25313L325.9921 228.8ZM333.47647 220.175L333.47647 221.58125L333.32022 221.58125Q332.16397 221.59688 331.46085 222.175Q330.77335 222.75313 330.63272 223.78438Q331.3046 223.09688 332.33585 223.09688Q333.46085 223.09688 334.1171 223.89375Q334.77335 224.69063 334.77335 225.9875Q334.77335 226.81563 334.41397 227.4875Q334.0546 228.15938 333.38272 228.55Q332.72647 228.925 331.89835 228.925Q330.5546 228.925 329.72647 227.9875Q328.89835 227.03438 328.89835 225.47188L328.89835 224.8625Q328.89835 223.47188 329.41397 222.40938Q329.94522 221.34688 330.91397 220.76875Q331.89835 220.19063 333.19522 220.175L333.47647 220.175ZM331.82022 224.45625Q331.41397 224.45625 331.07022 224.675Q330.7421 224.87813 330.58585 225.2375L330.58585 225.75313Q330.58585 226.59688 330.91397 227.08125Q331.25772 227.55 331.8671 227.55Q332.41397 227.55 332.7421 227.12813Q333.08585 226.69063 333.08585 226.00313Q333.08585 225.3 332.7421 224.87813Q332.39835 224.45625 331.82022 224.45625ZM339.2421 225.83125L335.94522 225.83125L335.94522 224.45625L339.2421 224.45625L339.2421 225.83125ZM346.72647 228.8L340.88272 228.8L340.88272 227.64375L343.64835 224.69063Q344.21085 224.08125 344.47647 223.6125Q344.75772 223.14375 344.75772 222.7375Q344.75772 222.15938 344.46085 221.84688Q344.1796 221.51875 343.64835 221.51875Q343.07022 221.51875 342.7421 221.90938Q342.41397 222.3 342.41397 222.95625L340.71085 222.95625Q340.71085 222.175 341.08585 221.53438Q341.46085 220.87813 342.13272 220.51875Q342.82022 220.14375 343.6796 220.14375Q344.9921 220.14375 345.72647 220.78438Q346.46085 221.40938 346.46085 222.56563Q346.46085 223.20625 346.13272 223.8625Q345.8046 224.51875 345.00772 225.39375L343.07022 227.44063L346.72647 227.44063L346.72647 228.8ZM348.13272 224.59688L348.63272 220.26875L353.41397 220.26875L353.41397 221.675L350.02335 221.675L349.8046 223.51875Q350.41397 223.19063 351.08585 223.19063Q352.3046 223.19063 352.9921 223.95625Q353.69522 224.70625 353.69522 226.06563Q353.69522 226.89375 353.33585 227.55Q352.9921 228.19063 352.33585 228.56563Q351.69522 228.925 350.8046 228.925Q350.03897 228.925 349.3671 228.6125Q348.71085 228.28438 348.32022 227.72188Q347.94522 227.15938 347.91397 226.425L349.60147 226.425Q349.64835 226.95625 349.96085 227.25313Q350.28897 227.55 350.8046 227.55Q351.38272 227.55 351.6796 227.14375Q351.9921 226.72188 351.9921 225.97188Q351.9921 225.2375 351.63272 224.8625Q351.28897 224.47188 350.63272 224.47188Q350.02335 224.47188 349.64835 224.78438L349.4921 224.94063L348.13272 224.59688ZM359.82022 227.39375L363.5546 227.39375L363.5546 228.8L358.07022 228.8L358.07022 220.26875L359.82022 220.26875L359.82022 227.39375ZM372.07022 224.72188Q372.07022 225.9875 371.6171 226.94063Q371.1796 227.87813 370.35147 228.40938Q369.52335 228.925 368.46085 228.925Q367.39835 228.925 366.5546 228.40938Q365.72647 227.89375 365.27335 226.95625Q364.82022 226.00313 364.8046 224.76875L364.8046 224.34688Q364.8046 223.09688 365.25772 222.14375Q365.71085 221.175 366.53897 220.65938Q367.38272 220.14375 368.44522 220.14375Q369.50772 220.14375 370.33585 220.65938Q371.16397 221.175 371.6171 222.14375Q372.07022 223.09688 372.07022 224.34688L372.07022 224.72188ZM370.28897 224.34688Q370.28897 223.00313 369.8046 222.3Q369.33585 221.59688 368.44522 221.59688Q367.5546 221.59688 367.07022 222.3Q366.60147 222.9875 366.58585 224.31563L366.58585 224.72188Q366.58585 226.03438 367.07022 226.75313Q367.5546 227.47188 368.46085 227.47188Q369.33585 227.47188 369.8046 226.78438Q370.28897 226.08125 370.28897 224.75313L370.28897 224.34688ZM379.75772 225.95625Q379.66397 227.33125 378.7421 228.12813Q377.83585 228.925 376.33585 228.925Q374.69522 228.925 373.7421 227.81563Q372.8046 226.70625 372.8046 224.78438L372.8046 224.25313Q372.8046 223.03438 373.2421 222.09688Q373.6796 221.15938 374.47647 220.65938Q375.28897 220.14375 376.35147 220.14375Q377.83585 220.14375 378.72647 220.94063Q379.63272 221.7375 379.77335 223.15938L378.02335 223.15938Q377.96085 222.33125 377.5546 221.97188Q377.16397 221.59688 376.35147 221.59688Q375.47647 221.59688 375.03897 222.22188Q374.60147 222.84688 374.58585 224.175L374.58585 224.81563Q374.58585 226.20625 375.00772 226.84688Q375.4296 227.4875 376.33585 227.4875Q377.14835 227.4875 377.53897 227.1125Q377.94522 226.7375 378.00772 225.95625L379.75772 225.95625ZM384.38272 227.05Q384.38272 226.7375 384.07022 226.56563Q383.77335 226.37813 383.10147 226.2375Q380.83585 225.76875 380.83585 224.31563Q380.83585 223.47188 381.52335 222.90938Q382.22647 222.34688 383.3671 222.34688Q384.57022 222.34688 385.28897 222.90938Q386.02335 223.47188 386.02335 224.39375L384.32022 224.39375Q384.32022 224.01875 384.08585 223.78438Q383.85147 223.55 383.35147 223.55Q382.9296 223.55 382.69522 223.75313Q382.46085 223.94063 382.46085 224.2375Q382.46085 224.51875 382.72647 224.69063Q382.9921 224.8625 383.6171 224.9875Q384.25772 225.1125 384.69522 225.26875Q386.03897 225.76875 386.03897 226.97188Q386.03897 227.84688 385.28897 228.39375Q384.5546 228.925 383.3671 228.925Q382.57022 228.925 381.94522 228.64375Q381.33585 228.34688 380.97647 227.8625Q380.63272 227.3625 380.63272 226.78438L382.2421 226.78438Q382.25772 227.2375 382.57022 227.4875Q382.88272 227.72188 383.39835 227.72188Q383.89835 227.72188 384.13272 227.53438Q384.38272 227.34688 384.38272 227.05Z" fill-rule="nonzero"/><path fill="#757575" d="M448.02316 225.15938L444.6169 223.97188L444.6169 222.34688L449.7263 224.4875L449.7263 225.8625L444.6169 228.00313L444.6169 226.3625L448.02316 225.15938ZM459.33566 228.8L453.4919 228.8L453.4919 227.64375L456.25754 224.69063Q456.82004 224.08125 457.08566 223.6125Q457.3669 223.14375 457.3669 222.7375Q457.3669 222.15938 457.07004 221.84688Q456.7888 221.51875 456.25754 221.51875Q455.6794 221.51875 455.3513 221.90938Q455.02316 222.3 455.02316 222.95625L453.32004 222.95625Q453.32004 222.175 453.69504 221.53438Q454.07004 220.87813 454.7419 220.51875Q455.4294 220.14375 456.2888 220.14375Q457.6013 220.14375 458.33566 220.78438Q459.07004 221.40938 459.07004 222.56563Q459.07004 223.20625 458.7419 223.8625Q458.4138 224.51875 457.6169 225.39375L455.6794 227.44063L459.33566 227.44063L459.33566 228.8ZM460.7419 224.59688L461.2419 220.26875L466.02316 220.26875L466.02316 221.675L462.63254 221.675L462.4138 223.51875Q463.02316 223.19063 463.69504 223.19063Q464.9138 223.19063 465.6013 223.95625Q466.3044 224.70625 466.3044 226.06563Q466.3044 226.89375 465.94504 227.55Q465.6013 228.19063 464.94504 228.56563Q464.3044 228.925 463.4138 228.925Q462.64816 228.925 461.9763 228.6125Q461.32004 228.28438 460.9294 227.72188Q460.5544 227.15938 460.52316 226.425L462.21066 226.425Q462.25754 226.95625 462.57004 227.25313Q462.89816 227.55 463.4138 227.55Q463.9919 227.55 464.2888 227.14375Q464.6013 226.72188 464.6013 225.97188Q464.6013 225.2375 464.2419 224.8625Q463.89816 224.47188 463.2419 224.47188Q462.63254 224.47188 462.25754 224.78438L462.1013 224.94063L460.7419 224.59688ZM472.4294 227.39375L476.1638 227.39375L476.1638 228.8L470.6794 228.8L470.6794 220.26875L472.4294 220.26875L472.4294 227.39375ZM484.6794 224.72188Q484.6794 225.9875 484.2263 226.94063Q483.7888 227.87813 482.96066 228.40938Q482.13254 228.925 481.07004 228.925Q480.00754 228.925 479.1638 228.40938Q478.33566 227.89375 477.88254 226.95625Q477.4294 226.00313 477.4138 224.76875L477.4138 224.34688Q477.4138 223.09688 477.8669 222.14375Q478.32004 221.175 479.14816 220.65938Q479.9919 220.14375 481.0544 220.14375Q482.1169 220.14375 482.94504 220.65938Q483.77316 221.175 484.2263 222.14375Q484.6794 223.09688 484.6794 224.34688L484.6794 224.72188ZM482.89816 224.34688Q482.89816 223.00313 482.4138 222.3Q481.94504 221.59688 481.0544 221.59688Q480.1638 221.59688 479.6794 222.3Q479.21066 222.9875 479.19504 224.31563L479.19504 224.72188Q479.19504 226.03438 479.6794 226.75313Q480.1638 227.47188 481.07004 227.47188Q481.94504 227.47188 482.4138 226.78438Q482.89816 226.08125 482.89816 224.75313L482.89816 224.34688ZM492.3669 225.95625Q492.27316 227.33125 491.3513 228.12813Q490.44504 228.925 488.94504 228.925Q487.3044 228.925 486.3513 227.81563Q485.4138 226.70625 485.4138 224.78438L485.4138 224.25313Q485.4138 223.03438 485.8513 222.09688Q486.2888 221.15938 487.08566 220.65938Q487.89816 220.14375 488.96066 220.14375Q490.44504 220.14375 491.33566 220.94063Q492.2419 221.7375 492.38254 223.15938L490.63254 223.15938Q490.57004 222.33125 490.1638 221.97188Q489.77316 221.59688 488.96066 221.59688Q488.08566 221.59688 487.64816 222.22188Q487.21066 222.84688 487.19504 224.175L487.19504 224.81563Q487.19504 226.20625 487.6169 226.84688Q488.0388 227.4875 488.94504 227.4875Q489.75754 227.4875 490.14816 227.1125Q490.5544 226.7375 490.6169 225.95625L492.3669 225.95625ZM496.9919 227.05Q496.9919 226.7375 496.6794 226.56563Q496.38254 226.37813 495.71066 226.2375Q493.44504 225.76875 493.44504 224.31563Q493.44504 223.47188 494.13254 222.90938Q494.83566 222.34688 495.9763 222.34688Q497.1794 222.34688 497.89816 222.90938Q498.63254 223.47188 498.63254 224.39375L496.9294 224.39375Q496.9294 224.01875 496.69504 223.78438Q496.46066 223.55 495.96066 223.55Q495.5388 223.55 495.3044 223.75313Q495.07004 223.94063 495.07004 224.2375Q495.07004 224.51875 495.33566 224.69063Q495.6013 224.8625 496.2263 224.9875Q496.8669 225.1125 497.3044 225.26875Q498.64816 225.76875 498.64816 226.97188Q498.64816 227.84688 497.89816 228.39375Q497.1638 228.925 495.9763 228.925Q495.1794 228.925 494.5544 228.64375Q493.94504 228.34688 493.58566 227.8625Q493.2419 227.3625 493.2419 226.78438L494.8513 226.78438Q494.8669 227.2375 495.1794 227.4875Q495.4919 227.72188 496.00754 227.72188Q496.50754 227.72188 496.7419 227.53438Q496.9919 227.34688 496.9919 227.05Z" fill-rule="nonzero"/><path fill="#db4437" d="M163.0 14.7C163.0 14.147716 163.44771 13.7 164.0 13.7L174.0 13.7C174.55229 13.7 175.0 14.147716 175.0 14.7L175.0 24.7C175.0 25.252285 174.55229 25.7 174.0 25.7L164.0 25.7C163.44771 25.7 163.0 25.252285 163.0 24.7Z" fill-rule="nonzero"/><path fill="#757575" d="M185.10938 20.85625L185.10938 24.2L183.98438 24.2L183.98438 15.668751L187.14062 15.668751Q188.53125 15.668751 189.32812 16.3875Q190.125 17.090626 190.125 18.278126Q190.125 19.5125 189.34375 20.184376Q188.57812 20.85625 187.125 20.85625L185.10938 20.85625ZM185.10938 19.934376L187.14062 19.934376Q188.04688 19.934376 188.51562 19.5125Q189.0 19.090626 189.0 18.29375Q189.0 17.528126 188.51562 17.075Q188.04688 16.60625 187.20312 16.590626L185.10938 16.590626L185.10938 19.934376ZM194.89062 18.825Q194.64062 18.79375 194.35938 18.79375Q193.28125 18.79375 192.90625 19.7L192.90625 24.2L191.82812 24.2L191.82812 17.85625L192.875 17.85625L192.89062 18.590626Q193.42188 17.746876 194.40625 17.746876Q194.71875 17.746876 194.89062 17.825L194.89062 18.825ZM198.45312 24.325Q197.15625 24.325 196.34375 23.48125Q195.54688 22.621876 195.54688 21.2L195.54688 21.0125Q195.54688 20.059376 195.90625 19.325Q196.26562 18.575 196.90625 18.16875Q197.5625 17.746876 198.3125 17.746876Q199.54688 17.746876 200.23438 18.559376Q200.92188 19.371876 200.92188 20.8875L200.92188 21.340626L196.625 21.340626Q196.65625 22.278126 197.17188 22.85625Q197.70312 23.434376 198.51562 23.434376Q199.07812 23.434376 199.46875 23.2Q199.875 22.965626 200.1875 22.575L200.84375 23.090626Q200.04688 24.325 198.45312 24.325ZM198.3125 18.6375Q197.65625 18.6375 197.20312 19.121876Q196.76562 19.590626 196.67188 20.45L199.84375 20.45L199.84375 20.371876Q199.79688 19.54375 199.39062 19.090626Q199.0 18.6375 198.3125 18.6375ZM204.35938 23.434376Q204.9375 23.434376 205.375 23.090626Q205.8125 22.73125 205.85938 22.2L206.89062 22.2Q206.85938 22.746876 206.5 23.246876Q206.15625 23.73125 205.57812 24.028126Q205.01562 24.325 204.35938 24.325Q203.0625 24.325 202.29688 23.465626Q201.54688 22.590626 201.54688 21.090626L201.54688 20.903126Q201.54688 19.98125 201.875 19.2625Q202.21875 18.54375 202.84375 18.153126Q203.48438 17.746876 204.35938 17.746876Q205.42188 17.746876 206.125 18.3875Q206.84375 19.0125 206.89062 20.04375L205.85938 20.04375Q205.8125 19.41875 205.39062 19.028126Q204.96875 18.6375 204.35938 18.6375Q203.53125 18.6375 203.07812 19.23125Q202.625 19.825 202.625 20.95L202.625 21.153126Q202.625 22.246876 203.07812 22.840626Q203.53125 23.434376 204.35938 23.434376ZM209.0 24.2L207.92188 24.2L207.92188 17.85625L209.0 17.85625L209.0 24.2ZM207.82812 16.184376Q207.82812 15.918751 207.98438 15.731251Q208.15625 15.543751 208.46875 15.543751Q208.78125 15.543751 208.9375 15.731251Q209.10938 15.918751 209.10938 16.184376Q209.10938 16.434376 208.9375 16.621876Q208.78125 16.79375 208.46875 16.79375Q208.15625 16.79375 207.98438 16.621876Q207.82812 16.434376 207.82812 16.184376ZM214.51562 22.5125Q214.51562 22.075 214.17188 21.840626Q213.84375 21.590626 213.01562 21.41875Q212.20312 21.246876 211.71875 20.996876Q211.23438 20.746876 211.0 20.41875Q210.78125 20.075 210.78125 19.60625Q210.78125 18.825 211.4375 18.29375Q212.09375 17.746876 213.125 17.746876Q214.20312 17.746876 214.85938 18.309376Q215.53125 18.85625 215.53125 19.715626L214.45312 19.715626Q214.45312 19.278126 214.0625 18.965626Q213.6875 18.6375 213.125 18.6375Q212.53125 18.6375 212.1875 18.903126Q211.85938 19.153126 211.85938 19.559376Q211.85938 19.95 212.17188 20.153126Q212.48438 20.35625 213.29688 20.54375Q214.10938 20.715626 214.60938 20.965626Q215.10938 21.215626 215.34375 21.575Q215.59375 21.934376 215.59375 22.434376Q215.59375 23.29375 214.90625 23.809376Q214.23438 24.325 213.15625 24.325Q212.39062 24.325 211.79688 24.059376Q211.21875 23.778126 210.89062 23.29375Q210.5625 22.809376 210.5625 22.246876L211.64062 22.246876Q211.67188 22.79375 212.07812 23.121876Q212.48438 23.434376 213.15625 23.434376Q213.76562 23.434376 214.14062 23.184376Q214.51562 22.934376 214.51562 22.5125ZM218.0 24.2L216.92188 24.2L216.92188 17.85625L218.0 17.85625L218.0 24.2ZM216.82812 16.184376Q216.82812 15.918751 216.98438 15.731251Q217.15625 15.543751 217.46875 15.543751Q217.78125 15.543751 217.9375 15.731251Q218.10938 15.918751 218.10938 16.184376Q218.10938 16.434376 217.9375 16.621876Q217.78125 16.79375 217.46875 16.79375Q217.15625 16.79375 216.98438 16.621876Q216.82812 16.434376 216.82812 16.184376ZM219.53125 20.965626Q219.53125 20.04375 219.89062 19.29375Q220.26562 18.54375 220.92188 18.153126Q221.57812 17.746876 222.40625 17.746876Q223.70312 17.746876 224.5 18.6375Q225.3125 19.528126 225.3125 21.028126L225.3125 21.10625Q225.3125 22.028126 224.95312 22.7625Q224.59375 23.496876 223.9375 23.91875Q223.28125 24.325 222.42188 24.325Q221.14062 24.325 220.32812 23.434376Q219.53125 22.528126 219.53125 21.04375L219.53125 20.965626ZM220.625 21.10625Q220.625 22.153126 221.10938 22.79375Q221.60938 23.434376 222.42188 23.434376Q223.25 23.434376 223.73438 22.79375Q224.21875 22.1375 224.21875 20.965626Q224.21875 19.934376 223.71875 19.29375Q223.23438 18.6375 222.40625 18.6375Q221.60938 18.6375 221.10938 19.278126Q220.625 19.903126 220.625 21.10625ZM227.84375 17.85625L227.875 18.653126Q228.60938 17.746876 229.78125 17.746876Q231.79688 17.746876 231.8125 20.0125L231.8125 24.2L230.71875 24.2L230.71875 19.996876Q230.71875 19.325 230.40625 18.996876Q230.10938 18.66875 229.45312 18.66875Q228.92188 18.66875 228.51562 18.95Q228.125 19.23125 227.90625 19.684376L227.90625 24.2L226.82812 24.2L226.82812 17.85625L227.84375 17.85625Z" fill-rule="nonzero"/><path fill="#f4b400" d="M249.0 14.7C249.0 14.147716 249.44771 13.7 250.0 13.7L260.0 13.7C260.55228 13.7 261.0 14.147716 261.0 14.7L261.0 24.7C261.0 25.252285 260.55228 25.7 260.0 25.7L250.0 25.7C249.44771 25.7 249.0 25.252285 249.0 24.7Z" fill-rule="nonzero"/><path fill="#757575" d="M273.125 20.746876L271.10938 20.746876L271.10938 24.2L269.98438 24.2L269.98438 15.668751L272.8125 15.668751Q274.25 15.668751 275.01562 16.325Q275.79688 16.98125 275.79688 18.23125Q275.79688 19.028126 275.35938 19.621876Q274.9375 20.215626 274.17188 20.5125L276.17188 24.121876L276.17188 24.2L274.96875 24.2L273.125 20.746876ZM271.10938 19.825L272.84375 19.825Q273.6875 19.825 274.17188 19.403126Q274.67188 18.965626 274.67188 18.23125Q274.67188 17.45 274.20312 17.028126Q273.73438 16.60625 272.84375 16.590626L271.10938 16.590626L271.10938 19.825ZM279.45312 24.325Q278.15625 24.325 277.34375 23.48125Q276.54688 22.621876 276.54688 21.2L276.54688 21.0125Q276.54688 20.059376 276.90625 19.325Q277.26562 18.575 277.90625 18.16875Q278.5625 17.746876 279.3125 17.746876Q280.54688 17.746876 281.23438 18.559376Q281.92188 19.371876 281.92188 20.8875L281.92188 21.340626L277.625 21.340626Q277.65625 22.278126 278.17188 22.85625Q278.70312 23.434376 279.51562 23.434376Q280.07812 23.434376 280.46875 23.2Q280.875 22.965626 281.1875 22.575L281.84375 23.090626Q281.04688 24.325 279.45312 24.325ZM279.3125 18.6375Q278.65625 18.6375 278.20312 19.121876Q277.76562 19.590626 277.67188 20.45L280.84375 20.45L280.84375 20.371876Q280.79688 19.54375 280.39062 19.090626Q280.0 18.6375 279.3125 18.6375ZM285.35938 23.434376Q285.9375 23.434376 286.375 23.090626Q286.8125 22.73125 286.85938 22.2L287.89062 22.2Q287.85938 22.746876 287.5 23.246876Q287.15625 23.73125 286.57812 24.028126Q286.01562 24.325 285.35938 24.325Q284.0625 24.325 283.29688 23.465626Q282.54688 22.590626 282.54688 21.090626L282.54688 20.903126Q282.54688 19.98125 282.875 19.2625Q283.21875 18.54375 283.84375 18.153126Q284.48438 17.746876 285.35938 17.746876Q286.42188 17.746876 287.125 18.3875Q287.84375 19.0125 287.89062 20.04375L286.85938 20.04375Q286.8125 19.41875 286.39062 19.028126Q285.96875 18.6375 285.35938 18.6375Q284.53125 18.6375 284.07812 19.23125Q283.625 19.825 283.625 20.95L283.625 21.153126Q283.625 22.246876 284.07812 22.840626Q284.53125 23.434376 285.35938 23.434376ZM292.73438 24.2Q292.64062 24.0125 292.57812 23.528126Q291.82812 24.325 290.78125 24.325Q289.84375 24.325 289.23438 23.79375Q288.64062 23.2625 288.64062 22.434376Q288.64062 21.45 289.39062 20.903126Q290.14062 20.35625 291.51562 20.35625L292.5625 20.35625L292.5625 19.85625Q292.5625 19.29375 292.21875 18.965626Q291.89062 18.621876 291.21875 18.621876Q290.64062 18.621876 290.25 18.91875Q289.85938 19.2 289.85938 19.621876L288.76562 19.621876Q288.76562 19.1375 289.09375 18.7Q289.4375 18.2625 290.01562 18.0125Q290.59375 17.746876 291.28125 17.746876Q292.39062 17.746876 293.0 18.29375Q293.625 18.840626 293.65625 19.79375L293.65625 22.715626Q293.65625 23.590626 293.875 24.10625L293.875 24.2L292.73438 24.2ZM290.9375 23.371876Q291.45312 23.371876 291.90625 23.10625Q292.35938 22.840626 292.5625 22.41875L292.5625 21.121876L291.71875 21.121876Q289.71875 21.121876 289.71875 22.29375Q289.71875 22.79375 290.0625 23.090626Q290.40625 23.371876 290.9375 23.371876ZM297.0 24.2L295.92188 24.2L295.92188 15.200001L297.0 15.200001L297.0 24.2ZM300.0 24.2L298.92188 24.2L298.92188 15.200001L300.0 15.200001L300.0 24.2Z" fill-rule="nonzero"/><path fill="#4285f4" d="M329.0 19.7C329.0 23.013708 326.31372 25.7 323.0 25.7C319.68628 25.7 317.0 23.013708 317.0 19.7C317.0 16.386292 319.68628 13.7 323.0 13.7C326.31372 13.7 329.0 16.386292 329.0 19.7Z" fill-rule="nonzero"/><path fill="#757575" d="M337.98438 24.2L337.98438 15.668751L340.40625 15.668751Q341.51562 15.668751 342.35938 16.16875Q343.21875 16.653126 343.6875 17.559376Q344.15625 18.465626 344.15625 19.653126L344.15625 20.184376Q344.15625 21.403126 343.6875 22.309376Q343.23438 23.215626 342.35938 23.7Q341.5 24.184376 340.35938 24.2L337.98438 24.2ZM339.10938 16.590626L339.10938 23.278126L340.29688 23.278126Q341.59375 23.278126 342.3125 22.48125Q343.04688 21.66875 343.04688 20.16875L343.04688 19.66875Q343.04688 18.215626 342.35938 17.41875Q341.6875 16.60625 340.42188 16.590626L339.10938 16.590626ZM347.0 24.2L345.92188 24.2L345.92188 17.85625L347.0 17.85625L347.0 24.2ZM345.82812 16.184376Q345.82812 15.918751 345.98438 15.731251Q346.15625 15.543751 346.46875 15.543751Q346.78125 15.543751 346.9375 15.731251Q347.10938 15.918751 347.10938 16.184376Q347.10938 16.434376 346.9375 16.621876Q346.78125 16.79375 346.46875 16.79375Q346.15625 16.79375 345.98438 16.621876Q345.82812 16.434376 345.82812 16.184376ZM352.51562 22.5125Q352.51562 22.075 352.17188 21.840626Q351.84375 21.590626 351.01562 21.41875Q350.20312 21.246876 349.71875 20.996876Q349.23438 20.746876 349.0 20.41875Q348.78125 20.075 348.78125 19.60625Q348.78125 18.825 349.4375 18.29375Q350.09375 17.746876 351.125 17.746876Q352.20312 17.746876 352.85938 18.309376Q353.53125 18.85625 353.53125 19.715626L352.45312 19.715626Q352.45312 19.278126 352.0625 18.965626Q351.6875 18.6375 351.125 18.6375Q350.53125 18.6375 350.1875 18.903126Q349.85938 19.153126 349.85938 19.559376Q349.85938 19.95 350.17188 20.153126Q350.48438 20.35625 351.29688 20.54375Q352.10938 20.715626 352.60938 20.965626Q353.10938 21.215626 353.34375 21.575Q353.59375 21.934376 353.59375 22.434376Q353.59375 23.29375 352.90625 23.809376Q352.23438 24.325 351.15625 24.325Q350.39062 24.325 349.79688 24.059376Q349.21875 23.778126 348.89062 23.29375Q348.5625 22.809376 348.5625 22.246876L349.64062 22.246876Q349.67188 22.79375 350.07812 23.121876Q350.48438 23.434376 351.15625 23.434376Q351.76562 23.434376 352.14062 23.184376Q352.51562 22.934376 352.51562 22.5125ZM356.29688 16.325L356.29688 17.85625L357.46875 17.85625L357.46875 18.7L356.29688 18.7L356.29688 22.621876Q356.29688 23.0125 356.45312 23.2Q356.60938 23.3875 356.98438 23.3875Q357.17188 23.3875 357.5 23.325L357.5 24.2Q357.07812 24.325 356.67188 24.325Q355.95312 24.325 355.57812 23.8875Q355.20312 23.434376 355.20312 22.621876L355.20312 18.7L354.04688 18.7L354.04688 17.85625L355.20312 17.85625L355.20312 16.325L356.29688 16.325ZM361.89062 18.825Q361.64062 18.79375 361.35938 18.79375Q360.28125 18.79375 359.90625 19.7L359.90625 24.2L358.82812 24.2L358.82812 17.85625L359.875 17.85625L359.89062 18.590626Q360.42188 17.746876 361.40625 17.746876Q361.71875 17.746876 361.89062 17.825L361.89062 18.825ZM364.0 24.2L362.92188 24.2L362.92188 17.85625L364.0 17.85625L364.0 24.2ZM362.82812 16.184376Q362.82812 15.918751 362.98438 15.731251Q363.15625 15.543751 363.46875 15.543751Q363.78125 15.543751 363.9375 15.731251Q364.10938 15.918751 364.10938 16.184376Q364.10938 16.434376 363.9375 16.621876Q363.78125 16.79375 363.46875 16.79375Q363.15625 16.79375 362.98438 16.621876Q362.82812 16.434376 362.82812 16.184376ZM371.1875 21.10625Q371.1875 22.559376 370.51562 23.45Q369.85938 24.325 368.73438 24.325Q367.53125 24.325 366.875 23.465626L366.8125 24.2L365.82812 24.2L365.82812 15.200001L366.90625 15.200001L366.90625 18.559376Q367.5625 17.746876 368.71875 17.746876Q369.875 17.746876 370.53125 18.621876Q371.1875 19.48125 371.1875 21.0125L371.1875 21.10625ZM370.10938 20.98125Q370.10938 19.871876 369.67188 19.278126Q369.25 18.66875 368.45312 18.66875Q367.375 18.66875 366.90625 19.653126L366.90625 22.403126Q367.40625 23.403126 368.45312 23.403126Q369.23438 23.403126 369.67188 22.79375Q370.10938 22.184376 370.10938 20.98125ZM376.73438 23.575Q376.10938 24.325 374.875 24.325Q373.85938 24.325 373.32812 23.73125Q372.79688 23.1375 372.79688 21.98125L372.79688 17.85625L373.875 17.85625L373.875 21.95Q373.875 23.403126 375.04688 23.403126Q376.29688 23.403126 376.70312 22.465626L376.70312 17.85625L377.79688 17.85625L377.79688 24.2L376.76562 24.2L376.73438 23.575ZM381.29688 16.325L381.29688 17.85625L382.46875 17.85625L382.46875 18.7L381.29688 18.7L381.29688 22.621876Q381.29688 23.0125 381.45312 23.2Q381.60938 23.3875 381.98438 23.3875Q382.17188 23.3875 382.5 23.325L382.5 24.2Q382.07812 24.325 381.67188 24.325Q380.95312 24.325 380.57812 23.8875Q380.20312 23.434376 380.20312 22.621876L380.20312 18.7L379.04688 18.7L379.04688 17.85625L380.20312 17.85625L380.20312 16.325L381.29688 16.325ZM385.0 24.2L383.92188 24.2L383.92188 17.85625L385.0 17.85625L385.0 24.2ZM383.82812 16.184376Q383.82812 15.918751 383.98438 15.731251Q384.15625 15.543751 384.46875 15.543751Q384.78125 15.543751 384.9375 15.731251Q385.10938 15.918751 385.10938 16.184376Q385.10938 16.434376 384.9375 16.621876Q384.78125 16.79375 384.46875 16.79375Q384.15625 16.79375 383.98438 16.621876Q383.82812 16.434376 383.82812 16.184376ZM386.53125 20.965626Q386.53125 20.04375 386.89062 19.29375Q387.26562 18.54375 387.92188 18.153126Q388.57812 17.746876 389.40625 17.746876Q390.70312 17.746876 391.5 18.6375Q392.3125 19.528126 392.3125 21.028126L392.3125 21.10625Q392.3125 22.028126 391.95312 22.7625Q391.59375 23.496876 390.9375 23.91875Q390.28125 24.325 389.42188 24.325Q388.14062 24.325 387.32812 23.434376Q386.53125 22.528126 386.53125 21.04375L386.53125 20.965626ZM387.625 21.10625Q387.625 22.153126 388.10938 22.79375Q388.60938 23.434376 389.42188 23.434376Q390.25 23.434376 390.73438 22.79375Q391.21875 22.1375 391.21875 20.965626Q391.21875 19.934376 390.71875 19.29375Q390.23438 18.6375 389.40625 18.6375Q388.60938 18.6375 388.10938 19.278126Q387.625 19.903126 387.625 21.10625ZM394.84375 17.85625L394.875 18.653126Q395.60938 17.746876 396.78125 17.746876Q398.79688 17.746876 398.8125 20.0125L398.8125 24.2L397.71875 24.2L397.71875 19.996876Q397.71875 19.325 397.40625 18.996876Q397.10938 18.66875 396.45312 18.66875Q395.92188 18.66875 395.51562 18.95Q395.125 19.23125 394.90625 19.684376L394.90625 24.2L393.82812 24.2L393.82812 17.85625L394.84375 17.85625Z" fill-rule="nonzero"/></svg>